AmstelvarA2-Roman_wght800_wdth85.ufo
<glyph name="exclam" format="2">
  <advance width="383"/>
  <unicode hex="0021"/>
  <outline>
    <contour>
      <point x="-15" y="183" type="qcurve" smooth="yes"/>
      <point x="-15" y="267"/>
      <point x="101" y="390"/>
      <point x="192" y="390" type="qcurve" smooth="yes"/>
      <point x="282" y="390"/>
      <point x="398" y="267"/>
      <point x="398" y="183" type="qcurve" smooth="yes"/>
      <point x="398" y="101"/>
      <point x="282" y="-22"/>
      <point x="192" y="-22" type="qcurve" smooth="yes"/>
      <point x="101" y="-22"/>
      <point x="-15" y="101"/>
    </contour>
    <contour>
      <point x="8" y="1343" type="line" smooth="yes"/>
      <point x="1" y="1411"/>
      <point x="80" y="1546"/>
      <point x="188" y="1547" type="qcurve" smooth="yes"/>
      <point x="295" y="1548"/>
      <point x="383" y="1413"/>
      <point x="375" y="1344" type="qcurve" smooth="yes"/>
      <point x="354" y="1108" type="line"/>
      <point x="269" y="800" type="line"/>
      <point x="242" y="512" type="line"/>
      <point x="139" y="512" type="line"/>
      <point x="112" y="800" type="line"/>
      <point x="29" y="1108" type="line"/>
    </contour>
  </outline>
</glyph>
<glyph name="quotedbl" format="2">
  <advance width="812"/>
  <unicode hex="0022"/>
  <outline>
    <contour>
      <point x="118" y="964" type="line"/>
      <point x="-19" y="1369" type="line"/>
      <point x="-19" y="1436"/>
      <point x="75" y="1558"/>
      <point x="172" y="1558" type="qcurve" smooth="yes"/>
      <point x="268" y="1558"/>
      <point x="362" y="1436"/>
      <point x="362" y="1369" type="qcurve"/>
      <point x="223" y="964" type="line"/>
    </contour>
    <contour>
      <point x="587" y="964" type="line"/>
      <point x="450" y="1369" type="line"/>
      <point x="450" y="1436"/>
      <point x="543" y="1558"/>
      <point x="640" y="1558" type="qcurve" smooth="yes"/>
      <point x="737" y="1558"/>
      <point x="831" y="1436"/>
      <point x="831" y="1369" type="qcurve"/>
      <point x="691" y="964" type="line"/>
    </contour>
  </outline>
</glyph>
<glyph name="numbersign" format="2">
  <advance width="1001"/>
  <unicode hex="0023"/>
  <outline>
    <contour>
      <point x="-4" y="483" type="line"/>
      <point x="-4" y="638" type="line"/>
      <point x="910" y="638" type="line"/>
      <point x="910" y="483" type="line"/>
    </contour>
    <contour>
      <point x="91" y="843" type="line"/>
      <point x="91" y="998" type="line"/>
      <point x="1005" y="998" type="line"/>
      <point x="1005" y="843" type="line"/>
    </contour>
    <contour>
      <point x="31" y="9" type="line"/>
      <point x="588" y="1525" type="line"/>
      <point x="696" y="1495" type="line"/>
      <point x="140" y="-21" type="line"/>
    </contour>
    <contour>
      <point x="330" y="9" type="line"/>
      <point x="887" y="1525" type="line"/>
      <point x="995" y="1495" type="line"/>
      <point x="438" y="-21" type="line"/>
    </contour>
  </outline>
</glyph>
<glyph name="dollar" format="2">
  <advance width="816"/>
  <unicode hex="0024"/>
  <outline>
    <contour>
      <point x="1" y="274" type="qcurve"/>
      <point x="123" y="350" type="line"/>
      <point x="155" y="271"/>
      <point x="301" y="131"/>
      <point x="398" y="131" type="qcurve" smooth="yes"/>
      <point x="492" y="131"/>
      <point x="590" y="258"/>
      <point x="590" y="352" type="qcurve" smooth="yes"/>
      <point x="590" y="468"/>
      <point x="391" y="580"/>
      <point x="313" y="636" type="qcurve" smooth="yes"/>
      <point x="206" y="702"/>
      <point x="9" y="918"/>
      <point x="9" y="1097" type="qcurve" smooth="yes"/>
      <point x="9" y="1280"/>
      <point x="243" y="1501"/>
      <point x="408" y="1501" type="qcurve" smooth="yes"/>
      <point x="508" y="1501"/>
      <point x="682" y="1438"/>
      <point x="754" y="1370" type="qcurve"/>
      <point x="650" y="1263" type="line"/>
      <point x="609" y="1307"/>
      <point x="487" y="1364"/>
      <point x="408" y="1364" type="qcurve" smooth="yes"/>
      <point x="316" y="1364"/>
      <point x="232" y="1268"/>
      <point x="232" y="1186" type="qcurve" smooth="yes"/>
      <point x="232" y="1110"/>
      <point x="312" y="998"/>
      <point x="436" y="926" type="qcurve" smooth="yes"/>
      <point x="585" y="846"/>
      <point x="815" y="627"/>
      <point x="815" y="451" type="qcurve" smooth="yes"/>
      <point x="815" y="254"/>
      <point x="571" y="1"/>
      <point x="412" y="1" type="qcurve" smooth="yes"/>
      <point x="261" y="1"/>
      <point x="59" y="150"/>
    </contour>
    <contour>
      <point x="313" y="-190" type="line"/>
      <point x="313" y="52" type="line"/>
      <point x="333" y="52" type="line"/>
      <point x="333" y="796" type="line"/>
      <point x="465" y="754" type="line"/>
      <point x="465" y="52" type="line"/>
      <point x="487" y="52" type="line"/>
      <point x="487" y="-140" type="line"/>
    </contour>
    <contour>
      <point x="312" y="1610" type="line"/>
      <point x="486" y="1649" type="line"/>
      <point x="486" y="1418" type="line"/>
      <point x="465" y="1418" type="line"/>
      <point x="465" y="754" type="line"/>
      <point x="333" y="796" type="line"/>
      <point x="333" y="1418" type="line"/>
      <point x="312" y="1418" type="line"/>
    </contour>
  </outline>
</glyph>
<glyph name="ampersand" format="2">
  <advance width="1271"/>
  <unicode hex="0026"/>
  <outline>
    <contour>
      <point x="456" y="-28" type="qcurve" smooth="yes"/>
      <point x="209" y="-28"/>
      <point x="-7" y="229"/>
      <point x="0" y="371" type="qcurve" smooth="yes"/>
      <point x="7" y="500"/>
      <point x="262" y="772"/>
      <point x="508" y="871" type="qcurve"/>
      <point x="599" y="942"/>
      <point x="713" y="1102"/>
      <point x="713" y="1210" type="qcurve" smooth="yes"/>
      <point x="713" y="1294"/>
      <point x="669" y="1404"/>
      <point x="627" y="1404" type="qcurve" smooth="yes"/>
      <point x="587" y="1404"/>
      <point x="537" y="1289"/>
      <point x="537" y="1196" type="qcurve" smooth="yes"/>
      <point x="537" y="1104"/>
      <point x="634" y="942"/>
      <point x="679" y="906" type="qcurve"/>
      <point x="979" y="280" type="line" smooth="yes"/>
      <point x="1015" y="206"/>
      <point x="1084" y="106"/>
      <point x="1123" y="106" type="qcurve" smooth="yes"/>
      <point x="1153" y="106"/>
      <point x="1187" y="143"/>
      <point x="1204" y="178" type="qcurve"/>
      <point x="1273" y="113" type="line"/>
      <point x="1236" y="38"/>
      <point x="1132" y="-40"/>
      <point x="1004" y="-41" type="qcurve" smooth="yes"/>
      <point x="866" y="-41"/>
      <point x="684" y="88"/>
      <point x="623" y="220" type="qcurve" smooth="yes"/>
      <point x="394" y="779" type="line"/>
      <point x="307" y="838"/>
      <point x="205" y="1049"/>
      <point x="208" y="1165" type="qcurve" smooth="yes"/>
      <point x="211" y="1307"/>
      <point x="412" y="1516"/>
      <point x="549" y="1516" type="qcurve" smooth="yes"/>
      <point x="720" y="1516"/>
      <point x="850" y="1345"/>
      <point x="850" y="1210" type="qcurve" smooth="yes"/>
      <point x="850" y="1080"/>
      <point x="709" y="888"/>
      <point x="625" y="845" type="qcurve"/>
      <point x="487" y="722"/>
      <point x="383" y="521"/>
      <point x="380" y="403" type="qcurve" smooth="yes"/>
      <point x="377" y="275"/>
      <point x="489" y="128"/>
      <point x="596" y="128" type="qcurve" smooth="yes"/>
      <point x="768" y="128"/>
      <point x="1082" y="575"/>
      <point x="1172" y="873" type="qcurve"/>
      <point x="1271" y="858" type="line"/>
      <point x="1180" y="508"/>
      <point x="815" y="-28"/>
    </contour>
    <contour>
      <point x="792" y="817" type="line"/>
      <point x="818" y="898"/>
      <point x="913" y="1010"/>
      <point x="958" y="1010" type="qcurve" smooth="yes"/>
      <point x="993" y="1010"/>
      <point x="1094" y="959"/>
      <point x="1123" y="959" type="qcurve" smooth="yes"/>
      <point x="1146" y="959"/>
      <point x="1175" y="963"/>
      <point x="1197" y="981" type="qcurve"/>
      <point x="1285" y="880" type="line"/>
      <point x="1256" y="795"/>
      <point x="1173" y="750"/>
      <point x="1147" y="750" type="qcurve" smooth="yes"/>
      <point x="1115" y="750"/>
      <point x="1022" y="818"/>
      <point x="992" y="818" type="qcurve" smooth="yes"/>
      <point x="946" y="818"/>
      <point x="876" y="789"/>
      <point x="842" y="754" type="qcurve"/>
    </contour>
  </outline>
</glyph>
<glyph name="quotesingle" format="2">
  <advance width="353"/>
  <unicode hex="0027"/>
  <outline>
    <contour>
      <point x="128" y="964" type="line"/>
      <point x="-19" y="1369" type="line"/>
      <point x="-19" y="1436"/>
      <point x="75" y="1558"/>
      <point x="172" y="1558" type="qcurve" smooth="yes"/>
      <point x="268" y="1558"/>
      <point x="362" y="1436"/>
      <point x="362" y="1369" type="qcurve"/>
      <point x="214" y="964" type="line"/>
    </contour>
  </outline>
</glyph>
<glyph name="parenleft" format="2">
  <advance width="763"/>
  <unicode hex="0028"/>
  <outline>
    <contour>
      <point x="68" y="521" type="qcurve" smooth="yes"/>
      <point x="68" y="816"/>
      <point x="452" y="1389"/>
      <point x="666" y="1526" type="qcurve"/>
      <point x="743" y="1446" type="line"/>
      <point x="616" y="1294"/>
      <point x="420" y="797"/>
      <point x="420" y="521" type="qcurve" smooth="yes"/>
      <point x="420" y="245"/>
      <point x="612" y="-257"/>
      <point x="743" y="-405" type="qcurve"/>
      <point x="666" y="-485" type="line"/>
      <point x="452" y="-348"/>
      <point x="68" y="213"/>
    </contour>
  </outline>
</glyph>
<glyph name="asterisk" format="2">
  <advance width="828"/>
  <unicode hex="002A"/>
  <outline>
    <contour>
      <point x="414" y="664" type="qcurve" smooth="yes"/>
      <point x="342" y="664"/>
      <point x="283" y="762"/>
      <point x="301" y="823" type="qcurve" smooth="yes"/>
      <point x="395" y="1073" type="line"/>
      <point x="392" y="1076" type="line"/>
      <point x="219" y="868" type="line" smooth="yes"/>
      <point x="188" y="828"/>
      <point x="62" y="821"/>
      <point x="25" y="888" type="qcurve" smooth="yes"/>
      <point x="-13" y="952"/>
      <point x="55" y="1056"/>
      <point x="107" y="1063" type="qcurve" smooth="yes"/>
      <point x="371" y="1107" type="line"/>
      <point x="370" y="1113" type="line"/>
      <point x="108" y="1159" type="line" smooth="yes"/>
      <point x="57" y="1165"/>
      <point x="-12" y="1269"/>
      <point x="27" y="1335" type="qcurve" smooth="yes"/>
      <point x="64" y="1400"/>
      <point x="185" y="1390"/>
      <point x="221" y="1353" type="qcurve" smooth="yes"/>
      <point x="389" y="1146" type="line"/>
      <point x="394" y="1149" type="line"/>
      <point x="300" y="1407" type="line" smooth="yes"/>
      <point x="277" y="1466"/>
      <point x="344" y="1558"/>
      <point x="414" y="1558" type="qcurve" smooth="yes"/>
      <point x="485" y="1558"/>
      <point x="546" y="1464"/>
      <point x="527" y="1407" type="qcurve" smooth="yes"/>
      <point x="432" y="1149" type="line"/>
      <point x="436" y="1146" type="line"/>
      <point x="610" y="1353" type="line" smooth="yes"/>
      <point x="641" y="1393"/>
      <point x="766" y="1400"/>
      <point x="803" y="1334" type="qcurve" smooth="yes"/>
      <point x="841" y="1269"/>
      <point x="774" y="1165"/>
      <point x="721" y="1158" type="qcurve" smooth="yes"/>
      <point x="456" y="1115" type="line"/>
      <point x="457" y="1109" type="line"/>
      <point x="718" y="1060" type="line" smooth="yes"/>
      <point x="770" y="1052"/>
      <point x="838" y="949"/>
      <point x="800" y="883" type="qcurve" smooth="yes"/>
      <point x="762" y="818"/>
      <point x="637" y="824"/>
      <point x="606" y="865" type="qcurve" smooth="yes"/>
      <point x="438" y="1076" type="line"/>
      <point x="434" y="1073" type="line"/>
      <point x="526" y="823" type="line" smooth="yes"/>
      <point x="550" y="765"/>
      <point x="489" y="664"/>
    </contour>
  </outline>
</glyph>
<glyph name="plus" format="2">
  <advance width="699"/>
  <unicode hex="002B"/>
  <outline>
    <contour>
      <point x="-24" y="509" type="line"/>
      <point x="-24" y="749" type="line"/>
      <point x="722" y="749" type="line"/>
      <point x="722" y="509" type="line"/>
    </contour>
    <contour>
      <point x="223" y="261" type="line"/>
      <point x="223" y="1003" type="line"/>
      <point x="476" y="1003" type="line"/>
      <point x="476" y="261" type="line"/>
    </contour>
  </outline>
</glyph>
<glyph name="comma" format="2">
  <advance width="394"/>
  <unicode hex="002C"/>
  <outline>
    <contour>
      <point x="40" y="-217" type="line"/>
      <point x="78" y="-188"/>
      <point x="174" y="-90"/>
      <point x="197" y="-12" type="qcurve"/>
      <point x="98" y="-6"/>
      <point x="-6" y="96"/>
      <point x="-6" y="181" type="qcurve" smooth="yes"/>
      <point x="-6" y="265"/>
      <point x="111" y="390"/>
      <point x="202" y="390" type="qcurve" smooth="yes"/>
      <point x="288" y="390"/>
      <point x="411" y="280"/>
      <point x="411" y="168" type="qcurve" smooth="yes"/>
      <point x="411" y="1"/>
      <point x="189" y="-224"/>
      <point x="93" y="-277" type="qcurve"/>
    </contour>
  </outline>
</glyph>
<glyph name="hyphen" format="2">
  <advance width="508"/>
  <unicode hex="002D"/>
  <outline>
    <contour>
      <point x="-4" y="507" type="line"/>
      <point x="-4" y="757" type="line"/>
      <point x="255" y="750" type="line"/>
      <point x="512" y="757" type="line"/>
      <point x="512" y="507" type="line"/>
      <point x="255" y="514" type="line"/>
    </contour>
  </outline>
</glyph>
<glyph name="period" format="2">
  <advance width="380"/>
  <unicode hex="002E"/>
  <outline>
    <contour>
      <point x="-17" y="183" type="qcurve" smooth="yes"/>
      <point x="-17" y="267"/>
      <point x="99" y="390"/>
      <point x="190" y="390" type="qcurve" smooth="yes"/>
      <point x="280" y="390"/>
      <point x="396" y="267"/>
      <point x="396" y="183" type="qcurve" smooth="yes"/>
      <point x="396" y="102"/>
      <point x="280" y="-22"/>
      <point x="190" y="-22" type="qcurve"/>
      <point x="99" y="-22"/>
      <point x="-17" y="102"/>
    </contour>
  </outline>
</glyph>
<glyph name="slash" format="2">
  <advance width="450"/>
  <unicode hex="002F"/>
  <outline>
    <contour>
      <point x="-65" y="-117" type="line"/>
      <point x="340" y="1556" type="line"/>
      <point x="492" y="1528" type="line"/>
      <point x="86" y="-145" type="line"/>
    </contour>
  </outline>
</glyph>
<glyph name="zero" format="2">
  <advance width="1268"/>
  <unicode hex="0030"/>
  <outline>
    <contour>
      <point x="-2" y="749" type="qcurve" smooth="yes"/>
      <point x="-2" y="1095"/>
      <point x="358" y="1526"/>
      <point x="635" y="1526" type="qcurve" smooth="yes"/>
      <point x="919" y="1526"/>
      <point x="1271" y="1101"/>
      <point x="1271" y="757" type="qcurve" smooth="yes"/>
      <point x="1271" y="434"/>
      <point x="924" y="-22"/>
      <point x="640" y="-22" type="qcurve" smooth="yes"/>
      <point x="354" y="-22"/>
      <point x="-2" y="401"/>
    </contour>
    <contour>
      <point x="385" y="775" type="qcurve" smooth="yes"/>
      <point x="386" y="491"/>
      <point x="522" y="111"/>
      <point x="633" y="111" type="qcurve" smooth="yes"/>
      <point x="754" y="111"/>
      <point x="882" y="458"/>
      <point x="884" y="749" type="qcurve" smooth="yes"/>
      <point x="885" y="1023"/>
      <point x="749" y="1377"/>
      <point x="636" y="1377" type="qcurve" smooth="yes"/>
      <point x="514" y="1377"/>
      <point x="384" y="1056"/>
    </contour>
  </outline>
</glyph>
<glyph name="one" format="2">
  <advance width="896"/>
  <unicode hex="0031"/>
  <outline>
    <contour>
      <point x="20" y="0" type="line"/>
      <point x="20" y="112" type="line"/>
      <point x="256" y="147" type="line"/>
      <point x="256" y="756" type="line"/>
      <point x="254" y="1342" type="line"/>
      <point x="18" y="1376" type="line"/>
      <point x="18" y="1497" type="line"/>
      <point x="613" y="1519" type="line"/>
      <point x="645" y="1484" type="line"/>
      <point x="639" y="756" type="line"/>
      <point x="639" y="147" type="line"/>
      <point x="875" y="112" type="line"/>
      <point x="875" y="0" type="line"/>
    </contour>
  </outline>
</glyph>
<glyph name="two" format="2">
  <advance width="986"/>
  <unicode hex="0032"/>
  <outline>
    <contour>
      <point x="18" y="0" type="line"/>
      <point x="18" y="224" type="line"/>
      <point x="44" y="361"/>
      <point x="176" y="617"/>
      <point x="306" y="739" type="qcurve" smooth="yes"/>
      <point x="435" y="863"/>
      <point x="539" y="1013"/>
      <point x="539" y="1137" type="qcurve" smooth="yes"/>
      <point x="539" y="1243"/>
      <point x="441" y="1376"/>
      <point x="363" y="1376" type="qcurve" smooth="yes"/>
      <point x="275" y="1376"/>
      <point x="142" y="1289"/>
      <point x="84" y="1196" type="qcurve"/>
      <point x="8" y="1300" type="line"/>
      <point x="77" y="1408"/>
      <point x="298" y="1526"/>
      <point x="466" y="1526" type="qcurve" smooth="yes"/>
      <point x="712" y="1526"/>
      <point x="929" y="1331"/>
      <point x="929" y="1169" type="qcurve" smooth="yes"/>
      <point x="929" y="984"/>
      <point x="714" y="728"/>
      <point x="541" y="639" type="qcurve" smooth="yes"/>
      <point x="425" y="564"/>
      <point x="298" y="417"/>
      <point x="276" y="354" type="qcurve"/>
      <point x="286" y="339" type="line"/>
      <point x="976" y="339" type="line"/>
      <point x="976" y="0" type="line"/>
    </contour>
  </outline>
</glyph>
<glyph name="three" format="2">
  <advance width="938"/>
  <unicode hex="0033"/>
  <outline>
    <contour>
      <point x="-1" y="143" type="qcurve"/>
      <point x="70" y="261" type="line"/>
      <point x="132" y="182"/>
      <point x="249" y="119"/>
      <point x="334" y="119" type="qcurve" smooth="yes"/>
      <point x="427" y="119"/>
      <point x="550" y="261"/>
      <point x="550" y="410" type="qcurve" smooth="yes"/>
      <point x="550" y="574"/>
      <point x="373" y="726"/>
      <point x="243" y="726" type="qcurve" smooth="yes"/>
      <point x="211" y="726" type="line"/>
      <point x="184" y="835" type="line"/>
      <point x="269" y="839" type="line" smooth="yes"/>
      <point x="396" y="846"/>
      <point x="526" y="1006"/>
      <point x="526" y="1155" type="qcurve" smooth="yes"/>
      <point x="526" y="1272"/>
      <point x="436" y="1393"/>
      <point x="364" y="1393" type="qcurve" smooth="yes"/>
      <point x="282" y="1393"/>
      <point x="168" y="1301"/>
      <point x="122" y="1227" type="qcurve"/>
      <point x="76" y="1347" type="line"/>
      <point x="142" y="1432"/>
      <point x="348" y="1529"/>
      <point x="493" y="1529" type="qcurve" smooth="yes"/>
      <point x="684" y="1529"/>
      <point x="904" y="1341"/>
      <point x="904" y="1189" type="qcurve" smooth="yes"/>
      <point x="904" y="1031"/>
      <point x="719" y="847"/>
      <point x="549" y="803" type="qcurve"/>
      <point x="549" y="796" type="line"/>
      <point x="719" y="769"/>
      <point x="941" y="555"/>
      <point x="941" y="380" type="qcurve" smooth="yes"/>
      <point x="941" y="187"/>
      <point x="666" y="-25"/>
      <point x="445" y="-25" type="qcurve" smooth="yes"/>
      <point x="304" y="-25"/>
      <point x="82" y="52"/>
    </contour>
  </outline>
</glyph>
<glyph name="four" format="2">
  <advance width="1033"/>
  <unicode hex="0034"/>
  <outline>
    <contour>
      <point x="3" y="556" type="line"/>
      <point x="558" y="1553" type="line"/>
      <point x="684" y="1516" type="line"/>
      <point x="861" y="1500" type="line"/>
      <point x="855" y="493" type="line"/>
      <point x="855" y="147" type="line"/>
      <point x="1064" y="112" type="line"/>
      <point x="1064" y="0" type="line"/>
      <point x="287" y="0" type="line"/>
      <point x="287" y="112" type="line"/>
      <point x="505" y="147" type="line"/>
      <point x="514" y="491" type="line"/>
      <point x="514" y="1237" type="line"/>
      <point x="172" y="589" type="line"/>
      <point x="178" y="579" type="line"/>
      <point x="1029" y="556" type="line"/>
      <point x="1029" y="440" type="line"/>
      <point x="23" y="436" type="line"/>
    </contour>
  </outline>
</glyph>
<glyph name="five" format="2">
  <advance width="968"/>
  <unicode hex="0035"/>
  <outline>
    <contour>
      <point x="0" y="143" type="qcurve"/>
      <point x="69" y="261" type="line"/>
      <point x="112" y="212"/>
      <point x="250" y="124"/>
      <point x="352" y="124" type="qcurve" smooth="yes"/>
      <point x="454" y="124"/>
      <point x="597" y="280"/>
      <point x="597" y="447" type="qcurve" smooth="yes"/>
      <point x="597" y="612"/>
      <point x="382" y="789"/>
      <point x="232" y="789" type="qcurve" smooth="yes"/>
      <point x="155" y="789" type="line"/>
      <point x="112" y="853" type="line"/>
      <point x="180" y="1473" type="line"/>
      <point x="207" y="1506" type="line"/>
      <point x="890" y="1506" type="line"/>
      <point x="858" y="1161" type="line"/>
      <point x="275" y="1161" type="line"/>
      <point x="266" y="1150" type="line"/>
      <point x="235" y="908" type="line"/>
      <point x="352" y="950" type="line"/>
      <point x="650" y="950"/>
      <point x="974" y="723"/>
      <point x="974" y="502" type="qcurve" smooth="yes"/>
      <point x="974" y="259"/>
      <point x="661" y="-25"/>
      <point x="437" y="-25" type="qcurve" smooth="yes"/>
      <point x="254" y="-25"/>
      <point x="57" y="72"/>
    </contour>
  </outline>
</glyph>
<glyph name="six" format="2">
  <advance width="1188"/>
  <unicode hex="0036"/>
  <outline>
    <contour>
      <point x="-2" y="621" type="qcurve" smooth="yes"/>
      <point x="-2" y="951"/>
      <point x="441" y="1467"/>
      <point x="772" y="1585" type="qcurve"/>
      <point x="821" y="1486" type="line"/>
      <point x="620" y="1378"/>
      <point x="384" y="975"/>
      <point x="384" y="618" type="qcurve" smooth="yes"/>
      <point x="384" y="367"/>
      <point x="516" y="104"/>
      <point x="619" y="104" type="qcurve" smooth="yes"/>
      <point x="697" y="104"/>
      <point x="799" y="299"/>
      <point x="798" y="462" type="qcurve" smooth="yes"/>
      <point x="798" y="625"/>
      <point x="691" y="788"/>
      <point x="613" y="788" type="qcurve" smooth="yes"/>
      <point x="575" y="788"/>
      <point x="521" y="772"/>
      <point x="498" y="758" type="qcurve"/>
      <point x="476" y="836" type="line"/>
      <point x="526" y="876"/>
      <point x="674" y="930"/>
      <point x="773" y="930" type="qcurve" smooth="yes"/>
      <point x="959" y="930"/>
      <point x="1186" y="689"/>
      <point x="1186" y="515" type="qcurve" smooth="yes"/>
      <point x="1186" y="259"/>
      <point x="890" y="-22"/>
      <point x="622" y="-22" type="qcurve" smooth="yes"/>
      <point x="317" y="-22"/>
      <point x="-2" y="338"/>
    </contour>
  </outline>
</glyph>
<glyph name="seven" format="2">
  <advance width="789"/>
  <unicode hex="0037"/>
  <outline>
    <contour>
      <point x="4" y="855" type="line"/>
      <point x="42" y="1506" type="line"/>
      <point x="809" y="1506" type="line"/>
      <point x="809" y="1318" type="line"/>
      <point x="583" y="632" type="line"/>
      <point x="474" y="-18" type="line"/>
      <point x="191" y="-18" type="line"/>
      <point x="191" y="55" type="line"/>
      <point x="423" y="672" type="line"/>
      <point x="538" y="1144" type="line"/>
      <point x="518" y="1161" type="line"/>
      <point x="171" y="1161" type="line"/>
      <point x="132" y="855" type="line"/>
    </contour>
  </outline>
</glyph>
<glyph name="eight" format="2">
  <advance width="837"/>
  <unicode hex="0038"/>
  <outline>
    <contour>
      <point x="4" y="393" type="qcurve" smooth="yes"/>
      <point x="4" y="586"/>
      <point x="222" y="810"/>
      <point x="316" y="854" type="qcurve"/>
      <point x="374" y="791" type="line"/>
      <point x="296" y="739"/>
      <point x="159" y="561"/>
      <point x="159" y="414" type="qcurve" smooth="yes"/>
      <point x="159" y="279"/>
      <point x="299" y="100"/>
      <point x="393" y="100" type="qcurve" smooth="yes"/>
      <point x="491" y="100"/>
      <point x="585" y="221"/>
      <point x="585" y="337" type="qcurve" smooth="yes"/>
      <point x="585" y="441"/>
      <point x="460" y="567"/>
      <point x="332" y="662" type="qcurve" smooth="yes"/>
      <point x="190" y="767"/>
      <point x="51" y="975"/>
      <point x="51" y="1137" type="qcurve" smooth="yes"/>
      <point x="51" y="1306"/>
      <point x="273" y="1536"/>
      <point x="436" y="1536" type="qcurve" smooth="yes"/>
      <point x="598" y="1536"/>
      <point x="765" y="1355"/>
      <point x="765" y="1222" type="qcurve" smooth="yes"/>
      <point x="765" y="1090"/>
      <point x="611" y="891"/>
      <point x="513" y="810" type="qcurve"/>
      <point x="444" y="873" type="line"/>
      <point x="507" y="939"/>
      <point x="608" y="1082"/>
      <point x="608" y="1190" type="qcurve" smooth="yes"/>
      <point x="608" y="1292"/>
      <point x="518" y="1418"/>
      <point x="453" y="1418" type="qcurve" smooth="yes"/>
      <point x="386" y="1418"/>
      <point x="331" y="1303"/>
      <point x="331" y="1224" type="qcurve" smooth="yes"/>
      <point x="331" y="1140"/>
      <point x="383" y="1010"/>
      <point x="535" y="923" type="qcurve" smooth="yes"/>
      <point x="697" y="835"/>
      <point x="832" y="612"/>
      <point x="832" y="433" type="qcurve" smooth="yes"/>
      <point x="832" y="234"/>
      <point x="591" y="-22"/>
      <point x="406" y="-22" type="qcurve" smooth="yes"/>
      <point x="221" y="-22"/>
      <point x="4" y="224"/>
    </contour>
  </outline>
</glyph>
<glyph name="nine" format="2">
  <advance width="1195"/>
  <unicode hex="0039"/>
  <outline>
    <contour>
      <point x="3" y="1008" type="qcurve" smooth="yes"/>
      <point x="3" y="1243"/>
      <point x="288" y="1528"/>
      <point x="563" y="1528" type="qcurve" smooth="yes"/>
      <point x="885" y="1528"/>
      <point x="1197" y="1173"/>
      <point x="1197" y="878" type="qcurve" smooth="yes"/>
      <point x="1197" y="548"/>
      <point x="747" y="35"/>
      <point x="419" y="-85" type="qcurve"/>
      <point x="370" y="14" type="line"/>
      <point x="570" y="123"/>
      <point x="807" y="524"/>
      <point x="807" y="881" type="qcurve" smooth="yes"/>
      <point x="807" y="1138"/>
      <point x="670" y="1402"/>
      <point x="575" y="1402" type="qcurve" smooth="yes"/>
      <point x="486" y="1402"/>
      <point x="392" y="1200"/>
      <point x="392" y="1041" type="qcurve" smooth="yes"/>
      <point x="392" y="875"/>
      <point x="488" y="711"/>
      <point x="575" y="711" type="qcurve" smooth="yes"/>
      <point x="611" y="711"/>
      <point x="671" y="724"/>
      <point x="695" y="738" type="qcurve"/>
      <point x="715" y="663" type="line"/>
      <point x="661" y="612"/>
      <point x="520" y="570"/>
      <point x="455" y="570" type="qcurve" smooth="yes"/>
      <point x="234" y="568"/>
      <point x="3" y="811"/>
    </contour>
  </outline>
</glyph>
<glyph name="colon" format="2">
  <advance width="402"/>
  <unicode hex="003A"/>
  <outline>
    <contour>
      <point x="0" y="179" type="qcurve" smooth="yes"/>
      <point x="0" y="260"/>
      <point x="113" y="380"/>
      <point x="201" y="380" type="qcurve" smooth="yes"/>
      <point x="289" y="380"/>
      <point x="402" y="260"/>
      <point x="402" y="179" type="qcurve" smooth="yes"/>
      <point x="402" y="99"/>
      <point x="289" y="-21"/>
      <point x="201" y="-21" type="qcurve" smooth="yes"/>
      <point x="113" y="-21"/>
      <point x="0" y="99"/>
    </contour>
    <contour>
      <point x="0" y="838" type="qcurve" smooth="yes"/>
      <point x="0" y="919"/>
      <point x="113" y="1039"/>
      <point x="201" y="1039" type="qcurve" smooth="yes"/>
      <point x="289" y="1039"/>
      <point x="402" y="919"/>
      <point x="402" y="838" type="qcurve" smooth="yes"/>
      <point x="402" y="758"/>
      <point x="289" y="638"/>
      <point x="201" y="638" type="qcurve" smooth="yes"/>
      <point x="113" y="638"/>
      <point x="0" y="758"/>
    </contour>
  </outline>
</glyph>
<glyph name="semicolon" format="2">
  <advance width="375"/>
  <unicode hex="003B"/>
  <outline>
    <contour>
      <point x="32" y="-220" type="line"/>
      <point x="73" y="-189"/>
      <point x="166" y="-91"/>
      <point x="189" y="-12" type="qcurve"/>
      <point x="89" y="-8"/>
      <point x="-19" y="99"/>
      <point x="-19" y="179" type="qcurve" smooth="yes"/>
      <point x="-19" y="263"/>
      <point x="99" y="386"/>
      <point x="190" y="386" type="qcurve" smooth="yes"/>
      <point x="276" y="386"/>
      <point x="399" y="277"/>
      <point x="399" y="166" type="qcurve" smooth="yes"/>
      <point x="399" y="1"/>
      <point x="178" y="-223"/>
      <point x="82" y="-277" type="qcurve"/>
    </contour>
    <contour>
      <point x="-11" y="838" type="qcurve" smooth="yes"/>
      <point x="-11" y="919"/>
      <point x="102" y="1039"/>
      <point x="190" y="1039" type="qcurve" smooth="yes"/>
      <point x="278" y="1039"/>
      <point x="392" y="919"/>
      <point x="392" y="838" type="qcurve" smooth="yes"/>
      <point x="392" y="758"/>
      <point x="278" y="638"/>
      <point x="190" y="638" type="qcurve" smooth="yes"/>
      <point x="102" y="638"/>
      <point x="-11" y="758"/>
    </contour>
  </outline>
</glyph>
<glyph name="less" format="2">
  <advance width="401"/>
  <unicode hex="003C"/>
  <outline>
    <contour>
      <point x="-21" y="634" type="qcurve"/>
      <point x="-18" y="638"/>
      <point x="228" y="985"/>
      <point x="275" y="1050" type="qcurve" smooth="yes"/>
      <point x="327" y="1118"/>
      <point x="428" y="1055"/>
      <point x="397" y="987" type="qcurve" smooth="yes"/>
      <point x="346" y="828"/>
      <point x="304" y="637"/>
      <point x="301" y="637" type="qcurve"/>
      <point x="304" y="637"/>
      <point x="359" y="438"/>
      <point x="409" y="284" type="qcurve" smooth="yes"/>
      <point x="441" y="216"/>
      <point x="340" y="150"/>
      <point x="288" y="219" type="qcurve" smooth="yes"/>
      <point x="241" y="286"/>
      <point x="-19" y="630"/>
    </contour>
  </outline>
</glyph>
<glyph name="equal" format="2">
  <advance width="628"/>
  <unicode hex="003D"/>
  <outline>
    <contour>
      <point x="-8" y="286" type="line"/>
      <point x="-8" y="554" type="line"/>
      <point x="312" y="548" type="line"/>
      <point x="636" y="554" type="line"/>
      <point x="636" y="286" type="line"/>
      <point x="312" y="292" type="line"/>
    </contour>
    <contour>
      <point x="-8" y="688" type="line"/>
      <point x="-8" y="956" type="line"/>
      <point x="312" y="950" type="line"/>
      <point x="636" y="956" type="line"/>
      <point x="636" y="688" type="line"/>
      <point x="312" y="694" type="line"/>
    </contour>
  </outline>
</glyph>
<glyph name="greater" format="2">
  <advance width="402"/>
  <unicode hex="003E"/>
  <outline>
    <contour>
      <point x="-10" y="282" type="qcurve" smooth="yes"/>
      <point x="41" y="437"/>
      <point x="96" y="637"/>
      <point x="99" y="637" type="qcurve"/>
      <point x="96" y="637"/>
      <point x="54" y="826"/>
      <point x="2" y="985" type="qcurve" smooth="yes"/>
      <point x="-27" y="1053"/>
      <point x="73" y="1117"/>
      <point x="126" y="1048" type="qcurve" smooth="yes"/>
      <point x="172" y="983"/>
      <point x="419" y="639"/>
      <point x="422" y="635" type="qcurve"/>
      <point x="420" y="631"/>
      <point x="160" y="284"/>
      <point x="113" y="217" type="qcurve" smooth="yes"/>
      <point x="61" y="148"/>
      <point x="-39" y="214"/>
    </contour>
  </outline>
</glyph>
<glyph name="question" format="2">
  <advance width="971"/>
  <unicode hex="003F"/>
  <outline>
    <contour>
      <point x="232" y="183" type="qcurve" smooth="yes"/>
      <point x="232" y="267"/>
      <point x="348" y="390"/>
      <point x="439" y="390" type="qcurve" smooth="yes"/>
      <point x="529" y="390"/>
      <point x="645" y="267"/>
      <point x="645" y="183" type="qcurve" smooth="yes"/>
      <point x="645" y="102"/>
      <point x="529" y="-22"/>
      <point x="439" y="-22" type="qcurve" smooth="yes"/>
      <point x="348" y="-22"/>
      <point x="232" y="102"/>
    </contour>
    <contour>
      <point x="6" y="1200" type="qcurve" smooth="yes"/>
      <point x="6" y="1345"/>
      <point x="220" y="1540"/>
      <point x="451" y="1540" type="qcurve" smooth="yes"/>
      <point x="719" y="1540"/>
      <point x="962" y="1340"/>
      <point x="962" y="1163" type="qcurve" smooth="yes"/>
      <point x="962" y="1002"/>
      <point x="787" y="827"/>
      <point x="712" y="785" type="qcurve" smooth="yes"/>
      <point x="645" y="746"/>
      <point x="484" y="635"/>
      <point x="484" y="569" type="qcurve" smooth="yes"/>
      <point x="484" y="500" type="line"/>
      <point x="370" y="500" type="line"/>
      <point x="359" y="556" type="line" smooth="yes"/>
      <point x="344" y="629"/>
      <point x="392" y="776"/>
      <point x="469" y="840" type="qcurve" smooth="yes"/>
      <point x="532" y="894"/>
      <point x="628" y="1015"/>
      <point x="628" y="1147" type="qcurve" smooth="yes"/>
      <point x="628" y="1281"/>
      <point x="516" y="1421"/>
      <point x="424" y="1421" type="qcurve" smooth="yes"/>
      <point x="338" y="1421"/>
      <point x="243" y="1338"/>
      <point x="243" y="1283" type="qcurve" smooth="yes"/>
      <point x="243" y="1245"/>
      <point x="380" y="1172"/>
      <point x="382" y="1108" type="qcurve" smooth="yes"/>
      <point x="385" y="1056"/>
      <point x="299" y="973"/>
      <point x="215" y="973" type="qcurve" smooth="yes"/>
      <point x="122" y="973"/>
      <point x="6" y="1094"/>
    </contour>
  </outline>
</glyph>
<glyph name="at" format="2">
  <advance width="1439"/>
  <unicode hex="0040"/>
  <outline>
    <contour>
      <point x="-3" y="725" type="qcurve" smooth="yes"/>
      <point x="-3" y="1058"/>
      <point x="400" y="1520"/>
      <point x="745" y="1520" type="qcurve" smooth="yes"/>
      <point x="1083" y="1520"/>
      <point x="1438" y="1157"/>
      <point x="1438" y="863" type="qcurve" smooth="yes"/>
      <point x="1438" y="630"/>
      <point x="1226" y="349"/>
      <point x="1067" y="349" type="qcurve" smooth="yes"/>
      <point x="947" y="349"/>
      <point x="829" y="400"/>
      <point x="807" y="461" type="qcurve"/>
      <point x="783" y="400"/>
      <point x="693" y="317"/>
      <point x="607" y="317" type="qcurve" smooth="yes"/>
      <point x="503" y="317"/>
      <point x="358" y="445"/>
      <point x="358" y="544" type="qcurve" smooth="yes"/>
      <point x="358" y="662"/>
      <point x="556" y="823"/>
      <point x="827" y="871" type="qcurve"/>
      <point x="835" y="790" type="line"/>
      <point x="740" y="757"/>
      <point x="649" y="667"/>
      <point x="649" y="561" type="qcurve" smooth="yes"/>
      <point x="649" y="480"/>
      <point x="673" y="437"/>
      <point x="697" y="437" type="qcurve" smooth="yes"/>
      <point x="725" y="437"/>
      <point x="764" y="491"/>
      <point x="774" y="557" type="qcurve"/>
      <point x="774" y="863" type="line" smooth="yes"/>
      <point x="775" y="1034"/>
      <point x="737" y="1112"/>
      <point x="702" y="1112" type="qcurve" smooth="yes"/>
      <point x="673" y="1112"/>
      <point x="640" y="1082"/>
      <point x="636" y="1046" type="qcurve"/>
      <point x="655" y="1027"/>
      <point x="677" y="987"/>
      <point x="680" y="970" type="qcurve" smooth="yes"/>
      <point x="690" y="927"/>
      <point x="629" y="856"/>
      <point x="541" y="856" type="qcurve" smooth="yes"/>
      <point x="477" y="856"/>
      <point x="399" y="931"/>
      <point x="399" y="994" type="qcurve" smooth="yes"/>
      <point x="399" y="1083"/>
      <point x="534" y="1213"/>
      <point x="713" y="1213" type="qcurve" smooth="yes"/>
      <point x="908" y="1213"/>
      <point x="1069" y="1042"/>
      <point x="1066" y="854" type="qcurve" smooth="yes"/>
      <point x="1068" y="504" type="line" smooth="yes"/>
      <point x="1068" y="483"/>
      <point x="1083" y="460"/>
      <point x="1110" y="460" type="qcurve" smooth="yes"/>
      <point x="1163" y="460"/>
      <point x="1298" y="651"/>
      <point x="1298" y="858" type="qcurve" smooth="yes"/>
      <point x="1298" y="1092"/>
      <point x="1020" y="1384"/>
      <point x="748" y="1384" type="qcurve" smooth="yes"/>
      <point x="475" y="1384"/>
      <point x="145" y="1023"/>
      <point x="145" y="737" type="qcurve" smooth="yes"/>
      <point x="145" y="471"/>
      <point x="459" y="99"/>
      <point x="715" y="99" type="qcurve" smooth="yes"/>
      <point x="811" y="99"/>
      <point x="976" y="163"/>
      <point x="1008" y="194" type="qcurve"/>
      <point x="1073" y="108" type="line"/>
      <point x="1029" y="57"/>
      <point x="826" y="-30"/>
      <point x="711" y="-30" type="qcurve" smooth="yes"/>
      <point x="395" y="-30"/>
      <point x="-3" y="399"/>
    </contour>
  </outline>
</glyph>
<glyph name="A" format="2">
  <advance width="1407"/>
  <unicode hex="0041"/>
  <anchor x="645" y="0" name="bottom"/>
  <anchor x="1368" y="0" name="ogonek"/>
  <anchor x="318" y="1500" name="tonos"/>
  <anchor x="659" y="1500" name="top"/>
  <outline>
    <contour>
      <point x="18" y="0" type="line"/>
      <point x="18" y="120" type="line"/>
      <point x="171" y="155" type="line"/>
      <point x="274" y="540" type="line"/>
      <point x="528" y="1515" type="line"/>
      <point x="873" y="1515" type="line"/>
      <point x="1130" y="567" type="line"/>
      <point x="1246" y="155" type="line"/>
      <point x="1391" y="120" type="line"/>
      <point x="1391" y="0" type="line"/>
      <point x="712" y="0" type="line"/>
      <point x="712" y="120" type="line"/>
      <point x="843" y="151" type="line"/>
      <point x="755" y="513" type="line"/>
      <point x="610" y="1052" type="line"/>
      <point x="585" y="1166" type="line"/>
      <point x="578" y="1166" type="line"/>
      <point x="553" y="1052" type="line"/>
      <point x="413" y="503" type="line"/>
      <point x="336" y="150" type="line"/>
      <point x="466" y="120" type="line"/>
      <point x="466" y="0" type="line"/>
    </contour>
    <contour>
      <point x="583" y="562" type="line"/>
      <point x="810" y="574" type="line"/>
      <point x="853" y="442" type="line"/>
      <point x="583" y="442" type="line"/>
    </contour>
    <contour>
      <point x="332" y="442" type="line"/>
      <point x="371" y="573" type="line"/>
      <point x="583" y="562" type="line"/>
      <point x="583" y="442" type="line"/>
    </contour>
  </outline>
</glyph>
<glyph name="B" format="2">
  <advance width="1332"/>
  <unicode hex="0042"/>
  <anchor x="692" y="0" name="bottom"/>
  <anchor x="692" y="1500" name="top"/>
  <outline>
    <contour>
      <point x="45" y="0" type="line"/>
      <point x="45" y="120" type="line"/>
      <point x="205" y="156" type="line"/>
      <point x="207" y="784" type="line"/>
      <point x="205" y="1332" type="line"/>
      <point x="45" y="1366" type="line"/>
      <point x="45" y="1500" type="line"/>
      <point x="777" y="1500" type="line" smooth="yes"/>
      <point x="1015" y="1500"/>
      <point x="1242" y="1315"/>
      <point x="1242" y="1172" type="qcurve" smooth="yes"/>
      <point x="1242" y="1037"/>
      <point x="1088" y="856"/>
      <point x="945" y="830" type="qcurve"/>
      <point x="945" y="820" type="line"/>
      <point x="1111" y="797"/>
      <point x="1332" y="603"/>
      <point x="1332" y="433" type="qcurve" smooth="yes"/>
      <point x="1332" y="246"/>
      <point x="1044" y="0"/>
      <point x="792" y="0" type="qcurve" smooth="yes"/>
    </contour>
    <contour>
      <point x="597" y="147" type="line"/>
      <point x="630" y="127" type="line"/>
      <point x="705" y="127" type="line" smooth="yes"/>
      <point x="820" y="127"/>
      <point x="928" y="278"/>
      <point x="928" y="442" type="qcurve" smooth="yes"/>
      <point x="928" y="581"/>
      <point x="834" y="730"/>
      <point x="745" y="730" type="qcurve" smooth="yes"/>
      <point x="602" y="730" type="line"/>
      <point x="597" y="716" type="line"/>
    </contour>
    <contour>
      <point x="596" y="869" type="line"/>
      <point x="605" y="855" type="line"/>
      <point x="698" y="855" type="line" smooth="yes"/>
      <point x="785" y="855"/>
      <point x="874" y="990"/>
      <point x="874" y="1124" type="qcurve" smooth="yes"/>
      <point x="874" y="1247"/>
      <point x="788" y="1358"/>
      <point x="704" y="1358" type="qcurve" smooth="yes"/>
      <point x="628" y="1358" type="line"/>
      <point x="599" y="1340" type="line"/>
    </contour>
  </outline>
</glyph>
<glyph name="C" format="2">
  <advance width="1200"/>
  <unicode hex="0043"/>
  <anchor x="658" y="0" name="bottom"/>
  <anchor x="666" y="1500" name="top"/>
  <outline>
    <contour>
      <point x="-3" y="700" type="qcurve" smooth="yes"/>
      <point x="-3" y="1062"/>
      <point x="344" y="1524"/>
      <point x="648" y="1524" type="qcurve" smooth="yes"/>
      <point x="751" y="1524"/>
      <point x="905" y="1474"/>
      <point x="963" y="1422" type="qcurve"/>
      <point x="1031" y="1500" type="line"/>
      <point x="1155" y="1500" type="line"/>
      <point x="1155" y="1114" type="line"/>
      <point x="988" y="1114" type="line"/>
      <point x="974" y="1180" type="line" smooth="yes"/>
      <point x="952" y="1278"/>
      <point x="843" y="1377"/>
      <point x="750" y="1377" type="qcurve" smooth="yes"/>
      <point x="600" y="1377"/>
      <point x="403" y="1052"/>
      <point x="404" y="740" type="qcurve" smooth="yes"/>
      <point x="405" y="449"/>
      <point x="594" y="128"/>
      <point x="772" y="128" type="qcurve" smooth="yes"/>
      <point x="883" y="128"/>
      <point x="1048" y="250"/>
      <point x="1095" y="344" type="qcurve"/>
      <point x="1198" y="249" type="line"/>
      <point x="1106" y="109"/>
      <point x="824" y="-34"/>
      <point x="659" y="-34" type="qcurve" smooth="yes"/>
      <point x="353" y="-34"/>
      <point x="-3" y="369"/>
    </contour>
  </outline>
</glyph>
<glyph name="G" format="2">
  <advance width="1584"/>
  <unicode hex="0047"/>
  <anchor x="784" y="0" name="bottom"/>
  <anchor x="778" y="1500" name="top"/>
  <outline>
    <contour>
      <point x="-4" y="744" type="qcurve" smooth="yes"/>
      <point x="-4" y="1081"/>
      <point x="405" y="1524"/>
      <point x="735" y="1524" type="qcurve" smooth="yes"/>
      <point x="856" y="1524"/>
      <point x="1032" y="1477"/>
      <point x="1085" y="1427" type="qcurve"/>
      <point x="1161" y="1500" type="line"/>
      <point x="1295" y="1500" type="line"/>
      <point x="1295" y="1119" type="line"/>
      <point x="1128" y="1119" type="line"/>
      <point x="1112" y="1170" type="line" smooth="yes"/>
      <point x="1083" y="1273"/>
      <point x="909" y="1369"/>
      <point x="786" y="1369" type="qcurve" smooth="yes"/>
      <point x="601" y="1369"/>
      <point x="401" y="1052"/>
      <point x="402" y="766" type="qcurve" smooth="yes"/>
      <point x="404" y="473"/>
      <point x="606" y="106"/>
      <point x="793" y="106" type="qcurve" smooth="yes"/>
      <point x="875" y="106"/>
      <point x="1008" y="170"/>
      <point x="1052" y="230" type="qcurve"/>
      <point x="1052" y="513" type="line"/>
      <point x="899" y="548" type="line"/>
      <point x="899" y="668" type="line"/>
      <point x="1541" y="668" type="line"/>
      <point x="1541" y="548" type="line"/>
      <point x="1440" y="513" type="line"/>
      <point x="1440" y="219" type="line"/>
      <point x="1343" y="111"/>
      <point x="997" y="-34"/>
      <point x="763" y="-34" type="qcurve" smooth="yes"/>
      <point x="380" y="-34"/>
      <point x="-4" y="392"/>
    </contour>
  </outline>
</glyph>
<glyph name="H" format="2">
  <advance width="1687"/>
  <unicode hex="0048"/>
  <anchor x="843" y="0" name="bottom"/>
  <anchor x="843" y="1079" name="center"/>
  <anchor x="843" y="1500" name="top"/>
  <anchor x="-86" y="1500" name="tonos"/>
  <outline>
    <contour>
      <point x="44" y="0" type="line"/>
      <point x="44" y="120" type="line"/>
      <point x="204" y="155" type="line"/>
      <point x="206" y="754" type="line"/>
      <point x="204" y="1332" type="line"/>
      <point x="44" y="1366" type="line"/>
      <point x="44" y="1500" type="line"/>
      <point x="756" y="1500" type="line"/>
      <point x="756" y="1366" type="line"/>
      <point x="596" y="1332" type="line"/>
      <point x="594" y="754" type="line"/>
      <point x="596" y="155" type="line"/>
      <point x="756" y="120" type="line"/>
      <point x="756" y="0" type="line"/>
    </contour>
    <contour>
      <point x="506" y="706" type="line"/>
      <point x="506" y="858" type="line"/>
      <point x="843" y="850" type="line"/>
      <point x="1179" y="858" type="line"/>
      <point x="1179" y="706" type="line"/>
      <point x="843" y="706" type="line"/>
    </contour>
    <contour>
      <point x="930" y="0" type="line"/>
      <point x="930" y="120" type="line"/>
      <point x="1090" y="155" type="line"/>
      <point x="1092" y="754" type="line"/>
      <point x="1090" y="1332" type="line"/>
      <point x="930" y="1366" type="line"/>
      <point x="930" y="1500" type="line"/>
      <point x="1643" y="1500" type="line"/>
      <point x="1643" y="1366" type="line"/>
      <point x="1483" y="1332" type="line"/>
      <point x="1481" y="754" type="line"/>
      <point x="1483" y="155" type="line"/>
      <point x="1643" y="120" type="line"/>
      <point x="1643" y="0" type="line"/>
    </contour>
  </outline>
</glyph>
<glyph name="J" format="2">
  <advance width="771"/>
  <unicode hex="004A"/>
  <anchor x="334" y="-208" name="bottom"/>
  <anchor x="380" y="1500" name="top"/>
  <outline>
    <contour>
      <point x="-23" y="-204" type="qcurve"/>
      <point x="-23" y="-60" type="line"/>
      <point x="0" y="-61"/>
      <point x="50" y="-59"/>
      <point x="81" y="-54" type="qcurve" smooth="yes"/>
      <point x="142" y="-44"/>
      <point x="200" y="37"/>
      <point x="200" y="131" type="qcurve" smooth="yes"/>
      <point x="198" y="834" type="line"/>
      <point x="196" y="1332" type="line"/>
      <point x="40" y="1366" type="line"/>
      <point x="40" y="1500" type="line"/>
      <point x="731" y="1500" type="line"/>
      <point x="731" y="1364" type="line"/>
      <point x="585" y="1330" type="line"/>
      <point x="583" y="834" type="line"/>
      <point x="595" y="189" type="line" smooth="yes"/>
      <point x="599" y="-29"/>
      <point x="366" y="-199"/>
      <point x="165" y="-207" type="qcurve" smooth="yes"/>
      <point x="89" y="-210"/>
      <point x="3" y="-206"/>
    </contour>
  </outline>
</glyph>
<glyph name="K" format="2">
  <advance width="1629"/>
  <unicode hex="004B"/>
  <anchor x="843" y="0" name="bottom"/>
  <anchor x="801" y="1500" name="top"/>
  <outline>
    <contour>
      <point x="44" y="0" type="line"/>
      <point x="44" y="120" type="line"/>
      <point x="204" y="155" type="line"/>
      <point x="206" y="754" type="line"/>
      <point x="204" y="1332" type="line"/>
      <point x="44" y="1366" type="line"/>
      <point x="44" y="1500" type="line"/>
      <point x="749" y="1500" type="line"/>
      <point x="749" y="1366" type="line"/>
      <point x="596" y="1332" type="line"/>
      <point x="594" y="754" type="line"/>
      <point x="596" y="155" type="line"/>
      <point x="756" y="120" type="line"/>
      <point x="756" y="0" type="line"/>
    </contour>
    <contour>
      <point x="506" y="394" type="line"/>
      <point x="506" y="603" type="line"/>
      <point x="1094" y="1318" type="line"/>
      <point x="1000" y="1366" type="line"/>
      <point x="1000" y="1500" type="line"/>
      <point x="1441" y="1500" type="line"/>
      <point x="1441" y="1366" type="line"/>
      <point x="1285" y="1318" type="line"/>
      <point x="890" y="874" type="line"/>
      <point x="861" y="846" type="line"/>
    </contour>
    <contour>
      <point x="757" y="848" type="line"/>
      <point x="1074" y="1146" type="line"/>
      <point x="1541" y="155" type="line"/>
      <point x="1676" y="120" type="line"/>
      <point x="1676" y="0" type="line"/>
      <point x="929" y="0" type="line"/>
      <point x="929" y="120" type="line"/>
      <point x="1044" y="155" type="line"/>
    </contour>
  </outline>
</glyph>
<glyph name="L" format="2">
  <advance width="1174"/>
  <unicode hex="004C"/>
  <anchor x="451" y="0" name="bottom"/>
  <anchor x="951" y="750" name="centerright"/>
  <anchor x="492" y="1500" name="top"/>
  <anchor x="807" y="1001" name="topright"/>
  <anchor x="394" y="750" name="center"/>
  <outline>
    <contour>
      <point x="45" y="0" type="line"/>
      <point x="45" y="120" type="line"/>
      <point x="205" y="152" type="line"/>
      <point x="207" y="754" type="line"/>
      <point x="205" y="1332" type="line"/>
      <point x="45" y="1366" type="line"/>
      <point x="45" y="1500" type="line"/>
      <point x="775" y="1500" type="line"/>
      <point x="775" y="1366" type="line"/>
      <point x="597" y="1332" type="line"/>
      <point x="595" y="754" type="line"/>
      <point x="597" y="156" type="line"/>
      <point x="637" y="129" type="line"/>
      <point x="948" y="129" type="line"/>
      <point x="1034" y="448" type="line"/>
      <point x="1184" y="448" type="line"/>
      <point x="1133" y="0" type="line"/>
    </contour>
  </outline>
</glyph>
<glyph name="M" format="2">
  <advance width="2021"/>
  <unicode hex="004D"/>
  <anchor x="995" y="0" name="bottom"/>
  <anchor x="1002" y="1500" name="top"/>
  <outline>
    <contour>
      <point x="44" y="0" type="line"/>
      <point x="44" y="120" type="line"/>
      <point x="204" y="155" type="line"/>
      <point x="206" y="754" type="line"/>
      <point x="204" y="1332" type="line"/>
      <point x="44" y="1366" type="line"/>
      <point x="44" y="1500" type="line"/>
      <point x="705" y="1500" type="line"/>
      <point x="882" y="803" type="line"/>
      <point x="982" y="396" type="line"/>
      <point x="1005" y="282" type="line"/>
      <point x="1015" y="282" type="line"/>
      <point x="1038" y="396" type="line"/>
      <point x="1141" y="789" type="line"/>
      <point x="1323" y="1500" type="line"/>
      <point x="1977" y="1500" type="line"/>
      <point x="1977" y="1366" type="line"/>
      <point x="1817" y="1332" type="line"/>
      <point x="1815" y="754" type="line"/>
      <point x="1817" y="155" type="line"/>
      <point x="1977" y="120" type="line"/>
      <point x="1977" y="0" type="line"/>
      <point x="1242" y="0" type="line"/>
      <point x="1242" y="120" type="line"/>
      <point x="1425" y="155" type="line"/>
      <point x="1427" y="754" type="line"/>
      <point x="1425" y="1210" type="line"/>
      <point x="1430" y="1330" type="line"/>
      <point x="1420" y="1331" type="line"/>
      <point x="1396" y="1224" type="line"/>
      <point x="1265" y="750" type="line"/>
      <point x="1060" y="-8" type="line"/>
      <point x="691" y="-8" type="line"/>
      <point x="499" y="741" type="line"/>
      <point x="370" y="1229" type="line"/>
      <point x="348" y="1335" type="line"/>
      <point x="338" y="1334" type="line"/>
      <point x="343" y="1215" type="line"/>
      <point x="341" y="754" type="line"/>
      <point x="343" y="155" type="line"/>
      <point x="511" y="120" type="line"/>
      <point x="511" y="0" type="line"/>
    </contour>
  </outline>
</glyph>
<glyph name="N" format="2">
  <advance width="1499"/>
  <unicode hex="004E"/>
  <anchor x="740" y="0" name="bottom"/>
  <anchor x="741" y="1500" name="top"/>
  <outline>
    <contour>
      <point x="45" y="0" type="line"/>
      <point x="45" y="120" type="line"/>
      <point x="205" y="155" type="line"/>
      <point x="207" y="754" type="line"/>
      <point x="205" y="1332" type="line"/>
      <point x="45" y="1366" type="line"/>
      <point x="45" y="1500" type="line"/>
      <point x="714" y="1500" type="line"/>
      <point x="974" y="833" type="line"/>
      <point x="1113" y="504" type="line"/>
      <point x="1151" y="399" type="line"/>
      <point x="1160" y="402" type="line"/>
      <point x="1156" y="522" type="line"/>
      <point x="1157" y="754" type="line"/>
      <point x="1155" y="1332" type="line"/>
      <point x="979" y="1366" type="line"/>
      <point x="979" y="1500" type="line"/>
      <point x="1451" y="1500" type="line"/>
      <point x="1451" y="1366" type="line"/>
      <point x="1291" y="1332" type="line"/>
      <point x="1289" y="754" type="line"/>
      <point x="1285" y="0" type="line"/>
      <point x="888" y="0" type="line"/>
      <point x="575" y="758" type="line"/>
      <point x="384" y="1218" type="line"/>
      <point x="345" y="1321" type="line"/>
      <point x="336" y="1318" type="line"/>
      <point x="341" y="1199" type="line"/>
      <point x="339" y="754" type="line"/>
      <point x="341" y="155" type="line"/>
      <point x="508" y="120" type="line"/>
      <point x="508" y="0" type="line"/>
    </contour>
  </outline>
</glyph>
<glyph name="O" format="2">
  <advance width="1501"/>
  <unicode hex="004F"/>
  <anchor x="750" y="0" name="bottom"/>
  <anchor x="755" y="750" name="center"/>
  <anchor x="973" y="0" name="ogonek"/>
  <anchor x="750" y="1500" name="top"/>
  <anchor x="930" y="1500" name="topright"/>
  <anchor x="87" y="1500" name="tonos"/>
  <outline>
    <contour>
      <point x="-4" y="737" type="qcurve" smooth="yes"/>
      <point x="-4" y="1068"/>
      <point x="412" y="1520"/>
      <point x="750" y="1520" type="qcurve" smooth="yes"/>
      <point x="1088" y="1520"/>
      <point x="1505" y="1097"/>
      <point x="1505" y="752" type="qcurve" smooth="yes"/>
      <point x="1505" y="423"/>
      <point x="1092" y="-31"/>
      <point x="754" y="-31" type="qcurve" smooth="yes"/>
      <point x="425" y="-31"/>
      <point x="-4" y="396"/>
    </contour>
    <contour>
      <point x="403" y="771" type="qcurve" smooth="yes"/>
      <point x="403" y="486"/>
      <point x="598" y="120"/>
      <point x="753" y="120" type="qcurve" smooth="yes"/>
      <point x="922" y="120"/>
      <point x="1099" y="445"/>
      <point x="1099" y="745" type="qcurve" smooth="yes"/>
      <point x="1099" y="1012"/>
      <point x="909" y="1361"/>
      <point x="753" y="1361" type="qcurve" smooth="yes"/>
      <point x="583" y="1361"/>
      <point x="403" y="1044"/>
    </contour>
  </outline>
</glyph>
<glyph name="P" format="2">
  <advance width="1357"/>
  <unicode hex="0050"/>
  <anchor x="633" y="0" name="bottom"/>
  <anchor x="633" y="1500" name="top"/>
  <outline>
    <contour>
      <point x="45" y="0" type="line"/>
      <point x="45" y="120" type="line"/>
      <point x="205" y="157" type="line"/>
      <point x="206" y="754" type="line"/>
      <point x="205" y="1332" type="line"/>
      <point x="45" y="1366" type="line"/>
      <point x="45" y="1500" type="line"/>
      <point x="804" y="1500" type="line" smooth="yes"/>
      <point x="1073" y="1500"/>
      <point x="1355" y="1279"/>
      <point x="1355" y="1062" type="qcurve" smooth="yes"/>
      <point x="1355" y="853"/>
      <point x="1056" y="583"/>
      <point x="787" y="583" type="qcurve" smooth="yes"/>
      <point x="677" y="583"/>
      <point x="563" y="600"/>
      <point x="515" y="612" type="qcurve"/>
      <point x="524" y="734" type="line"/>
      <point x="574" y="720"/>
      <point x="650" y="712"/>
      <point x="706" y="712" type="qcurve" smooth="yes"/>
      <point x="828" y="712"/>
      <point x="939" y="898"/>
      <point x="939" y="1062" type="qcurve" smooth="yes"/>
      <point x="939" y="1213"/>
      <point x="834" y="1364"/>
      <point x="735" y="1364" type="qcurve" smooth="yes"/>
      <point x="632" y="1364" type="line"/>
      <point x="598" y="1342" type="line"/>
      <point x="595" y="764" type="line"/>
      <point x="597" y="152" type="line"/>
      <point x="772" y="120" type="line"/>
      <point x="772" y="0" type="line"/>
    </contour>
  </outline>
</glyph>
<glyph name="Q" format="2">
  <advance width="1668"/>
  <unicode hex="0051"/>
  <anchor x="834" y="0" name="bottom"/>
  <anchor x="869" y="1492" name="top"/>
  <outline>
    <contour>
      <point x="80" y="746" type="qcurve" smooth="yes"/>
      <point x="80" y="1087"/>
      <point x="513" y="1524"/>
      <point x="834" y="1524" type="qcurve" smooth="yes"/>
      <point x="1156" y="1524"/>
      <point x="1588" y="1116"/>
      <point x="1588" y="754" type="qcurve" smooth="yes"/>
      <point x="1588" y="388"/>
      <point x="1138" y="-20"/>
      <point x="834" y="-20" type="qcurve" smooth="yes"/>
      <point x="503" y="-20"/>
      <point x="80" y="403"/>
    </contour>
    <contour>
      <point x="487" y="772" type="qcurve" smooth="yes"/>
      <point x="489" y="478"/>
      <point x="677" y="116"/>
      <point x="832" y="116" type="qcurve" smooth="yes"/>
      <point x="999" y="116"/>
      <point x="1181" y="462"/>
      <point x="1182" y="747" type="qcurve" smooth="yes"/>
      <point x="1184" y="1017"/>
      <point x="993" y="1365"/>
      <point x="836" y="1365" type="qcurve" smooth="yes"/>
      <point x="667" y="1365"/>
      <point x="485" y="1049"/>
    </contour>
    <contour>
      <point x="530" y="74" type="qcurve" identifier="jWZBD98qkQ"/>
      <point x="1328" y="-195" type="line" identifier="7ZXZEQkAbx"/>
      <point x="1364" y="-195"/>
      <point x="1416" y="-97"/>
      <point x="1437" y="-42" type="qcurve"/>
      <point x="1544" y="-109" type="line"/>
      <point x="1464" y="-320"/>
      <point x="1321" y="-497"/>
      <point x="1215" y="-497" type="qcurve" identifier="bSft9tBggp"/>
      <point x="429" y="-229" type="line" identifier="aDYWDNvZlZ"/>
      <point x="384" y="-229"/>
      <point x="318" y="-275"/>
      <point x="280" y="-326" type="qcurve"/>
      <point x="193" y="-239" type="line"/>
      <point x="264" y="-88"/>
      <point x="433" y="74"/>
    </contour>
    <contour>
      <point x="592" y="-96" type="line"/>
      <point x="686" y="250" type="line"/>
      <point x="815" y="201" type="line"/>
      <point x="717" y="-137" type="line"/>
    </contour>
  </outline>
</glyph>
<glyph name="R" format="2">
  <advance width="1476"/>
  <unicode hex="0052"/>
  <anchor x="761" y="0" name="bottom"/>
  <anchor x="708" y="1500" name="top"/>
  <outline>
    <contour>
      <point x="44" y="0" type="line"/>
      <point x="44" y="120" type="line"/>
      <point x="203" y="156" type="line"/>
      <point x="205" y="794" type="line"/>
      <point x="203" y="1332" type="line"/>
      <point x="44" y="1366" type="line"/>
      <point x="44" y="1500" type="line"/>
      <point x="763" y="1500" type="line" smooth="yes"/>
      <point x="1044" y="1500"/>
      <point x="1315" y="1309"/>
      <point x="1315" y="1139" type="qcurve" smooth="yes"/>
      <point x="1315" y="951"/>
      <point x="982" y="718"/>
      <point x="759" y="718" type="qcurve" smooth="yes"/>
      <point x="716" y="718"/>
      <point x="576" y="727"/>
      <point x="538" y="732" type="qcurve"/>
      <point x="538" y="845" type="line"/>
      <point x="712" y="845" type="line" smooth="yes"/>
      <point x="813" y="845"/>
      <point x="906" y="999"/>
      <point x="906" y="1127" type="qcurve" smooth="yes"/>
      <point x="906" y="1239"/>
      <point x="826" y="1364"/>
      <point x="736" y="1364" type="qcurve" smooth="yes"/>
      <point x="627" y="1364" type="line"/>
      <point x="598" y="1346" type="line"/>
      <point x="594" y="794" type="line"/>
      <point x="596" y="156" type="line"/>
      <point x="762" y="120" type="line"/>
      <point x="762" y="0" type="line"/>
    </contour>
    <contour>
      <point x="696" y="776" type="line"/>
      <point x="1062" y="858" type="line"/>
      <point x="1306" y="335" type="line" smooth="yes"/>
      <point x="1362" y="206"/>
      <point x="1453" y="132"/>
      <point x="1502" y="120" type="qcurve"/>
      <point x="1502" y="0" type="line"/>
      <point x="1050" y="0" type="line"/>
      <point x="1021" y="20" type="line"/>
    </contour>
  </outline>
</glyph>
<glyph name="S" format="2">
  <advance width="1098"/>
  <unicode hex="0053"/>
  <anchor x="523" y="0" name="bottom"/>
  <anchor x="555" y="1500" name="top"/>
  <outline>
    <contour>
      <point x="-10" y="0" type="line"/>
      <point x="-10" y="487" type="line"/>
      <point x="138" y="487" type="line"/>
      <point x="156" y="392" type="line" smooth="yes"/>
      <point x="185" y="236"/>
      <point x="415" y="115"/>
      <point x="530" y="115" type="qcurve" smooth="yes"/>
      <point x="666" y="115"/>
      <point x="760" y="225"/>
      <point x="760" y="325" type="qcurve" smooth="yes"/>
      <point x="760" y="439"/>
      <point x="650" y="544"/>
      <point x="455" y="595" type="qcurve" smooth="yes"/>
      <point x="258" y="642"/>
      <point x="48" y="877"/>
      <point x="48" y="1053" type="qcurve" smooth="yes"/>
      <point x="48" y="1255"/>
      <point x="301" y="1520"/>
      <point x="534" y="1520" type="qcurve" smooth="yes"/>
      <point x="615" y="1520"/>
      <point x="742" y="1487"/>
      <point x="840" y="1421" type="qcurve"/>
      <point x="861" y="1487" type="line"/>
      <point x="995" y="1487" type="line"/>
      <point x="995" y="1053" type="line"/>
      <point x="849" y="1053" type="line"/>
      <point x="827" y="1191" type="line" smooth="yes"/>
      <point x="811" y="1297"/>
      <point x="643" y="1374"/>
      <point x="553" y="1374" type="qcurve" smooth="yes"/>
      <point x="458" y="1374"/>
      <point x="386" y="1282"/>
      <point x="386" y="1197" type="qcurve" smooth="yes"/>
      <point x="386" y="1105"/>
      <point x="464" y="1005"/>
      <point x="636" y="959" type="qcurve" smooth="yes"/>
      <point x="849" y="904"/>
      <point x="1093" y="669"/>
      <point x="1093" y="474" type="qcurve" smooth="yes"/>
      <point x="1093" y="238"/>
      <point x="818" y="-20"/>
      <point x="581" y="-20" type="qcurve" smooth="yes"/>
      <point x="461" y="-20"/>
      <point x="277" y="35"/>
      <point x="171" y="113" type="qcurve"/>
      <point x="124" y="0" type="line"/>
    </contour>
  </outline>
</glyph>
<glyph name="T" format="2">
  <advance width="1131"/>
  <unicode hex="0054"/>
  <anchor x="561" y="0" name="bottom"/>
  <anchor x="561" y="750" name="center"/>
  <anchor x="561" y="1500" name="top"/>
  <outline>
    <contour>
      <point x="-6" y="1066" type="line"/>
      <point x="-6" y="1500" type="line"/>
      <point x="1137" y="1500" type="line"/>
      <point x="1137" y="1065" type="line"/>
      <point x="993" y="1065" type="line"/>
      <point x="962" y="1364" type="line"/>
      <point x="781" y="1364" type="line"/>
      <point x="762" y="1344" type="line"/>
      <point x="760" y="748" type="line"/>
      <point x="762" y="156" type="line"/>
      <point x="929" y="120" type="line"/>
      <point x="929" y="0" type="line"/>
      <point x="201" y="0" type="line"/>
      <point x="201" y="120" type="line"/>
      <point x="369" y="156" type="line"/>
      <point x="371" y="748" type="line"/>
      <point x="369" y="1344" type="line"/>
      <point x="360" y="1364" type="line"/>
      <point x="169" y="1364" type="line"/>
      <point x="138" y="1066" type="line"/>
    </contour>
  </outline>
</glyph>
<glyph name="U" format="2">
  <advance width="1455"/>
  <unicode hex="0055"/>
  <anchor x="747" y="0" name="bottom"/>
  <anchor x="911" y="0" name="ogonek"/>
  <anchor x="751" y="1500" name="top"/>
  <anchor x="1753" y="1500" name="topright"/>
  <outline>
    <contour>
      <point x="46" y="1366" type="line"/>
      <point x="46" y="1500" type="line"/>
      <point x="750" y="1500" type="line"/>
      <point x="750" y="1366" type="line"/>
      <point x="589" y="1332" type="line"/>
      <point x="586" y="803" type="line"/>
      <point x="588" y="487" type="line" smooth="yes"/>
      <point x="590" y="296"/>
      <point x="728" y="128"/>
      <point x="838" y="128" type="qcurve" smooth="yes"/>
      <point x="939" y="128"/>
      <point x="1081" y="311"/>
      <point x="1082" y="507" type="qcurve" smooth="yes"/>
      <point x="1084" y="803" type="line"/>
      <point x="1082" y="1332" type="line"/>
      <point x="914" y="1366" type="line"/>
      <point x="914" y="1500" type="line"/>
      <point x="1397" y="1500" type="line"/>
      <point x="1397" y="1366" type="line"/>
      <point x="1237" y="1332" type="line"/>
      <point x="1235" y="794" type="line"/>
      <point x="1237" y="493" type="line" smooth="yes"/>
      <point x="1241" y="223"/>
      <point x="948" y="-35"/>
      <point x="727" y="-35" type="qcurve" smooth="yes"/>
      <point x="490" y="-35"/>
      <point x="195" y="232"/>
      <point x="197" y="481" type="qcurve" smooth="yes"/>
      <point x="200" y="794" type="line"/>
      <point x="198" y="1332" type="line"/>
    </contour>
  </outline>
</glyph>
<glyph name="V" format="2">
  <advance width="1337"/>
  <unicode hex="0056"/>
  <anchor x="725" y="0" name="bottom"/>
  <anchor x="735" y="1500" name="top"/>
  <outline>
    <contour>
      <point x="9" y="1366" type="line"/>
      <point x="9" y="1500" type="line"/>
      <point x="671" y="1500" type="line"/>
      <point x="671" y="1366" type="line"/>
      <point x="550" y="1325" type="line"/>
      <point x="668" y="842" type="line"/>
      <point x="766" y="458" type="line"/>
      <point x="794" y="344" type="line"/>
      <point x="804" y="344" type="line"/>
      <point x="832" y="458" type="line"/>
      <point x="928" y="834" type="line"/>
      <point x="1043" y="1332" type="line"/>
      <point x="906" y="1366" type="line"/>
      <point x="906" y="1500" type="line"/>
      <point x="1346" y="1503" type="line"/>
      <point x="1346" y="1369" type="line"/>
      <point x="1202" y="1327" type="line"/>
      <point x="1062" y="790" type="line"/>
      <point x="852" y="-8" type="line"/>
      <point x="506" y="-8" type="line"/>
      <point x="295" y="781" type="line"/>
      <point x="146" y="1327" type="line"/>
    </contour>
  </outline>
</glyph>
<glyph name="W" format="2">
  <advance width="2084"/>
  <unicode hex="0057"/>
  <anchor x="1050" y="0" name="bottom"/>
  <anchor x="1050" y="1500" name="top"/>
  <outline>
    <contour>
      <point x="485" y="-8" type="line"/>
      <point x="296" y="741" type="line"/>
      <point x="146" y="1327" type="line"/>
      <point x="9" y="1366" type="line"/>
      <point x="9" y="1500" type="line"/>
      <point x="689" y="1500" type="line"/>
      <point x="689" y="1366" type="line"/>
      <point x="552" y="1325" type="line"/>
      <point x="674" y="803" type="line"/>
      <point x="763" y="434" type="line"/>
      <point x="785" y="320" type="line"/>
      <point x="795" y="320" type="line"/>
      <point x="819" y="434" type="line"/>
      <point x="875" y="673" type="line"/>
      <point x="977" y="1145" type="line"/>
      <point x="928" y="1335" type="line"/>
      <point x="791" y="1374" type="line"/>
      <point x="791" y="1500" type="line"/>
      <point x="1455" y="1500" type="line"/>
      <point x="1455" y="1374" type="line"/>
      <point x="1332" y="1333" type="line"/>
      <point x="1444" y="801" type="line"/>
      <point x="1525" y="434" type="line"/>
      <point x="1544" y="320" type="line"/>
      <point x="1554" y="320" type="line"/>
      <point x="1576" y="434" type="line"/>
      <point x="1660" y="804" type="line"/>
      <point x="1770" y="1332" type="line"/>
      <point x="1625" y="1366" type="line"/>
      <point x="1625" y="1500" type="line"/>
      <point x="2091" y="1500" type="line"/>
      <point x="2091" y="1366" type="line"/>
      <point x="1939" y="1327" type="line"/>
      <point x="1801" y="761" type="line"/>
      <point x="1614" y="-8" type="line"/>
      <point x="1267" y="-8" type="line"/>
      <point x="1063" y="813" type="line"/>
      <point x="1038" y="927" type="line"/>
      <point x="1028" y="927" type="line"/>
      <point x="1008" y="813" type="line"/>
      <point x="826" y="-8" type="line"/>
    </contour>
  </outline>
</glyph>
<glyph name="X" format="2">
  <advance width="1335"/>
  <unicode hex="0058"/>
  <anchor x="662" y="0" name="bottom"/>
  <anchor x="674" y="1500" name="top"/>
  <outline>
    <contour>
      <point x="-5" y="0" type="line"/>
      <point x="-5" y="120" type="line"/>
      <point x="137" y="155" type="line"/>
      <point x="434" y="804" type="line"/>
      <point x="177" y="1336" type="line"/>
      <point x="43" y="1367" type="line"/>
      <point x="43" y="1500" type="line"/>
      <point x="792" y="1500" type="line"/>
      <point x="792" y="1367" type="line"/>
      <point x="672" y="1334" type="line"/>
      <point x="772" y="1123" type="line"/>
      <point x="820" y="1009" type="line"/>
      <point x="830" y="1009" type="line"/>
      <point x="876" y="1123" type="line"/>
      <point x="973" y="1341" type="line"/>
      <point x="849" y="1367" type="line"/>
      <point x="849" y="1500" type="line"/>
      <point x="1294" y="1500" type="line"/>
      <point x="1294" y="1367" type="line"/>
      <point x="1144" y="1336" type="line"/>
      <point x="920" y="850" type="line"/>
      <point x="1253" y="155" type="line"/>
      <point x="1396" y="120" type="line"/>
      <point x="1396" y="0" type="line"/>
      <point x="639" y="0" type="line"/>
      <point x="639" y="120" type="line"/>
      <point x="759" y="155" type="line"/>
      <point x="582" y="531" type="line"/>
      <point x="533" y="645" type="line"/>
      <point x="523" y="645" type="line"/>
      <point x="477" y="531" type="line"/>
      <point x="308" y="150" type="line"/>
      <point x="432" y="120" type="line"/>
      <point x="432" y="0" type="line"/>
    </contour>
  </outline>
</glyph>
<glyph name="Y" format="2">
  <advance width="1344"/>
  <unicode hex="0059"/>
  <anchor x="673" y="0" name="bottom"/>
  <anchor x="677" y="1500" name="top"/>
  <anchor x="-53" y="1500" name="tonos"/>
  <outline>
    <contour>
      <point x="305" y="0" type="line"/>
      <point x="305" y="120" type="line"/>
      <point x="475" y="155" type="line"/>
      <point x="477" y="643" type="line"/>
      <point x="334" y="1009" type="line"/>
      <point x="191" y="1340" type="line"/>
      <point x="55" y="1366" type="line"/>
      <point x="55" y="1500" type="line"/>
      <point x="721" y="1500" type="line"/>
      <point x="721" y="1366" type="line"/>
      <point x="611" y="1331" type="line"/>
      <point x="697" y="1084" type="line"/>
      <point x="793" y="841" type="line"/>
      <point x="803" y="841" type="line"/>
      <point x="889" y="1083" type="line"/>
      <point x="972" y="1338" type="line"/>
      <point x="839" y="1366" type="line"/>
      <point x="839" y="1500" type="line"/>
      <point x="1288" y="1500" type="line"/>
      <point x="1288" y="1366" type="line"/>
      <point x="1147" y="1339" type="line"/>
      <point x="1021" y="1030" type="line"/>
      <point x="866" y="637" type="line"/>
      <point x="868" y="155" type="line"/>
      <point x="1035" y="120" type="line"/>
      <point x="1035" y="0" type="line"/>
    </contour>
  </outline>
</glyph>
<glyph name="Z" format="2">
  <advance width="1142"/>
  <unicode hex="005A"/>
  <anchor x="560" y="0" name="bottom"/>
  <anchor x="560" y="1500" name="top"/>
  <outline>
    <contour>
      <point x="34" y="0" type="line"/>
      <point x="4" y="92" type="line"/>
      <point x="612" y="1358" type="line"/>
      <point x="603" y="1366" type="line"/>
      <point x="242" y="1366" type="line"/>
      <point x="228" y="1239" type="line"/>
      <point x="54" y="1239" type="line"/>
      <point x="54" y="1500" type="line"/>
      <point x="1089" y="1500" type="line"/>
      <point x="1089" y="1409" type="line"/>
      <point x="475" y="134" type="line"/>
      <point x="483" y="128" type="line"/>
      <point x="928" y="128" type="line"/>
      <point x="957" y="233" type="line"/>
      <point x="1126" y="233" type="line"/>
      <point x="1104" y="0" type="line"/>
    </contour>
  </outline>
</glyph>
<glyph name="bracketleft" format="2">
  <advance width="533"/>
  <unicode hex="005B"/>
  <outline>
    <contour>
      <point x="21" y="508" type="line"/>
      <point x="9" y="1344" type="line"/>
      <point x="-10" y="1364" type="line"/>
      <point x="-10" y="1500" type="line"/>
      <point x="534" y="1500" type="line"/>
      <point x="534" y="1363" type="line"/>
      <point x="355" y="1344" type="line"/>
      <point x="343" y="508" type="line"/>
      <point x="355" y="-324" type="line"/>
      <point x="534" y="-343" type="line"/>
      <point x="534" y="-480" type="line"/>
      <point x="-10" y="-480" type="line"/>
      <point x="-10" y="-344" type="line"/>
      <point x="9" y="-324" type="line"/>
    </contour>
  </outline>
</glyph>
<glyph name="backslash" format="2">
  <advance width="453"/>
  <unicode hex="005C"/>
  <outline>
    <contour>
      <point x="-48" y="1528" type="line"/>
      <point x="103" y="1556" type="line"/>
      <point x="511" y="-133" type="line"/>
      <point x="360" y="-162" type="line"/>
    </contour>
  </outline>
</glyph>
<glyph name="bracketright" format="2">
  <advance width="461"/>
  <unicode hex="005D"/>
  <outline>
    <contour>
      <point x="0" y="-480" type="line"/>
      <point x="0" y="-343" type="line"/>
      <point x="179" y="-324" type="line"/>
      <point x="191" y="508" type="line"/>
      <point x="179" y="1344" type="line"/>
      <point x="0" y="1363" type="line"/>
      <point x="0" y="1500" type="line"/>
      <point x="544" y="1500" type="line"/>
      <point x="544" y="1364" type="line"/>
      <point x="525" y="1344" type="line"/>
      <point x="513" y="508" type="line"/>
      <point x="525" y="-324" type="line"/>
      <point x="544" y="-344" type="line"/>
      <point x="544" y="-480" type="line"/>
    </contour>
  </outline>
</glyph>
<glyph name="asciicircum" format="2">
  <advance width="754"/>
  <unicode hex="005E"/>
  <outline>
    <contour>
      <point x="-11" y="893" type="line"/>
      <point x="27" y="966"/>
      <point x="342" y="1500"/>
      <point x="359" y="1524" type="qcurve"/>
      <point x="378" y="1501"/>
      <point x="722" y="979"/>
      <point x="764" y="906" type="qcurve"/>
      <point x="647" y="820" type="line"/>
      <point x="539" y="945"/>
      <point x="395" y="1130"/>
      <point x="361" y="1149" type="qcurve"/>
      <point x="328" y="1128"/>
      <point x="204" y="950"/>
      <point x="109" y="816" type="qcurve"/>
    </contour>
  </outline>
</glyph>
<glyph name="a" format="2">
  <advance width="1189"/>
  <unicode hex="0061"/>
  <anchor x="569" y="0" name="bottom"/>
  <anchor x="1109" y="0" name="ogonek"/>
  <anchor x="559" y="1032" name="top"/>
  <outline>
    <contour>
      <point x="-4" y="248" type="qcurve" smooth="yes"/>
      <point x="-4" y="398"/>
      <point x="323" y="606"/>
      <point x="737" y="650" type="qcurve"/>
      <point x="737" y="559" type="line"/>
      <point x="555" y="523"/>
      <point x="367" y="402"/>
      <point x="369" y="265" type="qcurve" smooth="yes"/>
      <point x="370" y="178"/>
      <point x="430" y="110"/>
      <point x="481" y="110" type="qcurve" smooth="yes"/>
      <point x="531" y="110"/>
      <point x="644" y="203"/>
      <point x="669" y="255" type="qcurve"/>
      <point x="671" y="705" type="line" smooth="yes"/>
      <point x="672" y="845"/>
      <point x="593" y="934"/>
      <point x="532" y="934" type="qcurve" smooth="yes"/>
      <point x="479" y="934"/>
      <point x="410" y="892"/>
      <point x="371" y="859" type="qcurve"/>
      <point x="406" y="835"/>
      <point x="445" y="787"/>
      <point x="453" y="756" type="qcurve" smooth="yes"/>
      <point x="464" y="708"/>
      <point x="358" y="630"/>
      <point x="270" y="630" type="qcurve" smooth="yes"/>
      <point x="175" y="630"/>
      <point x="57" y="713"/>
      <point x="57" y="787" type="qcurve" smooth="yes"/>
      <point x="57" y="911"/>
      <point x="345" y="1059"/>
      <point x="567" y="1059" type="qcurve" smooth="yes"/>
      <point x="795" y="1059"/>
      <point x="1039" y="912"/>
      <point x="1037" y="752" type="qcurve" smooth="yes"/>
      <point x="1037" y="143" type="line"/>
      <point x="1165" y="108" type="line"/>
      <point x="1165" y="0" type="line"/>
      <point x="746" y="0" type="line"/>
      <point x="694" y="60" type="line"/>
      <point x="683" y="154" type="line"/>
      <point x="633" y="80"/>
      <point x="461" y="-17"/>
      <point x="333" y="-17" type="qcurve" smooth="yes"/>
      <point x="154" y="-17"/>
      <point x="-4" y="140"/>
    </contour>
  </outline>
</glyph>
<glyph name="b" format="2">
  <advance width="1310"/>
  <unicode hex="0062"/>
  <anchor x="709" y="0" name="bottom"/>
  <anchor x="709" y="1533" name="top"/>
  <outline>
    <contour>
      <point x="155" y="0" type="line"/>
      <point x="166" y="459" type="line"/>
      <point x="155" y="1352" type="line"/>
      <point x="15" y="1382" type="line"/>
      <point x="15" y="1504" type="line"/>
      <point x="467" y="1541" type="line"/>
      <point x="498" y="1541" type="line"/>
      <point x="526" y="1509" type="line"/>
      <point x="524" y="891" type="line"/>
      <point x="576" y="965"/>
      <point x="752" y="1056"/>
      <point x="874" y="1056" type="qcurve" smooth="yes"/>
      <point x="1063" y="1056"/>
      <point x="1310" y="780"/>
      <point x="1310" y="548" type="qcurve" smooth="yes"/>
      <point x="1310" y="294"/>
      <point x="1055" y="-15"/>
      <point x="825" y="-15" type="qcurve" smooth="yes"/>
      <point x="731" y="-15"/>
      <point x="575" y="47"/>
      <point x="526" y="91" type="qcurve"/>
      <point x="439" y="0" type="line"/>
    </contour>
    <contour>
      <point x="515" y="518" type="line"/>
      <point x="524" y="249" type="line"/>
      <point x="548" y="189"/>
      <point x="650" y="103"/>
      <point x="720" y="103" type="qcurve" smooth="yes"/>
      <point x="814" y="103"/>
      <point x="923" y="327"/>
      <point x="923" y="521" type="qcurve" smooth="yes"/>
      <point x="923" y="707"/>
      <point x="815" y="918"/>
      <point x="723" y="918" type="qcurve" smooth="yes"/>
      <point x="653" y="918"/>
      <point x="554" y="830"/>
      <point x="524" y="763" type="qcurve"/>
    </contour>
  </outline>
</glyph>
<glyph name="c" format="2">
  <advance width="918"/>
  <unicode hex="0063"/>
  <anchor x="491" y="0" name="bottom"/>
  <anchor x="481" y="1032" name="top"/>
  <outline>
    <contour>
      <point x="0" y="505" type="qcurve" smooth="yes"/>
      <point x="0" y="739"/>
      <point x="245" y="1057"/>
      <point x="442" y="1057" type="qcurve" smooth="yes"/>
      <point x="525" y="1057"/>
      <point x="658" y="1016"/>
      <point x="686" y="989" type="qcurve"/>
      <point x="706" y="1048" type="line"/>
      <point x="859" y="1048" type="line"/>
      <point x="874" y="655" type="line"/>
      <point x="741" y="655" type="line"/>
      <point x="730" y="735" type="line" smooth="yes"/>
      <point x="714" y="820"/>
      <point x="646" y="933"/>
      <point x="583" y="933" type="qcurve" smooth="yes"/>
      <point x="494" y="933"/>
      <point x="386" y="732"/>
      <point x="386" y="524" type="qcurve" smooth="yes"/>
      <point x="386" y="328"/>
      <point x="515" y="119"/>
      <point x="631" y="119" type="qcurve" smooth="yes"/>
      <point x="709" y="119"/>
      <point x="820" y="189"/>
      <point x="859" y="238" type="qcurve"/>
      <point x="916" y="168" type="line"/>
      <point x="864" y="93"/>
      <point x="660" y="-25"/>
      <point x="496" y="-25" type="qcurve" smooth="yes"/>
      <point x="279" y="-25"/>
      <point x="0" y="262"/>
    </contour>
  </outline>
</glyph>
<glyph name="d" format="2">
  <advance width="1306"/>
  <unicode hex="0064"/>
  <anchor x="581" y="0" name="bottom"/>
  <anchor x="981" y="1204" name="center"/>
  <anchor x="581" y="1538" name="top"/>
  <anchor x="1148" y="1000" name="topright"/>
  <outline>
    <contour>
      <point x="-1" y="493" type="qcurve" smooth="yes"/>
      <point x="-1" y="746"/>
      <point x="272" y="1056"/>
      <point x="495" y="1056" type="qcurve" smooth="yes"/>
      <point x="576" y="1056"/>
      <point x="734" y="1007"/>
      <point x="785" y="969" type="qcurve"/>
      <point x="777" y="1352" type="line"/>
      <point x="637" y="1382" type="line"/>
      <point x="637" y="1504" type="line"/>
      <point x="1090" y="1541" type="line"/>
      <point x="1121" y="1541" type="line"/>
      <point x="1149" y="1509" type="line"/>
      <point x="1146" y="555" type="line"/>
      <point x="1155" y="143" type="line"/>
      <point x="1280" y="108" type="line"/>
      <point x="1280" y="0" type="line"/>
      <point x="857" y="0" type="line"/>
      <point x="806" y="60" type="line"/>
      <point x="789" y="154" type="line"/>
      <point x="739" y="86"/>
      <point x="574" y="-12"/>
      <point x="449" y="-12" type="qcurve" smooth="yes"/>
      <point x="249" y="-12"/>
      <point x="-1" y="261"/>
    </contour>
    <contour>
      <point x="385" y="520" type="qcurve" smooth="yes"/>
      <point x="385" y="334"/>
      <point x="496" y="128"/>
      <point x="596" y="128" type="qcurve" smooth="yes"/>
      <point x="667" y="128"/>
      <point x="760" y="216"/>
      <point x="787" y="277" type="qcurve"/>
      <point x="793" y="541" type="line"/>
      <point x="793" y="814" type="line"/>
      <point x="765" y="869"/>
      <point x="673" y="936"/>
      <point x="610" y="936" type="qcurve" smooth="yes"/>
      <point x="506" y="936"/>
      <point x="385" y="696"/>
    </contour>
  </outline>
</glyph>
<glyph name="e" format="2">
  <advance width="1118"/>
  <unicode hex="0065"/>
  <anchor x="615" y="0" name="bottom"/>
  <anchor x="747" y="0" name="ogonek"/>
  <anchor x="584" y="1032" name="top"/>
  <outline>
    <contour>
      <point x="0" y="512" type="qcurve" smooth="yes"/>
      <point x="0" y="737"/>
      <point x="306" y="1055"/>
      <point x="580" y="1055" type="qcurve" smooth="yes"/>
      <point x="820" y="1055"/>
      <point x="1101" y="818"/>
      <point x="1121" y="606" type="qcurve"/>
      <point x="1121" y="541" type="line"/>
      <point x="283" y="541" type="line"/>
      <point x="283" y="642" type="line"/>
      <point x="763" y="642" type="line"/>
      <point x="752" y="783"/>
      <point x="653" y="933"/>
      <point x="578" y="933" type="qcurve" smooth="yes"/>
      <point x="486" y="933"/>
      <point x="384" y="721"/>
      <point x="385" y="528" type="qcurve" smooth="yes"/>
      <point x="385" y="338"/>
      <point x="531" y="117"/>
      <point x="703" y="117" type="qcurve" smooth="yes"/>
      <point x="794" y="117"/>
      <point x="949" y="170"/>
      <point x="1021" y="229" type="qcurve"/>
      <point x="1086" y="159" type="line"/>
      <point x="1028" y="83"/>
      <point x="787" y="-22"/>
      <point x="620" y="-22" type="qcurve" smooth="yes"/>
      <point x="297" y="-22"/>
      <point x="0" y="264"/>
    </contour>
  </outline>
</glyph>
<glyph name="f" format="2">
  <advance width="747"/>
  <unicode hex="0066"/>
  <anchor x="428" y="0" name="bottom"/>
  <anchor x="428" y="1536" name="top"/>
  <outline>
    <contour>
      <point x="29" y="0" type="line"/>
      <point x="29" y="108" type="line"/>
      <point x="170" y="143" type="line"/>
      <point x="171" y="526" type="line"/>
      <point x="169" y="888" type="line"/>
      <point x="66" y="893" type="line"/>
      <point x="66" y="1001" type="line"/>
      <point x="170" y="1019" type="line"/>
      <point x="174" y="1265" type="line" smooth="yes"/>
      <point x="176" y="1401"/>
      <point x="353" y="1541"/>
      <point x="486" y="1541" type="qcurve" smooth="yes"/>
      <point x="538" y="1541"/>
      <point x="636" y="1534"/>
      <point x="683" y="1521" type="qcurve" smooth="yes"/>
      <point x="701" y="1516" type="line"/>
      <point x="682" y="1406" type="line"/>
      <point x="668" y="1410" type="line" smooth="yes"/>
      <point x="660" y="1412"/>
      <point x="641" y="1415"/>
      <point x="627" y="1415" type="qcurve" smooth="yes"/>
      <point x="579" y="1415"/>
      <point x="528" y="1324"/>
      <point x="529" y="1253" type="qcurve" smooth="yes"/>
      <point x="532" y="1020" type="line"/>
      <point x="677" y="1020" type="line"/>
      <point x="677" y="894" type="line"/>
      <point x="532" y="894" type="line"/>
      <point x="534" y="526" type="line"/>
      <point x="540" y="143" type="line"/>
      <point x="700" y="108" type="line"/>
      <point x="700" y="0" type="line"/>
    </contour>
  </outline>
</glyph>
<glyph name="g" format="2">
  <advance width="1302"/>
  <unicode hex="0067"/>
  <anchor x="712" y="-416" name="bottom"/>
  <anchor x="672" y="1032" name="top"/>
  <outline>
    <contour>
      <point x="9" y="-268" type="qcurve" smooth="yes"/>
      <point x="9" y="-183"/>
      <point x="215" y="-87"/>
      <point x="376" y="-62" type="qcurve"/>
      <point x="453" y="-108" type="line"/>
      <point x="417" y="-134"/>
      <point x="373" y="-197"/>
      <point x="373" y="-257" type="qcurve" smooth="yes"/>
      <point x="373" y="-325"/>
      <point x="505" y="-409"/>
      <point x="680" y="-409" type="qcurve" smooth="yes"/>
      <point x="809" y="-409"/>
      <point x="960" y="-332"/>
      <point x="960" y="-255" type="qcurve" smooth="yes"/>
      <point x="960" y="-193"/>
      <point x="830" y="-162"/>
      <point x="660" y="-150" type="qcurve" smooth="yes"/>
      <point x="398" y="-134"/>
      <point x="79" y="-29"/>
      <point x="79" y="109" type="qcurve" smooth="yes"/>
      <point x="79" y="222"/>
      <point x="319" y="345"/>
      <point x="473" y="377" type="qcurve"/>
      <point x="527" y="308" type="line"/>
      <point x="476" y="289"/>
      <point x="402" y="236"/>
      <point x="402" y="193" type="qcurve" smooth="yes"/>
      <point x="402" y="148"/>
      <point x="526" y="114"/>
      <point x="699" y="107" type="qcurve" smooth="yes"/>
      <point x="1086" y="94"/>
      <point x="1304" y="-31"/>
      <point x="1304" y="-154" type="qcurve" smooth="yes"/>
      <point x="1304" y="-300"/>
      <point x="994" y="-522"/>
      <point x="654" y="-522" type="qcurve" smooth="yes"/>
      <point x="328" y="-522"/>
      <point x="9" y="-374"/>
    </contour>
    <contour>
      <point x="69" y="663" type="qcurve" smooth="yes"/>
      <point x="69" y="835"/>
      <point x="380" y="1058"/>
      <point x="632" y="1058" type="qcurve" smooth="yes"/>
      <point x="884" y="1058"/>
      <point x="1196" y="851"/>
      <point x="1196" y="668" type="qcurve" smooth="yes"/>
      <point x="1196" y="496"/>
      <point x="886" y="249"/>
      <point x="636" y="249" type="qcurve" smooth="yes"/>
      <point x="384" y="249"/>
      <point x="69" y="477"/>
    </contour>
    <contour>
      <point x="437" y="673" type="qcurve" smooth="yes"/>
      <point x="437" y="522"/>
      <point x="545" y="362"/>
      <point x="639" y="362" type="qcurve" smooth="yes"/>
      <point x="727" y="362"/>
      <point x="829" y="509"/>
      <point x="829" y="662" type="qcurve" smooth="yes"/>
      <point x="829" y="788"/>
      <point x="722" y="935"/>
      <point x="627" y="935" type="qcurve" smooth="yes"/>
      <point x="541" y="935"/>
      <point x="437" y="804"/>
    </contour>
    <contour>
      <point x="790" y="957" type="line"/>
      <point x="722" y="1032" type="line"/>
      <point x="1283" y="1032" type="line"/>
      <point x="1283" y="887" type="line"/>
    </contour>
  </outline>
</glyph>
<glyph name="h" format="2">
  <advance width="1380"/>
  <unicode hex="0068"/>
  <anchor x="692" y="0" name="bottom"/>
  <anchor x="365" y="1215" name="center"/>
  <anchor x="455" y="1538" name="top"/>
  <outline>
    <contour>
      <point x="49" y="0" type="line"/>
      <point x="49" y="108" type="line"/>
      <point x="168" y="143" type="line"/>
      <point x="170" y="529" type="line"/>
      <point x="168" y="1352" type="line"/>
      <point x="29" y="1382" type="line"/>
      <point x="29" y="1507" type="line"/>
      <point x="479" y="1541" type="line"/>
      <point x="511" y="1541" type="line"/>
      <point x="539" y="1509" type="line"/>
      <point x="538" y="885" type="line"/>
      <point x="592" y="955"/>
      <point x="771" y="1057"/>
      <point x="885" y="1057" type="qcurve" smooth="yes"/>
      <point x="1052" y="1057"/>
      <point x="1232" y="908"/>
      <point x="1232" y="778" type="qcurve" smooth="yes"/>
      <point x="1232" y="693"/>
      <point x="1227" y="529"/>
      <point x="1227" y="529" type="qcurve"/>
      <point x="1232" y="143" type="line"/>
      <point x="1356" y="108" type="line"/>
      <point x="1356" y="0" type="line"/>
      <point x="730" y="0" type="line"/>
      <point x="730" y="108" type="line"/>
      <point x="862" y="143" type="line"/>
      <point x="864" y="519" type="line"/>
      <point x="864" y="725" type="line" smooth="yes"/>
      <point x="864" y="808"/>
      <point x="799" y="900"/>
      <point x="740" y="900" type="qcurve" smooth="yes"/>
      <point x="682" y="900"/>
      <point x="571" y="814"/>
      <point x="537" y="743" type="qcurve"/>
      <point x="537" y="519" type="line"/>
      <point x="539" y="143" type="line"/>
      <point x="654" y="108" type="line"/>
      <point x="654" y="0" type="line"/>
    </contour>
  </outline>
</glyph>
<glyph name="k" format="2">
  <advance width="1459"/>
  <unicode hex="006B"/>
  <anchor x="758" y="0" name="bottom"/>
  <anchor x="728" y="1538" name="top"/>
  <outline>
    <contour>
      <point x="49" y="0" type="line"/>
      <point x="49" y="108" type="line"/>
      <point x="168" y="143" type="line"/>
      <point x="170" y="527" type="line"/>
      <point x="168" y="1352" type="line"/>
      <point x="29" y="1382" type="line"/>
      <point x="29" y="1507" type="line"/>
      <point x="478" y="1541" type="line"/>
      <point x="510" y="1541" type="line"/>
      <point x="538" y="1509" type="line"/>
      <point x="536" y="507" type="line"/>
      <point x="538" y="143" type="line"/>
      <point x="654" y="108" type="line"/>
      <point x="654" y="0" type="line"/>
    </contour>
    <contour>
      <point x="490" y="401" type="line"/>
      <point x="486" y="519" type="line"/>
      <point x="941" y="898" type="line"/>
      <point x="833" y="928" type="line"/>
      <point x="833" y="1032" type="line"/>
      <point x="1248" y="1032" type="line"/>
      <point x="1248" y="928" type="line"/>
      <point x="1099" y="893" type="line"/>
    </contour>
    <contour>
      <point x="631" y="590" type="line"/>
      <point x="918" y="778" type="line"/>
      <point x="1310" y="143" type="line"/>
      <point x="1429" y="108" type="line"/>
      <point x="1429" y="0" type="line"/>
      <point x="898" y="0" type="line"/>
      <point x="889" y="107" type="line"/>
      <point x="896" y="138" type="line"/>
    </contour>
  </outline>
</glyph>
<glyph name="m" format="2">
  <advance width="2020"/>
  <unicode hex="006D"/>
  <anchor x="1003" y="0" name="bottom"/>
  <anchor x="1003" y="1032" name="top"/>
  <outline>
    <contour>
      <point x="22" y="0" type="line"/>
      <point x="22" y="108" type="line"/>
      <point x="146" y="143" type="line"/>
      <point x="148" y="527" type="line"/>
      <point x="146" y="846" type="line"/>
      <point x="22" y="876" type="line"/>
      <point x="22" y="998" type="line"/>
      <point x="456" y="1035" type="line"/>
      <point x="491" y="1008" type="line"/>
      <point x="515" y="886" type="line"/>
      <point x="575" y="962"/>
      <point x="775" y="1057"/>
      <point x="882" y="1057" type="qcurve" smooth="yes"/>
      <point x="1010" y="1057"/>
      <point x="1162" y="962"/>
      <point x="1200" y="876" type="qcurve"/>
      <point x="1257" y="956"/>
      <point x="1451" y="1057"/>
      <point x="1559" y="1057" type="qcurve" smooth="yes"/>
      <point x="1716" y="1057"/>
      <point x="1873" y="908"/>
      <point x="1873" y="778" type="qcurve" smooth="yes"/>
      <point x="1873" y="698"/>
      <point x="1868" y="556"/>
      <point x="1868" y="523" type="qcurve" smooth="yes"/>
      <point x="1873" y="143" type="line"/>
      <point x="1997" y="108" type="line"/>
      <point x="1997" y="0" type="line"/>
      <point x="1371" y="0" type="line"/>
      <point x="1371" y="108" type="line"/>
      <point x="1505" y="143" type="line"/>
      <point x="1506" y="517" type="line"/>
      <point x="1506" y="724" type="line" smooth="yes"/>
      <point x="1506" y="802"/>
      <point x="1438" y="899"/>
      <point x="1379" y="899" type="qcurve" smooth="yes"/>
      <point x="1322" y="899"/>
      <point x="1226" y="821"/>
      <point x="1194" y="753" type="qcurve"/>
      <point x="1191" y="689"/>
      <point x="1191" y="537"/>
      <point x="1191" y="517" type="qcurve" smooth="yes"/>
      <point x="1194" y="143" type="line"/>
      <point x="1316" y="108" type="line"/>
      <point x="1316" y="0" type="line"/>
      <point x="695" y="0" type="line"/>
      <point x="695" y="108" type="line"/>
      <point x="827" y="143" type="line"/>
      <point x="829" y="517" type="line"/>
      <point x="829" y="724" type="line" smooth="yes"/>
      <point x="829" y="802"/>
      <point x="756" y="899"/>
      <point x="703" y="899" type="qcurve" smooth="yes"/>
      <point x="646" y="899"/>
      <point x="545" y="815"/>
      <point x="515" y="744" type="qcurve"/>
      <point x="514" y="517" type="line"/>
      <point x="516" y="143" type="line"/>
      <point x="632" y="108" type="line"/>
      <point x="632" y="0" type="line"/>
    </contour>
  </outline>
</glyph>
<glyph name="n" format="2">
  <advance width="1358"/>
  <unicode hex="006E"/>
  <anchor x="665" y="0" name="bottom"/>
  <anchor x="699" y="1032" name="top"/>
  <outline>
    <contour>
      <point x="22" y="0" type="line"/>
      <point x="22" y="108" type="line"/>
      <point x="146" y="143" type="line"/>
      <point x="148" y="529" type="line"/>
      <point x="146" y="846" type="line"/>
      <point x="22" y="876" type="line"/>
      <point x="22" y="1001" type="line"/>
      <point x="457" y="1035" type="line"/>
      <point x="492" y="1008" type="line"/>
      <point x="517" y="886" type="line"/>
      <point x="574" y="963"/>
      <point x="751" y="1057"/>
      <point x="863" y="1057" type="qcurve" smooth="yes"/>
      <point x="1030" y="1057"/>
      <point x="1211" y="908"/>
      <point x="1211" y="778" type="qcurve" smooth="yes"/>
      <point x="1211" y="704"/>
      <point x="1206" y="558"/>
      <point x="1206" y="533" type="qcurve" smooth="yes"/>
      <point x="1210" y="143" type="line"/>
      <point x="1335" y="108" type="line"/>
      <point x="1335" y="0" type="line"/>
      <point x="708" y="0" type="line"/>
      <point x="708" y="108" type="line"/>
      <point x="840" y="143" type="line"/>
      <point x="842" y="523" type="line"/>
      <point x="842" y="724" type="line" smooth="yes"/>
      <point x="842" y="807"/>
      <point x="775" y="899"/>
      <point x="718" y="899" type="qcurve" smooth="yes"/>
      <point x="656" y="899"/>
      <point x="547" y="814"/>
      <point x="516" y="744" type="qcurve"/>
      <point x="515" y="519" type="line"/>
      <point x="516" y="143" type="line"/>
      <point x="632" y="108" type="line"/>
      <point x="632" y="0" type="line"/>
    </contour>
  </outline>
</glyph>
<glyph name="o" format="2">
  <advance width="1223"/>
  <unicode hex="006F"/>
  <anchor x="613" y="0" name="bottom"/>
  <anchor x="613" y="516" name="center"/>
  <anchor x="776" y="0" name="ogonek"/>
  <anchor x="613" y="1032" name="top"/>
  <anchor x="828" y="1032" name="topright"/>
  <anchor x="613" y="1032" name="GRKtop"/>
  <outline>
    <contour>
      <point x="0" y="516" type="qcurve" smooth="yes"/>
      <point x="0" y="740"/>
      <point x="337" y="1054"/>
      <point x="611" y="1054" type="qcurve" smooth="yes"/>
      <point x="884" y="1054"/>
      <point x="1223" y="761"/>
      <point x="1223" y="522" type="qcurve" smooth="yes"/>
      <point x="1223" y="299"/>
      <point x="890" y="-22"/>
      <point x="617" y="-22" type="qcurve" smooth="yes"/>
      <point x="343" y="-22"/>
      <point x="0" y="276"/>
    </contour>
    <contour>
      <point x="384" y="536" type="qcurve" smooth="yes"/>
      <point x="385" y="355"/>
      <point x="508" y="103"/>
      <point x="609" y="103" type="qcurve" smooth="yes"/>
      <point x="717" y="103"/>
      <point x="835" y="333"/>
      <point x="835" y="522" type="qcurve" smooth="yes"/>
      <point x="835" y="698"/>
      <point x="713" y="926"/>
      <point x="611" y="926" type="qcurve" smooth="yes"/>
      <point x="501" y="926"/>
      <point x="383" y="718"/>
    </contour>
  </outline>
</glyph>
<glyph name="p" format="2">
  <advance width="1304"/>
  <unicode hex="0070"/>
  <anchor x="744" y="0" name="bottom"/>
  <anchor x="744" y="1032" name="top"/>
  <outline>
    <contour>
      <point x="29" y="-480" type="line"/>
      <point x="29" y="-372" type="line"/>
      <point x="149" y="-337" type="line"/>
      <point x="151" y="448" type="line"/>
      <point x="149" y="846" type="line"/>
      <point x="25" y="876" type="line"/>
      <point x="25" y="1001" type="line"/>
      <point x="469" y="1035" type="line"/>
      <point x="504" y="1008" type="line"/>
      <point x="519" y="894" type="line"/>
      <point x="572" y="965"/>
      <point x="744" y="1056"/>
      <point x="865" y="1056" type="qcurve" smooth="yes"/>
      <point x="1055" y="1056"/>
      <point x="1305" y="779"/>
      <point x="1305" y="546" type="qcurve" smooth="yes"/>
      <point x="1305" y="294"/>
      <point x="1044" y="-15"/>
      <point x="825" y="-15" type="qcurve" smooth="yes"/>
      <point x="721" y="-15"/>
      <point x="565" y="48"/>
      <point x="517" y="89" type="qcurve"/>
      <point x="519" y="-337" type="line"/>
      <point x="646" y="-372" type="line"/>
      <point x="646" y="-480" type="line"/>
    </contour>
    <contour>
      <point x="517" y="247" type="line"/>
      <point x="544" y="190"/>
      <point x="646" y="103"/>
      <point x="717" y="103" type="qcurve" smooth="yes"/>
      <point x="809" y="103"/>
      <point x="916" y="328"/>
      <point x="916" y="522" type="qcurve" smooth="yes"/>
      <point x="916" y="708"/>
      <point x="810" y="918"/>
      <point x="720" y="918" type="qcurve" smooth="yes"/>
      <point x="650" y="918"/>
      <point x="551" y="833"/>
      <point x="518" y="770" type="qcurve"/>
      <point x="515" y="451" type="line"/>
    </contour>
  </outline>
</glyph>
<glyph name="q" format="2">
  <advance width="1309"/>
  <unicode hex="0071"/>
  <anchor x="550" y="0" name="bottom"/>
  <anchor x="550" y="1032" name="top"/>
  <outline>
    <contour>
      <point x="-1" y="493" type="qcurve" smooth="yes"/>
      <point x="-1" y="749"/>
      <point x="275" y="1056"/>
      <point x="499" y="1056" type="qcurve" smooth="yes"/>
      <point x="583" y="1056"/>
      <point x="751" y="1003"/>
      <point x="802" y="962" type="qcurve"/>
      <point x="859" y="1045" type="line"/>
      <point x="1280" y="1008" type="line"/>
      <point x="1280" y="886" type="line"/>
      <point x="1155" y="852" type="line"/>
      <point x="1148" y="442" type="line"/>
      <point x="1150" y="-337" type="line"/>
      <point x="1278" y="-372" type="line"/>
      <point x="1278" y="-480" type="line"/>
      <point x="635" y="-480" type="line"/>
      <point x="635" y="-372" type="line"/>
      <point x="780" y="-337" type="line"/>
      <point x="779" y="135" type="line"/>
      <point x="725" y="68"/>
      <point x="551" y="-12"/>
      <point x="437" y="-12" type="qcurve" smooth="yes"/>
      <point x="251" y="-12"/>
      <point x="-1" y="261"/>
    </contour>
    <contour>
      <point x="386" y="520" type="qcurve" smooth="yes"/>
      <point x="386" y="334"/>
      <point x="500" y="128"/>
      <point x="591" y="128" type="qcurve" smooth="yes"/>
      <point x="656" y="128"/>
      <point x="755" y="202"/>
      <point x="787" y="262" type="qcurve"/>
      <point x="789" y="827" type="line"/>
      <point x="763" y="879"/>
      <point x="674" y="939"/>
      <point x="608" y="939" type="qcurve" smooth="yes"/>
      <point x="509" y="939"/>
      <point x="386" y="700"/>
    </contour>
  </outline>
</glyph>
<glyph name="r" format="2">
  <advance width="856"/>
  <unicode hex="0072"/>
  <anchor x="438" y="0" name="bottom"/>
  <anchor x="492" y="1032" name="top"/>
  <outline>
    <contour>
      <point x="21" y="0" type="line"/>
      <point x="21" y="108" type="line"/>
      <point x="145" y="143" type="line"/>
      <point x="147" y="540" type="line"/>
      <point x="145" y="846" type="line"/>
      <point x="21" y="876" type="line"/>
      <point x="21" y="998" type="line"/>
      <point x="456" y="1032" type="line"/>
      <point x="491" y="1005" type="line"/>
      <point x="516" y="892" type="line"/>
      <point x="557" y="944"/>
      <point x="687" y="1032"/>
      <point x="776" y="1032" type="qcurve" smooth="yes"/>
      <point x="860" y="1032" type="line"/>
      <point x="860" y="717" type="line"/>
      <point x="716" y="717" type="line"/>
      <point x="693" y="875" type="line"/>
      <point x="649" y="873"/>
      <point x="554" y="814"/>
      <point x="514" y="741" type="qcurve"/>
      <point x="514" y="532" type="line"/>
      <point x="516" y="143" type="line"/>
      <point x="648" y="108" type="line"/>
      <point x="648" y="0" type="line"/>
    </contour>
  </outline>
</glyph>
<glyph name="s" format="2">
  <advance width="791"/>
  <unicode hex="0073"/>
  <anchor x="304" y="0" name="bottom"/>
  <anchor x="302" y="1032" name="top"/>
  <outline>
    <contour>
      <point x="-5" y="-9" type="line"/>
      <point x="-5" y="367" type="line"/>
      <point x="138" y="367" type="line"/>
      <point x="149" y="289" type="line" smooth="yes"/>
      <point x="165" y="203"/>
      <point x="246" y="97"/>
      <point x="314" y="97" type="qcurve" smooth="yes"/>
      <point x="380" y="97"/>
      <point x="449" y="167"/>
      <point x="449" y="240" type="qcurve" smooth="yes"/>
      <point x="449" y="311"/>
      <point x="355" y="383"/>
      <point x="239" y="434" type="qcurve" smooth="yes"/>
      <point x="124" y="483"/>
      <point x="30" y="622"/>
      <point x="30" y="730" type="qcurve" smooth="yes"/>
      <point x="30" y="879"/>
      <point x="217" y="1057"/>
      <point x="368" y="1057" type="qcurve" smooth="yes"/>
      <point x="449" y="1057"/>
      <point x="573" y="1021"/>
      <point x="607" y="991" type="qcurve"/>
      <point x="632" y="1042" type="line"/>
      <point x="750" y="1042" type="line"/>
      <point x="750" y="711" type="line"/>
      <point x="606" y="711" type="line"/>
      <point x="597" y="823" type="line" smooth="yes"/>
      <point x="592" y="867"/>
      <point x="530" y="937"/>
      <point x="485" y="937" type="qcurve" smooth="yes"/>
      <point x="438" y="937"/>
      <point x="363" y="882"/>
      <point x="363" y="826" type="qcurve" smooth="yes"/>
      <point x="363" y="776"/>
      <point x="437" y="710"/>
      <point x="529" y="660" type="qcurve" smooth="yes"/>
      <point x="636" y="602"/>
      <point x="788" y="473"/>
      <point x="788" y="330" type="qcurve" smooth="yes"/>
      <point x="788" y="166"/>
      <point x="579" y="-23"/>
      <point x="427" y="-23" type="qcurve" smooth="yes"/>
      <point x="326" y="-23"/>
      <point x="212" y="22"/>
      <point x="161" y="73" type="qcurve"/>
      <point x="122" y="-9" type="line"/>
    </contour>
  </outline>
</glyph>
<glyph name="t" format="2">
  <advance width="614"/>
  <unicode hex="0074"/>
  <anchor x="319" y="0" name="bottom"/>
  <anchor x="309" y="622" name="center"/>
  <anchor x="319" y="1179" name="top"/>
  <anchor x="652" y="1000" name="topright"/>
  <outline>
    <contour>
      <point x="7" y="894" type="line"/>
      <point x="7" y="983" type="line"/>
      <point x="125" y="1011"/>
      <point x="242" y="1156"/>
      <point x="275" y="1220" type="qcurve"/>
      <point x="459" y="1220" type="line"/>
      <point x="492" y="1179" type="line"/>
      <point x="487" y="1011" type="line"/>
      <point x="614" y="1011" type="line"/>
      <point x="614" y="894" type="line"/>
      <point x="485" y="894" type="line"/>
      <point x="475" y="535" type="line"/>
      <point x="479" y="225" type="line" smooth="yes"/>
      <point x="480" y="159"/>
      <point x="516" y="121"/>
      <point x="567" y="121" type="qcurve" smooth="yes"/>
      <point x="611" y="121" type="line"/>
      <point x="611" y="29" type="line"/>
      <point x="312" y="-11" type="line"/>
      <point x="196" y="-11"/>
      <point x="108" y="70"/>
      <point x="108" y="160" type="qcurve" smooth="yes"/>
      <point x="108" y="534" type="line"/>
      <point x="108" y="882" type="line"/>
    </contour>
  </outline>
</glyph>
<glyph name="u" format="2">
  <advance width="1361"/>
  <unicode hex="0075"/>
  <anchor x="657" y="0" name="bottom"/>
  <anchor x="1224" y="20" name="ogonek"/>
  <anchor x="657" y="1032" name="top"/>
  <anchor x="1188" y="1032" name="topright"/>
  <outline>
    <contour>
      <point x="26" y="876" type="line"/>
      <point x="26" y="998" type="line"/>
      <point x="461" y="1032" type="line"/>
      <point x="496" y="1032" type="line"/>
      <point x="521" y="996" type="line"/>
      <point x="519" y="502" type="line"/>
      <point x="519" y="302" type="line" smooth="yes"/>
      <point x="519" y="236"/>
      <point x="587" y="127"/>
      <point x="650" y="127" type="qcurve" smooth="yes"/>
      <point x="701" y="127"/>
      <point x="810" y="205"/>
      <point x="844" y="282" type="qcurve"/>
      <point x="845" y="505" type="line"/>
      <point x="843" y="846" type="line"/>
      <point x="727" y="876" type="line"/>
      <point x="727" y="998" type="line"/>
      <point x="1153" y="1032" type="line"/>
      <point x="1188" y="1032" type="line"/>
      <point x="1213" y="996" type="line"/>
      <point x="1211" y="492" type="line"/>
      <point x="1213" y="171" type="line"/>
      <point x="1337" y="141" type="line"/>
      <point x="1337" y="34" type="line"/>
      <point x="903" y="0" type="line"/>
      <point x="868" y="27" type="line"/>
      <point x="844" y="147" type="line"/>
      <point x="784" y="71"/>
      <point x="584" y="-24"/>
      <point x="476" y="-24" type="qcurve" smooth="yes"/>
      <point x="312" y="-24"/>
      <point x="150" y="125"/>
      <point x="150" y="255" type="qcurve" smooth="yes"/>
      <point x="150" y="327"/>
      <point x="154" y="464"/>
      <point x="154" y="489" type="qcurve" smooth="yes"/>
      <point x="149" y="846" type="line"/>
    </contour>
  </outline>
</glyph>
<glyph name="v" format="2">
  <advance width="1082"/>
  <unicode hex="0076"/>
  <anchor x="560" y="0" name="bottom"/>
  <anchor x="601" y="1032" name="top"/>
  <outline>
    <contour>
      <point x="9" y="914" type="line"/>
      <point x="9" y="1032" type="line"/>
      <point x="599" y="1032" type="line"/>
      <point x="599" y="914" type="line"/>
      <point x="497" y="877" type="line"/>
      <point x="568" y="555" type="line"/>
      <point x="621" y="333" type="line"/>
      <point x="647" y="219" type="line"/>
      <point x="657" y="219" type="line"/>
      <point x="683" y="333" type="line"/>
      <point x="738" y="560" type="line"/>
      <point x="808" y="884" type="line"/>
      <point x="703" y="914" type="line"/>
      <point x="703" y="1032" type="line"/>
      <point x="1088" y="1032" type="line"/>
      <point x="1088" y="914" type="line"/>
      <point x="953" y="879" type="line"/>
      <point x="855" y="514" type="line"/>
      <point x="713" y="-8" type="line"/>
      <point x="370" y="-8" type="line"/>
      <point x="229" y="486" type="line"/>
      <point x="119" y="879" type="line"/>
    </contour>
  </outline>
</glyph>
<glyph name="w" format="2">
  <advance width="1658"/>
  <unicode hex="0077"/>
  <anchor x="815" y="0" name="bottom"/>
  <anchor x="815" y="1032" name="top"/>
  <outline>
    <contour>
      <point x="363" y="-11" type="line"/>
      <point x="226" y="492" type="line"/>
      <point x="125" y="879" type="line"/>
      <point x="16" y="914" type="line"/>
      <point x="16" y="1032" type="line"/>
      <point x="599" y="1032" type="line"/>
      <point x="599" y="914" type="line"/>
      <point x="497" y="877" type="line"/>
      <point x="570" y="539" type="line"/>
      <point x="618" y="326" type="line"/>
      <point x="644" y="212" type="line"/>
      <point x="654" y="212" type="line"/>
      <point x="679" y="326" type="line"/>
      <point x="719" y="489" type="line"/>
      <point x="763" y="679" type="line"/>
      <point x="711" y="881" type="line"/>
      <point x="608" y="914" type="line"/>
      <point x="608" y="1032" type="line"/>
      <point x="1186" y="1032" type="line"/>
      <point x="1186" y="914" type="line"/>
      <point x="1084" y="877" type="line"/>
      <point x="1169" y="490" type="line"/>
      <point x="1208" y="326" type="line"/>
      <point x="1232" y="212" type="line"/>
      <point x="1242" y="212" type="line"/>
      <point x="1268" y="326" type="line"/>
      <point x="1322" y="548" type="line"/>
      <point x="1396" y="884" type="line"/>
      <point x="1291" y="914" type="line"/>
      <point x="1291" y="1032" type="line"/>
      <point x="1664" y="1032" type="line"/>
      <point x="1664" y="914" type="line"/>
      <point x="1529" y="879" type="line"/>
      <point x="1433" y="503" type="line"/>
      <point x="1297" y="-11" type="line"/>
      <point x="956" y="-11" type="line"/>
      <point x="853" y="378" type="line"/>
      <point x="828" y="492" type="line"/>
      <point x="818" y="492" type="line"/>
      <point x="796" y="378" type="line"/>
      <point x="702" y="-11" type="line"/>
    </contour>
  </outline>
</glyph>
<glyph name="x" format="2">
  <advance width="1140"/>
  <unicode hex="0078"/>
  <anchor x="547" y="0" name="bottom"/>
  <anchor x="547" y="1032" name="top"/>
  <outline>
    <contour>
      <point x="39" y="0" type="line"/>
      <point x="39" y="108" type="line"/>
      <point x="192" y="143" type="line"/>
      <point x="376" y="491" type="line"/>
      <point x="156" y="879" type="line"/>
      <point x="35" y="914" type="line"/>
      <point x="35" y="1032" type="line"/>
      <point x="641" y="1032" type="line"/>
      <point x="641" y="915" type="line"/>
      <point x="555" y="883" type="line"/>
      <point x="624" y="752" type="line"/>
      <point x="677" y="645" type="line"/>
      <point x="687" y="645" type="line"/>
      <point x="732" y="752" type="line"/>
      <point x="793" y="888" type="line"/>
      <point x="695" y="914" type="line"/>
      <point x="695" y="1032" type="line"/>
      <point x="1075" y="1032" type="line"/>
      <point x="1075" y="914" type="line"/>
      <point x="930" y="879" type="line"/>
      <point x="756" y="543" type="line"/>
      <point x="982" y="143" type="line"/>
      <point x="1111" y="108" type="line"/>
      <point x="1111" y="0" type="line"/>
      <point x="499" y="0" type="line"/>
      <point x="499" y="108" type="line"/>
      <point x="585" y="139" type="line"/>
      <point x="505" y="291" type="line"/>
      <point x="456" y="388" type="line"/>
      <point x="446" y="388" type="line"/>
      <point x="404" y="291" type="line"/>
      <point x="333" y="134" type="line"/>
      <point x="423" y="108" type="line"/>
      <point x="423" y="0" type="line"/>
    </contour>
  </outline>
</glyph>
<glyph name="y" format="2">
  <advance width="1081"/>
  <unicode hex="0079"/>
  <anchor x="862" y="0" name="bottom"/>
  <anchor x="603" y="1032" name="top"/>
  <outline>
    <contour>
      <point x="9" y="914" type="line"/>
      <point x="9" y="1032" type="line"/>
      <point x="599" y="1032" type="line"/>
      <point x="599" y="914" type="line"/>
      <point x="497" y="877" type="line"/>
      <point x="568" y="559" type="line"/>
      <point x="622" y="337" type="line"/>
      <point x="648" y="223" type="line"/>
      <point x="658" y="223" type="line"/>
      <point x="684" y="337" type="line"/>
      <point x="737" y="564" type="line"/>
      <point x="808" y="884" type="line"/>
      <point x="703" y="914" type="line"/>
      <point x="703" y="1032" type="line"/>
      <point x="1087" y="1032" type="line"/>
      <point x="1087" y="914" type="line"/>
      <point x="953" y="879" type="line"/>
      <point x="854" y="517" type="line"/>
      <point x="630" y="-287" type="line" smooth="yes"/>
      <point x="599" y="-402"/>
      <point x="440" y="-494"/>
      <point x="348" y="-494" type="qcurve"/>
      <point x="227" y="-460" type="line"/>
      <point x="227" y="-357" type="line"/>
      <point x="315" y="-357" type="line" smooth="yes"/>
      <point x="364" y="-357"/>
      <point x="507" y="-300"/>
      <point x="531" y="-187" type="qcurve" smooth="yes"/>
      <point x="577" y="0" type="line"/>
      <point x="370" y="0" type="line"/>
      <point x="229" y="489" type="line"/>
      <point x="119" y="879" type="line"/>
    </contour>
  </outline>
</glyph>
<glyph name="z" format="2">
  <advance width="860"/>
  <unicode hex="007A"/>
  <anchor x="499" y="0" name="bottom"/>
  <anchor x="499" y="1032" name="top"/>
  <outline>
    <contour>
      <point x="6" y="0" type="line"/>
      <point x="6" y="90" type="line"/>
      <point x="432" y="904" type="line"/>
      <point x="205" y="904" type="line"/>
      <point x="178" y="732" type="line"/>
      <point x="34" y="732" type="line"/>
      <point x="34" y="1032" type="line"/>
      <point x="838" y="1032" type="line"/>
      <point x="838" y="943" type="line"/>
      <point x="399" y="128" type="line"/>
      <point x="683" y="128" type="line"/>
      <point x="710" y="300" type="line"/>
      <point x="854" y="300" type="line"/>
      <point x="854" y="0" type="line"/>
    </contour>
  </outline>
</glyph>
<glyph name="braceleft" format="2">
  <advance width="687"/>
  <unicode hex="007B"/>
  <outline>
    <contour>
      <point x="-5" y="477" type="line"/>
      <point x="-5" y="594" type="line"/>
      <point x="79" y="604" type="line" smooth="yes"/>
      <point x="135" y="612"/>
      <point x="190" y="665"/>
      <point x="190" y="721" type="qcurve" smooth="yes"/>
      <point x="190" y="838"/>
      <point x="61" y="1068"/>
      <point x="61" y="1185" type="qcurve" smooth="yes"/>
      <point x="61" y="1343"/>
      <point x="275" y="1510"/>
      <point x="462" y="1510" type="qcurve" smooth="yes"/>
      <point x="594" y="1510"/>
      <point x="640" y="1503"/>
      <point x="677" y="1500" type="qcurve"/>
      <point x="677" y="1369" type="line"/>
      <point x="625" y="1371"/>
      <point x="598" y="1371"/>
      <point x="549" y="1371" type="qcurve" smooth="yes"/>
      <point x="467" y="1371"/>
      <point x="395" y="1279"/>
      <point x="395" y="1184" type="qcurve" smooth="yes"/>
      <point x="395" y="1084"/>
      <point x="486" y="878"/>
      <point x="486" y="790" type="qcurve" smooth="yes"/>
      <point x="486" y="697"/>
      <point x="421" y="571"/>
      <point x="370" y="550" type="qcurve"/>
      <point x="433" y="516"/>
      <point x="486" y="384"/>
      <point x="486" y="316" type="qcurve" smooth="yes"/>
      <point x="486" y="227"/>
      <point x="365" y="-67"/>
      <point x="365" y="-167" type="qcurve" smooth="yes"/>
      <point x="365" y="-263"/>
      <point x="442" y="-356"/>
      <point x="524" y="-356" type="qcurve" smooth="yes"/>
      <point x="573" y="-356"/>
      <point x="620" y="-356"/>
      <point x="672" y="-355" type="qcurve"/>
      <point x="672" y="-484" type="line"/>
      <point x="635" y="-487"/>
      <point x="569" y="-495"/>
      <point x="437" y="-495" type="qcurve" smooth="yes"/>
      <point x="250" y="-495"/>
      <point x="31" y="-327"/>
      <point x="31" y="-168" type="qcurve" smooth="yes"/>
      <point x="31" y="-50"/>
      <point x="189" y="246"/>
      <point x="189" y="364" type="qcurve"/>
      <point x="189" y="477" type="line"/>
    </contour>
  </outline>
</glyph>
<glyph name="bar" format="2">
  <advance width="320"/>
  <unicode hex="007C"/>
  <outline>
    <contour>
      <point x="76" y="-540" type="line"/>
      <point x="79" y="-58" type="line"/>
      <point x="85" y="250" type="line"/>
      <point x="83" y="830" type="line"/>
      <point x="76" y="1138" type="line"/>
      <point x="74" y="1480" type="line"/>
      <point x="245" y="1550" type="line"/>
      <point x="240" y="1138" type="line"/>
      <point x="230" y="830" type="line"/>
      <point x="232" y="250" type="line"/>
      <point x="241" y="-58" type="line"/>
      <point x="243" y="-470" type="line"/>
    </contour>
  </outline>
</glyph>
<glyph name="braceright" format="2">
  <advance width="687"/>
  <unicode hex="007D"/>
  <outline>
    <contour>
      <point x="15" y="-484" type="qcurve"/>
      <point x="15" y="-355" type="line"/>
      <point x="67" y="-357"/>
      <point x="119" y="-357"/>
      <point x="164" y="-357" type="qcurve" smooth="yes"/>
      <point x="250" y="-357"/>
      <point x="320" y="-263"/>
      <point x="320" y="-167" type="qcurve" smooth="yes"/>
      <point x="320" y="-67"/>
      <point x="201" y="227"/>
      <point x="201" y="316" type="qcurve" smooth="yes"/>
      <point x="201" y="384"/>
      <point x="254" y="516"/>
      <point x="317" y="550" type="qcurve"/>
      <point x="266" y="571"/>
      <point x="201" y="697"/>
      <point x="201" y="790" type="qcurve" smooth="yes"/>
      <point x="201" y="878"/>
      <point x="295" y="1084"/>
      <point x="295" y="1184" type="qcurve" smooth="yes"/>
      <point x="295" y="1279"/>
      <point x="216" y="1371"/>
      <point x="136" y="1371" type="qcurve" smooth="yes"/>
      <point x="85" y="1371"/>
      <point x="62" y="1371"/>
      <point x="10" y="1369" type="qcurve"/>
      <point x="10" y="1500" type="line"/>
      <point x="48" y="1503"/>
      <point x="91" y="1510"/>
      <point x="220" y="1510" type="qcurve" smooth="yes"/>
      <point x="407" y="1510"/>
      <point x="623" y="1343"/>
      <point x="623" y="1185" type="qcurve" smooth="yes"/>
      <point x="623" y="1068"/>
      <point x="497" y="838"/>
      <point x="497" y="721" type="qcurve" smooth="yes"/>
      <point x="497" y="665"/>
      <point x="553" y="612"/>
      <point x="609" y="604" type="qcurve" smooth="yes"/>
      <point x="692" y="594" type="line"/>
      <point x="692" y="477" type="line"/>
      <point x="498" y="477" type="line"/>
      <point x="498" y="364" type="line"/>
      <point x="498" y="246"/>
      <point x="664" y="-50"/>
      <point x="664" y="-168" type="qcurve" smooth="yes"/>
      <point x="664" y="-327"/>
      <point x="440" y="-495"/>
      <point x="256" y="-495" type="qcurve" smooth="yes"/>
      <point x="125" y="-495"/>
      <point x="52" y="-487"/>
    </contour>
  </outline>
</glyph>
<glyph name="asciitilde" format="2">
  <advance width="807"/>
  <unicode hex="007E"/>
  <outline>
    <contour>
      <point x="9" y="604" type="line"/>
      <point x="59" y="697"/>
      <point x="230" y="863"/>
      <point x="300" y="863" type="qcurve"/>
      <point x="591" y="731" type="line"/>
      <point x="626" y="723"/>
      <point x="666" y="764"/>
      <point x="689" y="818" type="qcurve"/>
      <point x="798" y="759" type="line"/>
      <point x="759" y="655"/>
      <point x="623" y="473"/>
      <point x="519" y="473" type="qcurve"/>
      <point x="244" y="598" type="line"/>
      <point x="205" y="607"/>
      <point x="140" y="586"/>
      <point x="99" y="534" type="qcurve"/>
    </contour>
  </outline>
</glyph>
<glyph name="exclamdown" format="2">
  <advance width="254"/>
  <unicode hex="00A1"/>
  <outline>
    <contour>
      <point x="271" y="1205" type="qcurve" smooth="yes"/>
      <point x="271" y="1147"/>
      <point x="190" y="1061"/>
      <point x="127" y="1061" type="qcurve" smooth="yes"/>
      <point x="64" y="1061"/>
      <point x="-17" y="1147"/>
      <point x="-17" y="1205" type="qcurve" smooth="yes"/>
      <point x="-17" y="1262"/>
      <point x="64" y="1348"/>
      <point x="127" y="1348" type="qcurve" smooth="yes"/>
      <point x="190" y="1348"/>
      <point x="271" y="1262"/>
    </contour>
    <contour>
      <point x="221" y="-95" type="line" smooth="yes"/>
      <point x="224" y="-163"/>
      <point x="184" y="-250"/>
      <point x="129" y="-251" type="qcurve" smooth="yes"/>
      <point x="74" y="-252"/>
      <point x="30" y="-165"/>
      <point x="33" y="-96" type="qcurve" smooth="yes"/>
      <point x="47" y="218" type="line"/>
      <point x="68" y="526" type="line"/>
      <point x="81" y="891" type="line"/>
      <point x="175" y="891" type="line"/>
      <point x="188" y="526" type="line"/>
      <point x="207" y="218" type="line"/>
    </contour>
  </outline>
</glyph>
<glyph name="cent" format="2">
  <advance width="861"/>
  <unicode hex="00A2"/>
  <outline>
    <contour>
      <point x="0" y="475" type="qcurve" smooth="yes"/>
      <point x="0" y="714"/>
      <point x="269" y="1022"/>
      <point x="505" y="1022" type="qcurve" smooth="yes"/>
      <point x="562" y="1022"/>
      <point x="670" y="989"/>
      <point x="697" y="965" type="qcurve"/>
      <point x="724" y="1019" type="line"/>
      <point x="803" y="990" type="line"/>
      <point x="819" y="664" type="line"/>
      <point x="721" y="647" type="line"/>
      <point x="709" y="715" type="line" smooth="yes"/>
      <point x="695" y="794"/>
      <point x="611" y="911"/>
      <point x="565" y="911" type="qcurve" smooth="yes"/>
      <point x="480" y="911"/>
      <point x="375" y="711"/>
      <point x="375" y="517" type="qcurve" smooth="yes"/>
      <point x="375" y="311"/>
      <point x="499" y="101"/>
      <point x="604" y="101" type="qcurve" smooth="yes"/>
      <point x="668" y="101"/>
      <point x="754" y="168"/>
      <point x="790" y="228" type="qcurve"/>
      <point x="850" y="183" type="line"/>
      <point x="802" y="93"/>
      <point x="628" y="-22"/>
      <point x="495" y="-22" type="qcurve" smooth="yes"/>
      <point x="270" y="-22"/>
      <point x="0" y="246"/>
    </contour>
    <contour>
      <point x="487" y="-210" type="line"/>
      <point x="487" y="52" type="line"/>
      <point x="514" y="52" type="line"/>
      <point x="514" y="520" type="line"/>
      <point x="618" y="478" type="line"/>
      <point x="618" y="52" type="line"/>
      <point x="647" y="52" type="line"/>
      <point x="647" y="-160" type="line"/>
    </contour>
    <contour>
      <point x="486" y="1170" type="line"/>
      <point x="647" y="1209" type="line"/>
      <point x="647" y="988" type="line"/>
      <point x="618" y="988" type="line"/>
      <point x="618" y="478" type="line"/>
      <point x="514" y="520" type="line"/>
      <point x="514" y="988" type="line"/>
      <point x="486" y="988" type="line"/>
    </contour>
  </outline>
</glyph>
<glyph name="sterling" format="2">
  <advance width="991"/>
  <unicode hex="00A3"/>
  <outline>
    <contour>
      <point x="670" y="550" type="qcurve" smooth="yes"/>
      <point x="670" y="414"/>
      <point x="579" y="185"/>
      <point x="525" y="141" type="qcurve"/>
      <point x="533" y="108" type="line"/>
      <point x="741" y="108" type="line"/>
      <point x="875" y="372" type="line"/>
      <point x="987" y="372" type="line"/>
      <point x="888" y="0" type="line"/>
      <point x="70" y="0" type="line"/>
      <point x="10" y="100" type="line"/>
      <point x="37" y="125" type="line"/>
      <point x="151" y="115"/>
      <point x="270" y="346"/>
      <point x="270" y="434" type="qcurve" smooth="yes"/>
      <point x="270" y="524"/>
      <point x="224" y="676"/>
      <point x="193" y="747" type="qcurve" smooth="yes"/>
      <point x="151" y="842"/>
      <point x="72" y="1039"/>
      <point x="72" y="1146" type="qcurve" smooth="yes"/>
      <point x="72" y="1279"/>
      <point x="325" y="1501"/>
      <point x="518" y="1501" type="qcurve" smooth="yes"/>
      <point x="671" y="1501"/>
      <point x="854" y="1405"/>
      <point x="934" y="1313" type="qcurve"/>
      <point x="843" y="1222" type="line"/>
      <point x="807" y="1279"/>
      <point x="705" y="1371"/>
      <point x="633" y="1371" type="qcurve" smooth="yes"/>
      <point x="551" y="1371"/>
      <point x="468" y="1246"/>
      <point x="468" y="1163" type="qcurve" smooth="yes"/>
      <point x="468" y="1087"/>
      <point x="538" y="923"/>
      <point x="578" y="836" type="qcurve" smooth="yes"/>
      <point x="614" y="759"/>
      <point x="670" y="609"/>
    </contour>
    <contour>
      <point x="116" y="571" type="line"/>
      <point x="92" y="707" type="line"/>
      <point x="848" y="707" type="line"/>
      <point x="818" y="571" type="line"/>
    </contour>
  </outline>
</glyph>
<glyph name="currency" format="2">
  <advance width="1283"/>
  <unicode hex="00A4"/>
  <outline>
    <contour>
      <point x="110" y="760" type="qcurve" smooth="yes"/>
      <point x="110" y="977"/>
      <point x="396" y="1282"/>
      <point x="628" y="1282" type="qcurve" smooth="yes"/>
      <point x="861" y="1282"/>
      <point x="1150" y="997"/>
      <point x="1150" y="766" type="qcurve" smooth="yes"/>
      <point x="1150" y="550"/>
      <point x="866" y="238"/>
      <point x="634" y="238" type="qcurve" smooth="yes"/>
      <point x="401" y="238"/>
      <point x="110" y="527"/>
    </contour>
    <contour>
      <point x="262" y="779" type="qcurve" smooth="yes"/>
      <point x="263" y="609"/>
      <point x="462" y="374"/>
      <point x="626" y="374" type="qcurve" smooth="yes"/>
      <point x="802" y="374"/>
      <point x="992" y="588"/>
      <point x="992" y="765" type="qcurve" smooth="yes"/>
      <point x="992" y="928"/>
      <point x="793" y="1140"/>
      <point x="628" y="1140" type="qcurve" smooth="yes"/>
      <point x="450" y="1140"/>
      <point x="261" y="947"/>
    </contour>
    <contour>
      <point x="264" y="1018" type="line"/>
      <point x="3" y="1279" type="line"/>
      <point x="119" y="1402" type="line"/>
      <point x="380" y="1141" type="line"/>
    </contour>
    <contour>
      <point x="1019" y="1018" type="line"/>
      <point x="903" y="1141" type="line"/>
      <point x="1164" y="1402" type="line"/>
      <point x="1280" y="1279" type="line"/>
    </contour>
    <contour>
      <point x="264" y="482" type="line"/>
      <point x="380" y="359" type="line"/>
      <point x="119" y="98" type="line"/>
      <point x="3" y="221" type="line"/>
    </contour>
    <contour>
      <point x="1019" y="482" type="line"/>
      <point x="1280" y="221" type="line"/>
      <point x="1164" y="98" type="line"/>
      <point x="903" y="359" type="line"/>
    </contour>
  </outline>
</glyph>
<glyph name="yen" format="2">
  <advance width="1316"/>
  <unicode hex="00A5"/>
  <outline>
    <contour>
      <point x="95" y="631" type="line"/>
      <point x="65" y="757" type="line"/>
      <point x="1251" y="757" type="line"/>
      <point x="1221" y="631" type="line"/>
    </contour>
    <contour>
      <point x="466" y="652" type="line"/>
      <point x="327" y="1009" type="line"/>
      <point x="173" y="1360" type="line"/>
      <point x="14" y="1386" type="line"/>
      <point x="14" y="1500" type="line"/>
      <point x="748" y="1500" type="line"/>
      <point x="748" y="1386" type="line"/>
      <point x="593" y="1351" type="line"/>
      <point x="693" y="1079" type="line"/>
      <point x="795" y="825" type="line"/>
      <point x="886" y="1078" type="line"/>
      <point x="983" y="1358" type="line"/>
      <point x="798" y="1386" type="line"/>
      <point x="798" y="1500" type="line"/>
      <point x="1302" y="1500" type="line"/>
      <point x="1302" y="1386" type="line"/>
      <point x="1137" y="1359" type="line"/>
      <point x="1001" y="1033" type="line"/>
      <point x="854" y="657" type="line"/>
      <point x="856" y="135" type="line"/>
      <point x="1074" y="100" type="line"/>
      <point x="1074" y="0" type="line"/>
      <point x="243" y="0" type="line"/>
      <point x="243" y="100" type="line"/>
      <point x="464" y="135" type="line"/>
    </contour>
    <contour>
      <point x="155" y="331" type="line"/>
      <point x="125" y="457" type="line"/>
      <point x="1191" y="457" type="line"/>
      <point x="1161" y="331" type="line"/>
    </contour>
  </outline>
</glyph>
<glyph name="brokenbar" format="2">
  <advance width="348"/>
  <unicode hex="00A6"/>
  <outline>
    <contour>
      <point x="94" y="688" type="line"/>
      <point x="103" y="900" type="line"/>
      <point x="91" y="1208" type="line"/>
      <point x="79" y="1480" type="line"/>
      <point x="269" y="1550" type="line"/>
      <point x="257" y="1208" type="line"/>
      <point x="243" y="900" type="line"/>
      <point x="245" y="738" type="line"/>
    </contour>
    <contour>
      <point x="79" y="-540" type="line"/>
      <point x="91" y="-128" type="line"/>
      <point x="105" y="180" type="line"/>
      <point x="103" y="348" type="line"/>
      <point x="254" y="408" type="line"/>
      <point x="245" y="180" type="line"/>
      <point x="257" y="-128" type="line"/>
      <point x="269" y="-451" type="line"/>
    </contour>
  </outline>
</glyph>
<glyph name="section" format="2">
  <advance width="840"/>
  <unicode hex="00A7"/>
  <outline>
    <contour>
      <point x="848" y="137" type="qcurve" smooth="yes"/>
      <point x="848" y="-35"/>
      <point x="634" y="-253"/>
      <point x="455" y="-253" type="qcurve" smooth="yes"/>
      <point x="342" y="-253"/>
      <point x="176" y="-187"/>
      <point x="125" y="-135" type="qcurve"/>
      <point x="84" y="-235" type="line"/>
      <point x="-12" y="-235" type="line"/>
      <point x="-12" y="196" type="line"/>
      <point x="94" y="196" type="line"/>
      <point x="112" y="103" type="line" smooth="yes"/>
      <point x="137" y="-27"/>
      <point x="318" y="-134"/>
      <point x="442" y="-134" type="qcurve" smooth="yes"/>
      <point x="577" y="-134"/>
      <point x="696" y="-9"/>
      <point x="696" y="95" type="qcurve" smooth="yes"/>
      <point x="696" y="220"/>
      <point x="534" y="334"/>
      <point x="363" y="401" type="qcurve" smooth="yes"/>
      <point x="204" y="464"/>
      <point x="30" y="634"/>
      <point x="30" y="776" type="qcurve" smooth="yes"/>
      <point x="30" y="860"/>
      <point x="98" y="1003"/>
      <point x="158" y="1049" type="qcurve"/>
      <point x="117" y="1086"/>
      <point x="82" y="1179"/>
      <point x="82" y="1239" type="qcurve" smooth="yes"/>
      <point x="82" y="1349"/>
      <point x="251" y="1512"/>
      <point x="404" y="1512" type="qcurve" smooth="yes"/>
      <point x="481" y="1512"/>
      <point x="589" y="1472"/>
      <point x="627" y="1449" type="qcurve"/>
      <point x="641" y="1480" type="line"/>
      <point x="732" y="1480" type="line"/>
      <point x="732" y="1184" type="line"/>
      <point x="626" y="1184" type="line"/>
      <point x="605" y="1297" type="line" smooth="yes"/>
      <point x="597" y="1341"/>
      <point x="490" y="1401"/>
      <point x="408" y="1401" type="qcurve" smooth="yes"/>
      <point x="317" y="1401"/>
      <point x="234" y="1329"/>
      <point x="234" y="1270" type="qcurve" smooth="yes"/>
      <point x="234" y="1208"/>
      <point x="321" y="1141"/>
      <point x="478" y="1097" type="qcurve" smooth="yes"/>
      <point x="632" y="1054"/>
      <point x="817" y="912"/>
      <point x="817" y="767" type="qcurve" smooth="yes"/>
      <point x="817" y="668"/>
      <point x="698" y="516"/>
      <point x="594" y="485" type="qcurve"/>
      <point x="707" y="430"/>
      <point x="848" y="268"/>
    </contour>
    <contour>
      <point x="170" y="810" type="qcurve" smooth="yes"/>
      <point x="170" y="732"/>
      <point x="280" y="615"/>
      <point x="440" y="551" type="qcurve"/>
      <point x="540" y="551"/>
      <point x="673" y="657"/>
      <point x="673" y="740" type="qcurve" smooth="yes"/>
      <point x="673" y="824"/>
      <point x="535" y="899"/>
      <point x="371" y="947" type="qcurve" smooth="yes"/>
      <point x="344" y="955"/>
      <point x="297" y="971"/>
      <point x="276" y="980" type="qcurve"/>
      <point x="226" y="958"/>
      <point x="170" y="870"/>
    </contour>
  </outline>
</glyph>
<glyph name="copyright" format="2">
  <advance width="1785"/>
  <unicode hex="00A9"/>
  <outline>
    <contour>
      <point x="418" y="662" type="qcurve" smooth="yes"/>
      <point x="418" y="901"/>
      <point x="679" y="1209"/>
      <point x="905" y="1209" type="qcurve" smooth="yes"/>
      <point x="968" y="1209"/>
      <point x="1089" y="1176"/>
      <point x="1119" y="1152" type="qcurve"/>
      <point x="1151" y="1206" type="line"/>
      <point x="1239" y="1177" type="line"/>
      <point x="1255" y="851" type="line"/>
      <point x="1157" y="834" type="line"/>
      <point x="1108" y="1019" type="line"/>
      <point x="1066" y="1053"/>
      <point x="963" y="1098"/>
      <point x="906" y="1098" type="qcurve" smooth="yes"/>
      <point x="767" y="1098"/>
      <point x="598" y="898"/>
      <point x="598" y="704" type="qcurve" smooth="yes"/>
      <point x="598" y="502"/>
      <point x="798" y="295"/>
      <point x="929" y="295" type="qcurve" smooth="yes"/>
      <point x="1048" y="295"/>
      <point x="1231" y="398"/>
      <point x="1279" y="455" type="qcurve"/>
      <point x="1339" y="380" type="line"/>
      <point x="1277" y="287"/>
      <point x="1039" y="165"/>
      <point x="929" y="165" type="qcurve" smooth="yes"/>
      <point x="698" y="165"/>
      <point x="418" y="433"/>
    </contour>
    <contour>
      <point x="-30" y="685" type="qcurve" smooth="yes"/>
      <point x="-30" y="1061"/>
      <point x="491" y="1570"/>
      <point x="895" y="1570" type="qcurve" smooth="yes"/>
      <point x="1297" y="1570"/>
      <point x="1816" y="1087"/>
      <point x="1816" y="706" type="qcurve" smooth="yes"/>
      <point x="1816" y="288"/>
      <point x="1304" y="-242"/>
      <point x="907" y="-242" type="qcurve" smooth="yes"/>
      <point x="498" y="-242"/>
      <point x="-30" y="276"/>
    </contour>
    <contour>
      <point x="135" y="681" type="qcurve" smooth="yes"/>
      <point x="135" y="335"/>
      <point x="592" y="-118"/>
      <point x="923" y="-118" type="qcurve" smooth="yes"/>
      <point x="1244" y="-118"/>
      <point x="1651" y="360"/>
      <point x="1651" y="698" type="qcurve" smooth="yes"/>
      <point x="1651" y="1007"/>
      <point x="1221" y="1446"/>
      <point x="875" y="1446" type="qcurve" smooth="yes"/>
      <point x="547" y="1446"/>
      <point x="135" y="998"/>
    </contour>
  </outline>
</glyph>
<glyph name="ordfeminine" format="2">
  <advance width="789"/>
  <unicode hex="00AA"/>
  <outline>
    <contour>
      <point x="-25" y="891" type="qcurve" smooth="yes"/>
      <point x="-25" y="1006"/>
      <point x="266" y="1182"/>
      <point x="551" y="1215" type="qcurve"/>
      <point x="559" y="1128" type="line"/>
      <point x="368" y="1104"/>
      <point x="133" y="1012"/>
      <point x="133" y="899" type="qcurve" smooth="yes"/>
      <point x="133" y="837"/>
      <point x="224" y="782"/>
      <point x="282" y="782" type="qcurve" smooth="yes"/>
      <point x="349" y="782"/>
      <point x="495" y="860"/>
      <point x="524" y="905" type="qcurve"/>
      <point x="526" y="1202" type="line" smooth="yes"/>
      <point x="527" y="1351"/>
      <point x="438" y="1439"/>
      <point x="355" y="1439" type="qcurve" smooth="yes"/>
      <point x="276" y="1439"/>
      <point x="176" y="1404"/>
      <point x="147" y="1383" type="qcurve"/>
      <point x="165" y="1365"/>
      <point x="187" y="1328"/>
      <point x="188" y="1311" type="qcurve" smooth="yes"/>
      <point x="195" y="1278"/>
      <point x="156" y="1232"/>
      <point x="119" y="1232" type="qcurve" smooth="yes"/>
      <point x="82" y="1232"/>
      <point x="36" y="1297"/>
      <point x="36" y="1352" type="qcurve" smooth="yes"/>
      <point x="36" y="1430"/>
      <point x="228" y="1543"/>
      <point x="365" y="1543" type="qcurve" smooth="yes"/>
      <point x="518" y="1543"/>
      <point x="672" y="1386"/>
      <point x="674" y="1194" type="qcurve" smooth="yes"/>
      <point x="679" y="780" type="line"/>
      <point x="809" y="751" type="line"/>
      <point x="809" y="684" type="line"/>
      <point x="591" y="684" type="line"/>
      <point x="547" y="734" type="line"/>
      <point x="537" y="791" type="line"/>
      <point x="496" y="748"/>
      <point x="320" y="670"/>
      <point x="225" y="670" type="qcurve" smooth="yes"/>
      <point x="114" y="670"/>
      <point x="-25" y="803"/>
    </contour>
  </outline>
</glyph>
<glyph name="guillemotleft" format="2">
  <advance width="1335"/>
  <unicode hex="00AB"/>
  <outline>
    <contour>
      <point x="25" y="624" type="line"/>
      <point x="109" y="672"/>
      <point x="606" y="979"/>
      <point x="678" y="1024" type="qcurve" smooth="yes"/>
      <point x="748" y="1068"/>
      <point x="820" y="982"/>
      <point x="764" y="925" type="qcurve" smooth="yes"/>
      <point x="691" y="854"/>
      <point x="447" y="659"/>
      <point x="404" y="613" type="qcurve"/>
      <point x="448" y="564"/>
      <point x="694" y="358"/>
      <point x="768" y="283" type="qcurve" smooth="yes"/>
      <point x="821" y="228"/>
      <point x="770" y="136"/>
      <point x="697" y="174" type="qcurve" smooth="yes"/>
      <point x="631" y="208"/>
      <point x="100" y="536"/>
      <point x="25" y="584" type="qcurve"/>
    </contour>
    <contour>
      <point x="533" y="624" type="line"/>
      <point x="617" y="672"/>
      <point x="1114" y="979"/>
      <point x="1186" y="1024" type="qcurve" smooth="yes"/>
      <point x="1256" y="1068"/>
      <point x="1329" y="982"/>
      <point x="1272" y="925" type="qcurve" smooth="yes"/>
      <point x="1199" y="854"/>
      <point x="955" y="659"/>
      <point x="912" y="613" type="qcurve"/>
      <point x="956" y="564"/>
      <point x="1202" y="358"/>
      <point x="1276" y="283" type="qcurve" smooth="yes"/>
      <point x="1330" y="228"/>
      <point x="1278" y="136"/>
      <point x="1205" y="174" type="qcurve" smooth="yes"/>
      <point x="1139" y="208"/>
      <point x="608" y="536"/>
      <point x="533" y="584" type="qcurve"/>
    </contour>
  </outline>
</glyph>
<glyph name="logicalnot" format="2">
  <advance width="809"/>
  <unicode hex="00AC"/>
  <outline>
    <contour>
      <point x="-25" y="708" type="line"/>
      <point x="839" y="708" type="line"/>
      <point x="839" y="200" type="line"/>
      <point x="679" y="200" type="line"/>
      <point x="679" y="556" type="line"/>
      <point x="-25" y="556" type="line"/>
    </contour>
  </outline>
</glyph>
<glyph name="registered" format="2">
  <advance width="1832"/>
  <unicode hex="00AE"/>
  <outline>
    <contour>
      <point x="-7" y="685" type="qcurve" smooth="yes"/>
      <point x="-7" y="1061"/>
      <point x="514" y="1570"/>
      <point x="918" y="1570" type="qcurve" smooth="yes"/>
      <point x="1320" y="1570"/>
      <point x="1839" y="1087"/>
      <point x="1839" y="706" type="qcurve" smooth="yes"/>
      <point x="1839" y="288"/>
      <point x="1327" y="-242"/>
      <point x="930" y="-242" type="qcurve" smooth="yes"/>
      <point x="521" y="-242"/>
      <point x="-7" y="276"/>
    </contour>
    <contour>
      <point x="158" y="681" type="qcurve" smooth="yes"/>
      <point x="158" y="335"/>
      <point x="615" y="-118"/>
      <point x="946" y="-118" type="qcurve" smooth="yes"/>
      <point x="1267" y="-118"/>
      <point x="1674" y="360"/>
      <point x="1674" y="698" type="qcurve" smooth="yes"/>
      <point x="1674" y="1007"/>
      <point x="1244" y="1446"/>
      <point x="898" y="1446" type="qcurve" smooth="yes"/>
      <point x="570" y="1446"/>
      <point x="158" y="998"/>
    </contour>
    <contour>
      <point x="487" y="176" type="line"/>
      <point x="477" y="266" type="line"/>
      <point x="594" y="290" type="line"/>
      <point x="605" y="723" type="line"/>
      <point x="594" y="1088" type="line"/>
      <point x="467" y="1111" type="line"/>
      <point x="467" y="1209" type="line"/>
      <point x="940" y="1209" type="line" smooth="yes"/>
      <point x="1098" y="1209"/>
      <point x="1251" y="1082"/>
      <point x="1251" y="968" type="qcurve" smooth="yes"/>
      <point x="1251" y="841"/>
      <point x="1064" y="664"/>
      <point x="938" y="664" type="qcurve" smooth="yes"/>
      <point x="887" y="664"/>
      <point x="747" y="673"/>
      <point x="723" y="673" type="qcurve"/>
      <point x="723" y="758" type="line"/>
      <point x="880" y="758" type="line" smooth="yes"/>
      <point x="999" y="758"/>
      <point x="1083" y="868"/>
      <point x="1083" y="959" type="qcurve" smooth="yes"/>
      <point x="1083" y="1039"/>
      <point x="991" y="1108"/>
      <point x="888" y="1108" type="qcurve" smooth="yes"/>
      <point x="781" y="1108" type="line"/>
      <point x="760" y="1095" type="line"/>
      <point x="747" y="723" type="line"/>
      <point x="758" y="290" type="line"/>
      <point x="890" y="266" type="line"/>
      <point x="890" y="176" type="line"/>
    </contour>
    <contour>
      <point x="841" y="710" type="line"/>
      <point x="992" y="738" type="line"/>
      <point x="1242" y="393" type="line" smooth="yes"/>
      <point x="1313" y="295"/>
      <point x="1408" y="266"/>
      <point x="1450" y="266" type="qcurve"/>
      <point x="1450" y="176" type="line"/>
      <point x="1259" y="176" type="line"/>
      <point x="1217" y="190" type="line"/>
    </contour>
  </outline>
</glyph>
<glyph name="degree" format="2">
  <advance width="610"/>
  <unicode hex="00B0"/>
  <outline>
    <contour>
      <point x="-12" y="1243" type="qcurve" smooth="yes"/>
      <point x="-12" y="1371"/>
      <point x="166" y="1560"/>
      <point x="305" y="1560" type="qcurve" smooth="yes"/>
      <point x="444" y="1560"/>
      <point x="622" y="1371"/>
      <point x="622" y="1243" type="qcurve" smooth="yes"/>
      <point x="622" y="1118"/>
      <point x="444" y="928"/>
      <point x="305" y="928" type="qcurve" smooth="yes"/>
      <point x="166" y="928"/>
      <point x="-12" y="1118"/>
    </contour>
    <contour>
      <point x="109" y="1243" type="qcurve" smooth="yes"/>
      <point x="109" y="1167"/>
      <point x="220" y="1049"/>
      <point x="305" y="1049" type="qcurve" smooth="yes"/>
      <point x="391" y="1049"/>
      <point x="501" y="1167"/>
      <point x="501" y="1243" type="qcurve" smooth="yes"/>
      <point x="501" y="1323"/>
      <point x="391" y="1439"/>
      <point x="305" y="1439" type="qcurve" smooth="yes"/>
      <point x="220" y="1439"/>
      <point x="109" y="1323"/>
    </contour>
  </outline>
</glyph>
<glyph name="plusminus" format="2">
  <advance width="699"/>
  <unicode hex="00B1"/>
  <outline>
    <contour>
      <point x="-2" y="556" type="line"/>
      <point x="-2" y="796" type="line"/>
      <point x="701" y="796" type="line"/>
      <point x="701" y="556" type="line"/>
    </contour>
    <contour>
      <point x="223" y="248" type="line"/>
      <point x="223" y="1130" type="line"/>
      <point x="476" y="1130" type="line"/>
      <point x="476" y="248" type="line"/>
    </contour>
    <contour>
      <point x="19" y="-40" type="line"/>
      <point x="19" y="196" type="line"/>
      <point x="680" y="196" type="line"/>
      <point x="680" y="-40" type="line"/>
    </contour>
  </outline>
</glyph>
<glyph name="twosuperior" format="2">
  <advance width="663"/>
  <unicode hex="00B2"/>
  <outline>
    <contour>
      <point x="5" y="671" type="line"/>
      <point x="3" y="849" type="line"/>
      <point x="21" y="917"/>
      <point x="138" y="1038"/>
      <point x="223" y="1107" type="qcurve" smooth="yes"/>
      <point x="295" y="1164"/>
      <point x="335" y="1240"/>
      <point x="334" y="1298" type="qcurve" smooth="yes"/>
      <point x="331" y="1355"/>
      <point x="274" y="1409"/>
      <point x="238" y="1409" type="qcurve" smooth="yes"/>
      <point x="181" y="1409"/>
      <point x="108" y="1365"/>
      <point x="71" y="1315" type="qcurve"/>
      <point x="-2" y="1398" type="line"/>
      <point x="54" y="1452"/>
      <point x="211" y="1520"/>
      <point x="344" y="1520" type="qcurve" smooth="yes"/>
      <point x="471" y="1520"/>
      <point x="652" y="1413"/>
      <point x="652" y="1312" type="qcurve" smooth="yes"/>
      <point x="652" y="1202"/>
      <point x="519" y="1065"/>
      <point x="374" y="1026" type="qcurve" smooth="yes"/>
      <point x="255" y="983"/>
      <point x="162" y="924"/>
      <point x="139" y="898" type="qcurve"/>
      <point x="139" y="872" type="line"/>
      <point x="665" y="872" type="line"/>
      <point x="665" y="671" type="line"/>
    </contour>
  </outline>
</glyph>
<glyph name="threesuperior" format="2">
  <advance width="627"/>
  <unicode hex="00B3"/>
  <outline>
    <contour>
      <point x="4" y="724" type="qcurve"/>
      <point x="50" y="817" type="line"/>
      <point x="88" y="783"/>
      <point x="163" y="755"/>
      <point x="208" y="755" type="qcurve" smooth="yes"/>
      <point x="260" y="755"/>
      <point x="318" y="825"/>
      <point x="318" y="908" type="qcurve" smooth="yes"/>
      <point x="318" y="989"/>
      <point x="234" y="1059"/>
      <point x="153" y="1059" type="qcurve" smooth="yes"/>
      <point x="134" y="1059" type="line"/>
      <point x="124" y="1154" type="line"/>
      <point x="163" y="1157" type="line" smooth="yes"/>
      <point x="237" y="1163"/>
      <point x="302" y="1240"/>
      <point x="302" y="1310" type="qcurve" smooth="yes"/>
      <point x="302" y="1364"/>
      <point x="262" y="1416"/>
      <point x="217" y="1416" type="qcurve" smooth="yes"/>
      <point x="180" y="1416"/>
      <point x="109" y="1391"/>
      <point x="71" y="1362" type="qcurve"/>
      <point x="31" y="1437" type="line"/>
      <point x="90" y="1478"/>
      <point x="238" y="1520"/>
      <point x="321" y="1520" type="qcurve" smooth="yes"/>
      <point x="459" y="1520"/>
      <point x="604" y="1417"/>
      <point x="604" y="1337" type="qcurve" smooth="yes"/>
      <point x="604" y="1252"/>
      <point x="478" y="1140"/>
      <point x="355" y="1118" type="qcurve"/>
      <point x="355" y="1114" type="line"/>
      <point x="483" y="1111"/>
      <point x="630" y="1001"/>
      <point x="630" y="905" type="qcurve" smooth="yes"/>
      <point x="630" y="783"/>
      <point x="456" y="649"/>
      <point x="297" y="649" type="qcurve" smooth="yes"/>
      <point x="197" y="649"/>
      <point x="64" y="683"/>
    </contour>
  </outline>
</glyph>
<glyph name="micro" format="2">
  <advance width="1267"/>
  <unicode hex="00B5"/>
  <outline>
    <contour>
      <point x="-15" y="-317" type="line"/>
      <point x="21" y="-295" type="line"/>
      <point x="60" y="-137"/>
      <point x="121" y="112"/>
      <point x="133" y="181" type="qcurve" smooth="yes"/>
      <point x="245" y="822" type="line"/>
      <point x="103" y="819" type="line"/>
      <point x="105" y="915" type="line"/>
      <point x="534" y="1002" type="line"/>
      <point x="579" y="1002" type="line"/>
      <point x="621" y="923" type="line"/>
      <point x="504" y="312" type="line" smooth="yes"/>
      <point x="489" y="237"/>
      <point x="526" y="167"/>
      <point x="574" y="167" type="qcurve" smooth="yes"/>
      <point x="631" y="167"/>
      <point x="761" y="285"/>
      <point x="799" y="352" type="qcurve"/>
      <point x="913" y="976" type="line"/>
      <point x="904" y="1000" type="line"/>
      <point x="1239" y="1021" type="line"/>
      <point x="1281" y="942" type="line"/>
      <point x="1164" y="362" type="line"/>
      <point x="1138" y="134" type="line"/>
      <point x="1274" y="134" type="line"/>
      <point x="1276" y="47" type="line"/>
      <point x="816" y="-15" type="line"/>
      <point x="774" y="76" type="line"/>
      <point x="782" y="215" type="line"/>
      <point x="733" y="136"/>
      <point x="584" y="23"/>
      <point x="520" y="23" type="qcurve" smooth="yes"/>
      <point x="498" y="23"/>
      <point x="466" y="36"/>
      <point x="450" y="48" type="qcurve"/>
      <point x="393" y="-274" type="line"/>
      <point x="539" y="-282" type="line"/>
      <point x="531" y="-371" type="line"/>
      <point x="8" y="-399" type="line"/>
    </contour>
  </outline>
</glyph>
<glyph name="paragraph" format="2">
  <advance width="891"/>
  <unicode hex="00B6"/>
  <outline>
    <contour>
      <point x="839" y="100" type="line"/>
      <point x="839" y="0" type="line"/>
      <point x="86" y="0" type="line"/>
      <point x="86" y="100" type="line"/>
      <point x="564" y="132" type="line"/>
      <point x="566" y="787" type="line"/>
      <point x="536" y="781"/>
      <point x="387" y="773"/>
      <point x="341" y="773" type="qcurve" smooth="yes"/>
      <point x="189" y="773"/>
      <point x="6" y="989"/>
      <point x="6" y="1155" type="qcurve" smooth="yes"/>
      <point x="6" y="1326"/>
      <point x="180" y="1500"/>
      <point x="330" y="1500" type="qcurve" smooth="yes"/>
      <point x="892" y="1500" type="line"/>
      <point x="892" y="1386" type="line"/>
      <point x="691" y="1352" type="line"/>
      <point x="689" y="754" type="line"/>
      <point x="691" y="137" type="line"/>
    </contour>
    <contour>
      <point x="411" y="46" type="line"/>
      <point x="274" y="46" type="line"/>
      <point x="276" y="907" type="line"/>
      <point x="409" y="907" type="line"/>
    </contour>
  </outline>
</glyph>
<glyph name="periodcentered" format="2">
  <advance width="383"/>
  <unicode hex="00B7"/>
  <outline>
    <contour>
      <point x="-15" y="674" type="qcurve" smooth="yes"/>
      <point x="-15" y="758"/>
      <point x="101" y="881"/>
      <point x="191" y="881" type="qcurve" smooth="yes"/>
      <point x="282" y="881"/>
      <point x="398" y="758"/>
      <point x="398" y="674" type="qcurve" smooth="yes"/>
      <point x="398" y="593"/>
      <point x="282" y="469"/>
      <point x="191" y="469" type="qcurve" smooth="yes"/>
      <point x="101" y="469"/>
      <point x="-15" y="593"/>
    </contour>
  </outline>
</glyph>
<glyph name="onesuperior" format="2">
  <advance width="510"/>
  <unicode hex="00B9"/>
  <outline>
    <contour>
      <point x="-8" y="670" type="line"/>
      <point x="-8" y="754" type="line"/>
      <point x="178" y="784" type="line"/>
      <point x="181" y="1109" type="line"/>
      <point x="178" y="1377" type="line"/>
      <point x="-10" y="1396" type="line"/>
      <point x="-10" y="1480" type="line"/>
      <point x="299" y="1513" type="line"/>
      <point x="331" y="1478" type="line"/>
      <point x="325" y="1109" type="line"/>
      <point x="327" y="784" type="line"/>
      <point x="514" y="754" type="line"/>
      <point x="514" y="670" type="line"/>
    </contour>
  </outline>
</glyph>
<glyph name="ordmasculine" format="2">
  <advance width="907"/>
  <unicode hex="00BA"/>
  <outline>
    <contour>
      <point x="-2" y="1094" type="qcurve" smooth="yes"/>
      <point x="-2" y="1280"/>
      <point x="243" y="1542"/>
      <point x="451" y="1542" type="qcurve" smooth="yes"/>
      <point x="660" y="1542"/>
      <point x="908" y="1297"/>
      <point x="908" y="1099" type="qcurve" smooth="yes"/>
      <point x="908" y="914"/>
      <point x="665" y="646"/>
      <point x="456" y="646" type="qcurve" smooth="yes"/>
      <point x="247" y="646"/>
      <point x="-2" y="894"/>
    </contour>
    <contour>
      <point x="176" y="1111" type="qcurve" smooth="yes"/>
      <point x="176" y="954"/>
      <point x="328" y="732"/>
      <point x="449" y="732" type="qcurve" smooth="yes"/>
      <point x="579" y="732"/>
      <point x="724" y="934"/>
      <point x="724" y="1098" type="qcurve" smooth="yes"/>
      <point x="724" y="1250"/>
      <point x="572" y="1450"/>
      <point x="451" y="1450" type="qcurve" smooth="yes"/>
      <point x="319" y="1450"/>
      <point x="175" y="1269"/>
    </contour>
  </outline>
</glyph>
<glyph name="guillemotright" format="2">
  <advance width="1335"/>
  <unicode hex="00BB"/>
  <outline>
    <contour>
      <point x="1303" y="585" type="line"/>
      <point x="1219" y="532"/>
      <point x="722" y="225"/>
      <point x="650" y="185" type="qcurve" smooth="yes"/>
      <point x="580" y="136"/>
      <point x="508" y="222"/>
      <point x="564" y="284" type="qcurve" smooth="yes"/>
      <point x="637" y="350"/>
      <point x="881" y="545"/>
      <point x="924" y="596" type="qcurve"/>
      <point x="880" y="640"/>
      <point x="634" y="846"/>
      <point x="560" y="926" type="qcurve" smooth="yes"/>
      <point x="507" y="976"/>
      <point x="558" y="1068"/>
      <point x="631" y="1035" type="qcurve" smooth="yes"/>
      <point x="697" y="996"/>
      <point x="1228" y="668"/>
      <point x="1303" y="625" type="qcurve"/>
    </contour>
    <contour>
      <point x="795" y="585" type="line"/>
      <point x="711" y="532"/>
      <point x="214" y="225"/>
      <point x="142" y="185" type="qcurve" smooth="yes"/>
      <point x="72" y="136"/>
      <point x="0" y="222"/>
      <point x="56" y="284" type="qcurve" smooth="yes"/>
      <point x="129" y="350"/>
      <point x="373" y="545"/>
      <point x="416" y="596" type="qcurve"/>
      <point x="372" y="640"/>
      <point x="126" y="846"/>
      <point x="52" y="926" type="qcurve" smooth="yes"/>
      <point x="-1" y="976"/>
      <point x="50" y="1068"/>
      <point x="123" y="1035" type="qcurve" smooth="yes"/>
      <point x="189" y="996"/>
      <point x="720" y="668"/>
      <point x="795" y="625" type="qcurve"/>
    </contour>
  </outline>
</glyph>
<glyph name="questiondown" format="2">
  <advance width="1132"/>
  <unicode hex="00BF"/>
  <outline>
    <contour>
      <point x="900" y="1143" type="qcurve" smooth="yes"/>
      <point x="900" y="1059"/>
      <point x="784" y="936"/>
      <point x="694" y="936" type="qcurve" smooth="yes"/>
      <point x="603" y="936"/>
      <point x="487" y="1059"/>
      <point x="487" y="1143" type="qcurve" smooth="yes"/>
      <point x="487" y="1224"/>
      <point x="603" y="1348"/>
      <point x="694" y="1348" type="qcurve" smooth="yes"/>
      <point x="784" y="1348"/>
      <point x="900" y="1224"/>
    </contour>
    <contour>
      <point x="1127" y="121" type="qcurve" smooth="yes"/>
      <point x="1127" y="-21"/>
      <point x="878" y="-214"/>
      <point x="602" y="-214" type="qcurve" smooth="yes"/>
      <point x="296" y="-214"/>
      <point x="8" y="-22"/>
      <point x="8" y="163" type="qcurve" smooth="yes"/>
      <point x="8" y="356"/>
      <point x="282" y="559"/>
      <point x="382" y="586" type="qcurve" smooth="yes"/>
      <point x="470" y="610"/>
      <point x="657" y="691"/>
      <point x="657" y="757" type="qcurve" smooth="yes"/>
      <point x="657" y="826" type="line"/>
      <point x="757" y="826" type="line"/>
      <point x="767" y="770" type="line" smooth="yes"/>
      <point x="782" y="697"/>
      <point x="686" y="548"/>
      <point x="574" y="486" type="qcurve" smooth="yes"/>
      <point x="484" y="437"/>
      <point x="343" y="314"/>
      <point x="343" y="179" type="qcurve" smooth="yes"/>
      <point x="343" y="50"/>
      <point x="502" y="-103"/>
      <point x="632" y="-103" type="qcurve" smooth="yes"/>
      <point x="754" y="-103"/>
      <point x="890" y="-20"/>
      <point x="890" y="35" type="qcurve" smooth="yes"/>
      <point x="890" y="73"/>
      <point x="752" y="146"/>
      <point x="750" y="210" type="qcurve" smooth="yes"/>
      <point x="747" y="262"/>
      <point x="833" y="345"/>
      <point x="917" y="345" type="qcurve" smooth="yes"/>
      <point x="1010" y="345"/>
      <point x="1127" y="224"/>
    </contour>
  </outline>
</glyph>
<glyph name="AE" format="2">
  <advance width="1701"/>
  <unicode hex="00C6"/>
  <anchor x="924" y="1500" name="top"/>
  <outline>
    <contour>
      <point x="2" y="0" type="line"/>
      <point x="2" y="120" type="line"/>
      <point x="159" y="155" type="line"/>
      <point x="298" y="539" type="line"/>
      <point x="589" y="1347" type="line"/>
      <point x="511" y="1366" type="line"/>
      <point x="511" y="1500" type="line"/>
      <point x="1549" y="1500" type="line"/>
      <point x="1549" y="1140" type="line"/>
      <point x="1439" y="1140" type="line"/>
      <point x="1404" y="1370" type="line"/>
      <point x="1128" y="1370" type="line"/>
      <point x="1099" y="1350" type="line"/>
      <point x="1097" y="783" type="line"/>
      <point x="1099" y="144" type="line"/>
      <point x="1129" y="120" type="line"/>
      <point x="1467" y="120" type="line"/>
      <point x="1543" y="390" type="line"/>
      <point x="1653" y="390" type="line"/>
      <point x="1613" y="0" type="line"/>
      <point x="547" y="0" type="line"/>
      <point x="547" y="120" type="line"/>
      <point x="707" y="157" type="line"/>
      <point x="709" y="783" type="line"/>
      <point x="707" y="1285" type="line"/>
      <point x="683" y="1292" type="line"/>
      <point x="419" y="504" type="line"/>
      <point x="308" y="150" type="line"/>
      <point x="434" y="120" type="line"/>
      <point x="434" y="0" type="line"/>
    </contour>
    <contour>
      <point x="340" y="448" type="line"/>
      <point x="379" y="567" type="line"/>
      <point x="571" y="552" type="line"/>
      <point x="571" y="448" type="line"/>
    </contour>
    <contour>
      <point x="571" y="552" type="line"/>
      <point x="812" y="568" type="line"/>
      <point x="812" y="448" type="line"/>
      <point x="571" y="448" type="line"/>
    </contour>
    <contour>
      <point x="1011" y="730" type="line"/>
      <point x="1011" y="838" type="line"/>
      <point x="1330" y="848" type="line"/>
      <point x="1365" y="1008" type="line"/>
      <point x="1475" y="1008" type="line"/>
      <point x="1475" y="560" type="line"/>
      <point x="1365" y="560" type="line"/>
      <point x="1330" y="720" type="line"/>
    </contour>
  </outline>
</glyph>
<glyph name="multiply" format="2">
  <advance width="530"/>
  <unicode hex="00D7"/>
  <outline>
    <contour>
      <point x="81" y="282" type="line"/>
      <point x="-85" y="448" type="line"/>
      <point x="449" y="982" type="line"/>
      <point x="615" y="816" type="line"/>
    </contour>
    <contour>
      <point x="442" y="277" type="line"/>
      <point x="-89" y="808" type="line"/>
      <point x="89" y="986" type="line"/>
      <point x="620" y="455" type="line"/>
    </contour>
  </outline>
</glyph>
<glyph name="Thorn" format="2">
  <advance width="1134"/>
  <unicode hex="00DE"/>
  <outline>
    <contour>
      <point x="44" y="0" type="line"/>
      <point x="44" y="120" type="line"/>
      <point x="204" y="157" type="line"/>
      <point x="206" y="754" type="line"/>
      <point x="204" y="1342" type="line"/>
      <point x="44" y="1376" type="line"/>
      <point x="44" y="1510" type="line"/>
      <point x="560" y="1510" type="line"/>
      <point x="560" y="1390" type="line"/>
      <point x="385" y="1350" type="line"/>
      <point x="383" y="1260" type="line"/>
      <point x="643" y="1260" type="line" smooth="yes"/>
      <point x="882" y="1260"/>
      <point x="1132" y="1044"/>
      <point x="1132" y="832" type="qcurve" smooth="yes"/>
      <point x="1132" y="626"/>
      <point x="867" y="359"/>
      <point x="627" y="359" type="qcurve" smooth="yes"/>
      <point x="518" y="359"/>
      <point x="349" y="380"/>
      <point x="302" y="388" type="qcurve"/>
      <point x="311" y="494" type="line"/>
      <point x="370" y="481"/>
      <point x="485" y="472"/>
      <point x="587" y="472" type="qcurve" smooth="yes"/>
      <point x="758" y="472"/>
      <point x="937" y="663"/>
      <point x="937" y="832" type="qcurve" smooth="yes"/>
      <point x="937" y="987"/>
      <point x="767" y="1142"/>
      <point x="607" y="1142" type="qcurve" smooth="yes"/>
      <point x="384" y="1142" type="line"/>
      <point x="382" y="764" type="line"/>
      <point x="384" y="152" type="line"/>
      <point x="559" y="120" type="line"/>
      <point x="559" y="0" type="line"/>
    </contour>
  </outline>
</glyph>
<glyph name="germandbls" format="2">
  <advance width="1360"/>
  <unicode hex="00DF"/>
  <outline>
    <contour>
      <point x="1115" y="1221" type="qcurve" smooth="yes"/>
      <point x="1115" y="1109"/>
      <point x="1054" y="996"/>
      <point x="974" y="958" type="qcurve" smooth="yes"/>
      <point x="941" y="941"/>
      <point x="913" y="889"/>
      <point x="913" y="841" type="qcurve" smooth="yes"/>
      <point x="913" y="783"/>
      <point x="978" y="715"/>
      <point x="1052" y="686" type="qcurve" smooth="yes"/>
      <point x="1193" y="635"/>
      <point x="1357" y="475"/>
      <point x="1357" y="323" type="qcurve" smooth="yes"/>
      <point x="1357" y="165"/>
      <point x="1159" y="-26"/>
      <point x="1023" y="-26" type="qcurve" smooth="yes"/>
      <point x="927" y="-26"/>
      <point x="801" y="29"/>
      <point x="747" y="73" type="qcurve"/>
      <point x="718" y="0" type="line"/>
      <point x="591" y="0" type="line"/>
      <point x="591" y="343" type="line"/>
      <point x="734" y="343" type="line"/>
      <point x="739" y="280" type="line" smooth="yes"/>
      <point x="749" y="193"/>
      <point x="834" y="85"/>
      <point x="890" y="85" type="qcurve" smooth="yes"/>
      <point x="935" y="85"/>
      <point x="1006" y="176"/>
      <point x="1006" y="260" type="qcurve" smooth="yes"/>
      <point x="1006" y="344"/>
      <point x="926" y="426"/>
      <point x="844" y="469" type="qcurve" smooth="yes"/>
      <point x="737" y="526"/>
      <point x="659" y="650"/>
      <point x="659" y="758" type="qcurve" smooth="yes"/>
      <point x="659" y="864"/>
      <point x="731" y="977"/>
      <point x="792" y="1020" type="qcurve" smooth="yes"/>
      <point x="842" y="1056"/>
      <point x="886" y="1142"/>
      <point x="886" y="1219" type="qcurve" smooth="yes"/>
      <point x="886" y="1303"/>
      <point x="811" y="1413"/>
      <point x="738" y="1413" type="qcurve" smooth="yes"/>
      <point x="644" y="1413"/>
      <point x="536" y="1250"/>
      <point x="537" y="1072" type="qcurve"/>
      <point x="541" y="527" type="line"/>
      <point x="554" y="45" type="line"/>
      <point x="536" y="0" type="line"/>
      <point x="29" y="0" type="line"/>
      <point x="29" y="108" type="line"/>
      <point x="170" y="143" type="line"/>
      <point x="172" y="527" type="line"/>
      <point x="175" y="1107" type="line" smooth="yes"/>
      <point x="176" y="1292"/>
      <point x="488" y="1526"/>
      <point x="709" y="1526" type="qcurve" smooth="yes"/>
      <point x="905" y="1526"/>
      <point x="1115" y="1362"/>
    </contour>
  </outline>
</glyph>
<glyph name="ae" format="2">
  <advance width="1529"/>
  <unicode hex="00E6"/>
  <anchor x="754" y="1000" name="top"/>
  <outline>
    <contour>
      <point x="-4" y="247" type="qcurve" smooth="yes"/>
      <point x="-4" y="384"/>
      <point x="302" y="573"/>
      <point x="651" y="621" type="qcurve"/>
      <point x="660" y="534" type="line"/>
      <point x="432" y="505"/>
      <point x="176" y="391"/>
      <point x="176" y="256" type="qcurve" smooth="yes"/>
      <point x="176" y="182"/>
      <point x="259" y="98"/>
      <point x="345" y="98" type="qcurve" smooth="yes"/>
      <point x="439" y="98"/>
      <point x="626" y="195"/>
      <point x="673" y="258" type="qcurve"/>
      <point x="658" y="287"/>
      <point x="632" y="426"/>
      <point x="632" y="486" type="qcurve" smooth="yes"/>
      <point x="632" y="617" type="line" smooth="yes"/>
      <point x="632" y="793"/>
      <point x="523" y="906"/>
      <point x="428" y="906" type="qcurve" smooth="yes"/>
      <point x="338" y="906"/>
      <point x="223" y="862"/>
      <point x="191" y="832" type="qcurve"/>
      <point x="212" y="811"/>
      <point x="236" y="767"/>
      <point x="239" y="747" type="qcurve" smooth="yes"/>
      <point x="246" y="708"/>
      <point x="202" y="653"/>
      <point x="160" y="653" type="qcurve" smooth="yes"/>
      <point x="118" y="653"/>
      <point x="66" y="730"/>
      <point x="66" y="795" type="qcurve" smooth="yes"/>
      <point x="66" y="888"/>
      <point x="283" y="1023"/>
      <point x="439" y="1023" type="qcurve" smooth="yes"/>
      <point x="573" y="1023"/>
      <point x="716" y="925"/>
      <point x="743" y="854" type="qcurve"/>
      <point x="749" y="854" type="line"/>
      <point x="783" y="913"/>
      <point x="974" y="1022"/>
      <point x="1102" y="1022" type="qcurve" smooth="yes"/>
      <point x="1297" y="1022"/>
      <point x="1511" y="793"/>
      <point x="1531" y="588" type="qcurve"/>
      <point x="1531" y="528" type="line"/>
      <point x="769" y="528" type="line"/>
      <point x="769" y="624" type="line"/>
      <point x="1363" y="624" type="line"/>
      <point x="1345" y="763"/>
      <point x="1198" y="908"/>
      <point x="1086" y="908" type="qcurve" smooth="yes"/>
      <point x="948" y="908"/>
      <point x="793" y="700"/>
      <point x="794" y="520" type="qcurve" smooth="yes"/>
      <point x="795" y="319"/>
      <point x="996" y="108"/>
      <point x="1160" y="108" type="qcurve" smooth="yes"/>
      <point x="1263" y="108"/>
      <point x="1398" y="151"/>
      <point x="1443" y="188" type="qcurve"/>
      <point x="1494" y="128" type="line"/>
      <point x="1447" y="65"/>
      <point x="1271" y="-22"/>
      <point x="1140" y="-22" type="qcurve" smooth="yes"/>
      <point x="966" y="-22"/>
      <point x="767" y="100"/>
      <point x="729" y="172" type="qcurve"/>
      <point x="676" y="110"/>
      <point x="440" y="-16"/>
      <point x="290" y="-16" type="qcurve" smooth="yes"/>
      <point x="139" y="-16"/>
      <point x="-4" y="142"/>
    </contour>
  </outline>
</glyph>
<glyph name="eth" format="2">
  <advance width="1454"/>
  <unicode hex="00F0"/>
  <outline>
    <contour>
      <point x="0" y="490" type="qcurve" smooth="yes"/>
      <point x="0" y="707"/>
      <point x="399" y="1004"/>
      <point x="720" y="1004" type="qcurve" smooth="yes"/>
      <point x="1044" y="1004"/>
      <point x="1345" y="721"/>
      <point x="1360" y="496" type="qcurve"/>
      <point x="1066" y="496" type="line"/>
      <point x="1086" y="661"/>
      <point x="900" y="888"/>
      <point x="723" y="888" type="qcurve" smooth="yes"/>
      <point x="559" y="888"/>
      <point x="384" y="690"/>
      <point x="385" y="510" type="qcurve" smooth="yes"/>
      <point x="386" y="329"/>
      <point x="570" y="87"/>
      <point x="721" y="88" type="qcurve" smooth="yes"/>
      <point x="894" y="89"/>
      <point x="1072" y="363"/>
      <point x="1072" y="621" type="qcurve" smooth="yes"/>
      <point x="1072" y="981"/>
      <point x="717" y="1387"/>
      <point x="419" y="1486" type="qcurve"/>
      <point x="455" y="1584" type="line"/>
      <point x="947" y="1474"/>
      <point x="1453" y="952"/>
      <point x="1453" y="624" type="qcurve" smooth="yes"/>
      <point x="1453" y="325"/>
      <point x="1074" y="-22"/>
      <point x="728" y="-22" type="qcurve" smooth="yes"/>
      <point x="404" y="-22"/>
      <point x="0" y="257"/>
    </contour>
    <contour>
      <point x="563" y="1214" type="line"/>
      <point x="1076" y="1567" type="line"/>
      <point x="1143" y="1478" type="line"/>
      <point x="630" y="1125" type="line"/>
    </contour>
  </outline>
</glyph>
<glyph name="divide" format="2">
  <advance width="699"/>
  <unicode hex="00F7"/>
  <outline>
    <contour>
      <point x="15" y="509" type="line"/>
      <point x="15" y="749" type="line"/>
      <point x="683" y="749" type="line"/>
      <point x="683" y="509" type="line"/>
    </contour>
    <contour>
      <point x="178" y="265" type="qcurve" smooth="yes"/>
      <point x="178" y="333"/>
      <point x="272" y="432"/>
      <point x="345" y="432" type="qcurve" smooth="yes"/>
      <point x="418" y="432"/>
      <point x="512" y="333"/>
      <point x="512" y="265" type="qcurve" smooth="yes"/>
      <point x="512" y="199"/>
      <point x="418" y="99"/>
      <point x="345" y="99" type="qcurve" smooth="yes"/>
      <point x="272" y="99"/>
      <point x="178" y="199"/>
    </contour>
    <contour>
      <point x="178" y="995" type="qcurve" smooth="yes"/>
      <point x="178" y="1063"/>
      <point x="272" y="1162"/>
      <point x="345" y="1162" type="qcurve" smooth="yes"/>
      <point x="418" y="1162"/>
      <point x="512" y="1063"/>
      <point x="512" y="995" type="qcurve" smooth="yes"/>
      <point x="512" y="929"/>
      <point x="418" y="829"/>
      <point x="345" y="829" type="qcurve" smooth="yes"/>
      <point x="272" y="829"/>
      <point x="178" y="929"/>
    </contour>
  </outline>
</glyph>
<glyph name="thorn" format="2">
  <advance width="1339"/>
  <unicode hex="00FE"/>
  <outline>
    <contour>
      <point x="42" y="-480" type="line"/>
      <point x="42" y="-372" type="line"/>
      <point x="162" y="-337" type="line"/>
      <point x="164" y="427" type="line"/>
      <point x="163" y="1352" type="line"/>
      <point x="24" y="1382" type="line"/>
      <point x="24" y="1507" type="line"/>
      <point x="473" y="1538" type="line"/>
      <point x="505" y="1538" type="line"/>
      <point x="533" y="1506" type="line"/>
      <point x="532" y="890" type="line"/>
      <point x="581" y="962"/>
      <point x="746" y="1052"/>
      <point x="861" y="1052" type="qcurve" smooth="yes"/>
      <point x="1039" y="1052"/>
      <point x="1271" y="778"/>
      <point x="1271" y="547" type="qcurve" smooth="yes"/>
      <point x="1271" y="295"/>
      <point x="1030" y="-12"/>
      <point x="828" y="-12" type="qcurve" smooth="yes"/>
      <point x="728" y="-12"/>
      <point x="574" y="50"/>
      <point x="530" y="92" type="qcurve"/>
      <point x="532" y="-337" type="line"/>
      <point x="660" y="-372" type="line"/>
      <point x="660" y="-480" type="line"/>
    </contour>
    <contour>
      <point x="530" y="255" type="line"/>
      <point x="551" y="194"/>
      <point x="642" y="106"/>
      <point x="704" y="106" type="qcurve" smooth="yes"/>
      <point x="787" y="106"/>
      <point x="884" y="329"/>
      <point x="884" y="522" type="qcurve" smooth="yes"/>
      <point x="884" y="706"/>
      <point x="788" y="914"/>
      <point x="706" y="914" type="qcurve" smooth="yes"/>
      <point x="646" y="914"/>
      <point x="557" y="828"/>
      <point x="530" y="762" type="qcurve"/>
      <point x="528" y="444" type="line"/>
    </contour>
  </outline>
</glyph>
<glyph name="idotless" format="2">
  <advance width="839"/>
  <unicode hex="0131"/>
  <anchor x="425" y="0" name="bottom"/>
  <anchor x="425" y="1033" name="top"/>
  <anchor x="661" y="0" name="ogonek"/>
  <outline>
    <contour>
      <point x="104" y="0" type="line"/>
      <point x="104" y="108" type="line"/>
      <point x="245" y="143" type="line"/>
      <point x="247" y="529" type="line"/>
      <point x="241" y="846" type="line"/>
      <point x="99" y="876" type="line"/>
      <point x="99" y="1002" type="line"/>
      <point x="550" y="1035" type="line"/>
      <point x="597" y="1035" type="line"/>
      <point x="620" y="996" type="line"/>
      <point x="613" y="529" type="line"/>
      <point x="615" y="143" type="line"/>
      <point x="756" y="108" type="line"/>
      <point x="756" y="0" type="line"/>
    </contour>
  </outline>
</glyph>
<glyph name="kgreenlandic" format="2">
  <advance width="1476"/>
  <unicode hex="0138"/>
  <outline>
    <contour>
      <point x="98" y="0" type="line"/>
      <point x="98" y="108" type="line"/>
      <point x="214" y="143" type="line"/>
      <point x="216" y="544" type="line"/>
      <point x="214" y="889" type="line"/>
      <point x="98" y="924" type="line"/>
      <point x="98" y="1032" type="line"/>
      <point x="700" y="1032" type="line"/>
      <point x="700" y="924" type="line"/>
      <point x="584" y="889" type="line"/>
      <point x="582" y="523" type="line"/>
      <point x="584" y="143" type="line"/>
      <point x="699" y="108" type="line"/>
      <point x="699" y="0" type="line"/>
    </contour>
    <contour>
      <point x="713" y="521" type="line"/>
      <point x="713" y="675" type="line"/>
      <point x="968" y="884" type="line"/>
      <point x="876" y="924" type="line"/>
      <point x="882" y="1032" type="line"/>
      <point x="1268" y="1032" type="line"/>
      <point x="1268" y="924" type="line"/>
      <point x="1111" y="879" type="line"/>
    </contour>
    <contour>
      <point x="635" y="585" type="line"/>
      <point x="960" y="745" type="line"/>
      <point x="1311" y="143" type="line"/>
      <point x="1432" y="108" type="line"/>
      <point x="1432" y="0" type="line"/>
      <point x="870" y="0" type="line"/>
      <point x="851" y="107" type="line"/>
      <point x="892" y="139" type="line"/>
    </contour>
  </outline>
</glyph>
<glyph name="OE" format="2">
  <advance width="2487"/>
  <unicode hex="0152"/>
  <outline>
    <contour>
      <point x="80" y="737" type="qcurve" smooth="yes"/>
      <point x="80" y="1068"/>
      <point x="579" y="1518"/>
      <point x="1004" y="1518" type="qcurve" smooth="yes"/>
      <point x="1082" y="1518"/>
      <point x="1366" y="1500"/>
      <point x="1426" y="1500" type="qcurve" smooth="yes"/>
      <point x="2335" y="1500" type="line"/>
      <point x="2335" y="1140" type="line"/>
      <point x="2225" y="1140" type="line"/>
      <point x="2190" y="1370" type="line"/>
      <point x="1727" y="1370" type="line"/>
      <point x="1698" y="1350" type="line"/>
      <point x="1696" y="783" type="line"/>
      <point x="1698" y="144" type="line"/>
      <point x="1728" y="120" type="line"/>
      <point x="2253" y="120" type="line"/>
      <point x="2329" y="390" type="line"/>
      <point x="2439" y="390" type="line"/>
      <point x="2399" y="0" type="line"/>
      <point x="1486" y="0" type="line" smooth="yes"/>
      <point x="1423" y="0"/>
      <point x="1117" y="-26"/>
      <point x="1010" y="-26" type="qcurve" smooth="yes"/>
      <point x="594" y="-26"/>
      <point x="80" y="396"/>
    </contour>
    <contour>
      <point x="487" y="770" type="qcurve" smooth="yes"/>
      <point x="487" y="486"/>
      <point x="780" y="116"/>
      <point x="1030" y="116" type="qcurve" smooth="yes"/>
      <point x="1108" y="116"/>
      <point x="1248" y="131"/>
      <point x="1306" y="145" type="qcurve"/>
      <point x="1308" y="782" type="line"/>
      <point x="1306" y="1342" type="line"/>
      <point x="1268" y="1348"/>
      <point x="1105" y="1369"/>
      <point x="1030" y="1369" type="qcurve" smooth="yes"/>
      <point x="757" y="1369"/>
      <point x="487" y="1044"/>
    </contour>
    <contour>
      <point x="1610" y="730" type="line"/>
      <point x="1610" y="838" type="line"/>
      <point x="2044" y="848" type="line"/>
      <point x="2079" y="1008" type="line"/>
      <point x="2189" y="1008" type="line"/>
      <point x="2189" y="560" type="line"/>
      <point x="2079" y="560" type="line"/>
      <point x="2044" y="720" type="line"/>
    </contour>
  </outline>
</glyph>
<glyph name="oe" format="2">
  <advance width="2491"/>
  <unicode hex="0153"/>
  <outline>
    <contour>
      <point x="64" y="500" type="qcurve" smooth="yes"/>
      <point x="64" y="717"/>
      <point x="448" y="1022"/>
      <point x="759" y="1022" type="qcurve" smooth="yes"/>
      <point x="986" y="1022"/>
      <point x="1281" y="881"/>
      <point x="1335" y="806" type="qcurve"/>
      <point x="1351" y="806" type="line"/>
      <point x="1389" y="884"/>
      <point x="1637" y="1022"/>
      <point x="1832" y="1022" type="qcurve" smooth="yes"/>
      <point x="2093" y="1022"/>
      <point x="2392" y="793"/>
      <point x="2418" y="588" type="qcurve"/>
      <point x="2418" y="528" type="line"/>
      <point x="1422" y="528" type="line"/>
      <point x="1422" y="624" type="line"/>
      <point x="2066" y="624" type="line"/>
      <point x="2049" y="759"/>
      <point x="1901" y="900"/>
      <point x="1789" y="900" type="qcurve" smooth="yes"/>
      <point x="1651" y="900"/>
      <point x="1499" y="696"/>
      <point x="1500" y="511" type="qcurve" smooth="yes"/>
      <point x="1501" y="330"/>
      <point x="1704" y="117"/>
      <point x="1922" y="117" type="qcurve" smooth="yes"/>
      <point x="2042" y="117"/>
      <point x="2233" y="170"/>
      <point x="2318" y="229" type="qcurve"/>
      <point x="2377" y="159" type="line"/>
      <point x="2310" y="83"/>
      <point x="2036" y="-22"/>
      <point x="1874" y="-22" type="qcurve" smooth="yes"/>
      <point x="1684" y="-22"/>
      <point x="1365" y="115"/>
      <point x="1309" y="206" type="qcurve"/>
      <point x="1303" y="206" type="line"/>
      <point x="1272" y="123"/>
      <point x="975" y="-22"/>
      <point x="767" y="-22" type="qcurve" smooth="yes"/>
      <point x="455" y="-22"/>
      <point x="64" y="267"/>
    </contour>
    <contour>
      <point x="449" y="520" type="qcurve" smooth="yes"/>
      <point x="450" y="345"/>
      <point x="634" y="103"/>
      <point x="785" y="103" type="qcurve" smooth="yes"/>
      <point x="947" y="103"/>
      <point x="1123" y="324"/>
      <point x="1123" y="507" type="qcurve" smooth="yes"/>
      <point x="1123" y="675"/>
      <point x="939" y="893"/>
      <point x="787" y="893" type="qcurve" smooth="yes"/>
      <point x="623" y="893"/>
      <point x="448" y="694"/>
    </contour>
  </outline>
</glyph>
<glyph name="Schwa" format="2">
  <advance width="1858"/>
  <unicode hex="018F"/>
  <outline>
    <contour>
      <point x="64" y="1199" type="line"/>
      <point x="202" y="1362"/>
      <point x="579" y="1519"/>
      <point x="852" y="1519" type="qcurve" smooth="yes"/>
      <point x="1295" y="1519"/>
      <point x="1778" y="1094"/>
      <point x="1778" y="789" type="qcurve" smooth="yes"/>
      <point x="1778" y="445"/>
      <point x="1302" y="-30"/>
      <point x="871" y="-30" type="qcurve" smooth="yes"/>
      <point x="466" y="-30"/>
      <point x="92" y="296"/>
      <point x="92" y="578" type="qcurve" smooth="yes"/>
      <point x="92" y="696" type="line"/>
      <point x="1327" y="696" type="line"/>
      <point x="1370" y="553" type="line"/>
      <point x="862" y="561" type="line"/>
      <point x="495" y="555" type="line"/>
      <point x="495" y="483" type="line" smooth="yes"/>
      <point x="495" y="321"/>
      <point x="700" y="109"/>
      <point x="899" y="109" type="qcurve" smooth="yes"/>
      <point x="1109" y="109"/>
      <point x="1374" y="467"/>
      <point x="1372" y="749" type="qcurve" smooth="yes"/>
      <point x="1369" y="1041"/>
      <point x="997" y="1363"/>
      <point x="748" y="1363" type="qcurve" smooth="yes"/>
      <point x="542" y="1363"/>
      <point x="265" y="1238"/>
      <point x="161" y="1115" type="qcurve"/>
    </contour>
  </outline>
</glyph>
<glyph name="florin" format="2">
  <advance width="739"/>
  <unicode hex="0192"/>
  <outline>
    <contour>
      <point x="568" y="-75" type="line" smooth="yes"/>
      <point x="570" y="-175"/>
      <point x="381" y="-311"/>
      <point x="238" y="-311" type="qcurve" smooth="yes"/>
      <point x="174" y="-311"/>
      <point x="84" y="-303"/>
      <point x="42" y="-295" type="qcurve" smooth="yes"/>
      <point x="13" y="-290" type="line"/>
      <point x="28" y="-184" type="line"/>
      <point x="46" y="-190" type="line" smooth="yes"/>
      <point x="52" y="-192"/>
      <point x="77" y="-197"/>
      <point x="90" y="-197" type="qcurve" smooth="yes"/>
      <point x="139" y="-197"/>
      <point x="191" y="-124"/>
      <point x="189" y="-47" type="qcurve" smooth="yes"/>
      <point x="170" y="860" type="line"/>
      <point x="28" y="872" type="line"/>
      <point x="18" y="966" type="line"/>
      <point x="163" y="984" type="line"/>
      <point x="156" y="1304" type="line" smooth="yes"/>
      <point x="154" y="1404"/>
      <point x="345" y="1520"/>
      <point x="487" y="1520" type="qcurve" smooth="yes"/>
      <point x="544" y="1520"/>
      <point x="654" y="1511"/>
      <point x="680" y="1504" type="qcurve" smooth="yes"/>
      <point x="710" y="1498" type="line"/>
      <point x="693" y="1393" type="line"/>
      <point x="677" y="1399" type="line" smooth="yes"/>
      <point x="669" y="1402"/>
      <point x="648" y="1406"/>
      <point x="634" y="1406" type="qcurve" smooth="yes"/>
      <point x="589" y="1406"/>
      <point x="534" y="1342"/>
      <point x="537" y="1269" type="qcurve" smooth="yes"/>
      <point x="547" y="985" type="line"/>
      <point x="700" y="985" type="line"/>
      <point x="700" y="883" type="line"/>
      <point x="549" y="872" type="line"/>
    </contour>
  </outline>
</glyph>
<glyph name="schwa" format="2">
  <advance width="1257"/>
  <unicode hex="0259"/>
  <outline>
    <contour>
      <point x="1191" y="516" type="qcurve" smooth="yes"/>
      <point x="1191" y="296"/>
      <point x="885" y="-22"/>
      <point x="611" y="-22" type="qcurve" smooth="yes"/>
      <point x="371" y="-22"/>
      <point x="90" y="215"/>
      <point x="70" y="427" type="qcurve"/>
      <point x="70" y="492" type="line"/>
      <point x="912" y="492" type="line"/>
      <point x="912" y="391" type="line"/>
      <point x="428" y="391" type="line"/>
      <point x="439" y="250"/>
      <point x="538" y="100"/>
      <point x="613" y="100" type="qcurve" smooth="yes"/>
      <point x="705" y="100"/>
      <point x="807" y="312"/>
      <point x="806" y="496" type="qcurve" smooth="yes"/>
      <point x="806" y="696"/>
      <point x="662" y="916"/>
      <point x="491" y="916" type="qcurve" smooth="yes"/>
      <point x="401" y="917"/>
      <point x="242" y="863"/>
      <point x="170" y="804" type="qcurve"/>
      <point x="105" y="874" type="line"/>
      <point x="163" y="950"/>
      <point x="403" y="1055"/>
      <point x="562" y="1055" type="qcurve" smooth="yes"/>
      <point x="898" y="1055"/>
      <point x="1191" y="769"/>
    </contour>
  </outline>
</glyph>
<glyph name="gravecomb" format="2">
  <advance width="1213"/>
  <unicode hex="0300"/>
  <anchor x="606" y="1000" name="_top"/>
  <anchor x="606" y="1497" name="top"/>
  <outline>
    <contour>
      <point x="322" y="1421" type="qcurve" smooth="yes"/>
      <point x="322" y="1469"/>
      <point x="401" y="1537"/>
      <point x="457" y="1537" type="qcurve" smooth="yes"/>
      <point x="512" y="1537"/>
      <point x="625" y="1432"/>
      <point x="668" y="1378" type="qcurve" smooth="yes"/>
      <point x="798" y="1228" type="line"/>
      <point x="719" y="1147" type="line"/>
      <point x="460" y="1270" type="line" smooth="yes"/>
      <point x="398" y="1294"/>
      <point x="322" y="1357"/>
    </contour>
  </outline>
</glyph>
<glyph name="acutecomb" format="2">
  <advance width="1213"/>
  <unicode hex="0301"/>
  <anchor x="606" y="1000" name="_top"/>
  <anchor x="606" y="1524" name="top"/>
  <outline>
    <contour>
      <point x="889" y="1424" type="qcurve" smooth="yes"/>
      <point x="889" y="1360"/>
      <point x="813" y="1298"/>
      <point x="751" y="1273" type="qcurve" smooth="yes"/>
      <point x="488" y="1150" type="line"/>
      <point x="414" y="1226" type="line"/>
      <point x="543" y="1381" type="line" smooth="yes"/>
      <point x="585" y="1436"/>
      <point x="699" y="1540"/>
      <point x="755" y="1540" type="qcurve" smooth="yes"/>
      <point x="811" y="1540"/>
      <point x="889" y="1472"/>
    </contour>
  </outline>
</glyph>
<glyph name="circumflexcomb" format="2">
  <advance width="1213"/>
  <unicode hex="0302"/>
  <anchor x="606" y="1000" name="_top"/>
  <anchor x="606" y="1539" name="top"/>
  <outline>
    <contour>
      <point x="606" y="1539" type="qcurve" smooth="yes"/>
      <point x="640" y="1539"/>
      <point x="685" y="1508"/>
      <point x="716" y="1466" type="qcurve" smooth="yes"/>
      <point x="919" y="1223" type="line"/>
      <point x="841" y="1150" type="line"/>
      <point x="606" y="1365" type="line"/>
      <point x="371" y="1150" type="line"/>
      <point x="293" y="1223" type="line"/>
      <point x="496" y="1466" type="line" smooth="yes"/>
      <point x="537" y="1515"/>
      <point x="572" y="1539"/>
    </contour>
  </outline>
</glyph>
<glyph name="tildecomb" format="2">
  <advance width="1213"/>
  <unicode hex="0303"/>
  <anchor x="612" y="1000" name="_top"/>
  <anchor x="612" y="1402" name="top"/>
  <outline>
    <contour>
      <point x="213" y="1234" type="line"/>
      <point x="245" y="1298"/>
      <point x="380" y="1455"/>
      <point x="446" y="1455" type="qcurve" smooth="yes"/>
      <point x="490" y="1455"/>
      <point x="590" y="1422"/>
      <point x="628" y="1401" type="qcurve" smooth="yes"/>
      <point x="663" y="1384"/>
      <point x="779" y="1332"/>
      <point x="824" y="1332" type="qcurve" smooth="yes"/>
      <point x="862" y="1332"/>
      <point x="929" y="1385"/>
      <point x="951" y="1422" type="qcurve"/>
      <point x="1015" y="1343" type="line"/>
      <point x="979" y="1267"/>
      <point x="848" y="1132"/>
      <point x="796" y="1132" type="qcurve" smooth="yes"/>
      <point x="745" y="1132"/>
      <point x="636" y="1177"/>
      <point x="595" y="1197" type="qcurve" smooth="yes"/>
      <point x="561" y="1216"/>
      <point x="451" y="1255"/>
      <point x="419" y="1255" type="qcurve" smooth="yes"/>
      <point x="373" y="1255"/>
      <point x="301" y="1183"/>
      <point x="283" y="1155" type="qcurve"/>
    </contour>
  </outline>
</glyph>
<glyph name="brevecomb" format="2">
  <advance width="1213"/>
  <unicode hex="0306"/>
  <anchor x="606" y="1000" name="_top"/>
  <anchor x="606" y="1464" name="top"/>
  <outline>
    <contour>
      <point x="882" y="1463" type="qcurve"/>
      <point x="960" y="1410" type="line"/>
      <point x="947" y="1317"/>
      <point x="736" y="1143"/>
      <point x="607" y="1143" type="qcurve" smooth="yes"/>
      <point x="478" y="1143"/>
      <point x="274" y="1297"/>
      <point x="252" y="1407" type="qcurve"/>
      <point x="334" y="1464" type="line"/>
      <point x="366" y="1407"/>
      <point x="511" y="1301"/>
      <point x="608" y="1299" type="qcurve" smooth="yes"/>
      <point x="708" y="1301"/>
      <point x="855" y="1409"/>
    </contour>
  </outline>
</glyph>
<glyph name="dotaccentcomb" format="2">
  <advance width="1213"/>
  <unicode hex="0307"/>
  <anchor x="606" y="1000" name="_top"/>
  <anchor x="606" y="1372" name="top"/>
  <outline>
    <contour>
      <point x="485" y="1254" type="qcurve" smooth="yes"/>
      <point x="485" y="1311"/>
      <point x="547" y="1372"/>
      <point x="606" y="1372" type="qcurve" smooth="yes"/>
      <point x="661" y="1372"/>
      <point x="727" y="1307"/>
      <point x="727" y="1254" type="qcurve" smooth="yes"/>
      <point x="727" y="1197"/>
      <point x="665" y="1136"/>
      <point x="606" y="1136" type="qcurve" smooth="yes"/>
      <point x="551" y="1136"/>
      <point x="485" y="1201"/>
    </contour>
  </outline>
</glyph>
<glyph name="dieresiscomb" format="2">
  <advance width="1213"/>
  <unicode hex="0308"/>
  <anchor x="606" y="1000" name="_top"/>
  <anchor x="606" y="1327" name="top"/>
  <anchor x="606" y="1000" name="_GRKtop"/>
  <outline>
    <contour>
      <point x="720" y="1213" type="qcurve" smooth="yes"/>
      <point x="720" y="1268"/>
      <point x="780" y="1327"/>
      <point x="836" y="1327" type="qcurve" smooth="yes"/>
      <point x="889" y="1327"/>
      <point x="952" y="1264"/>
      <point x="952" y="1213" type="qcurve" smooth="yes"/>
      <point x="952" y="1159"/>
      <point x="893" y="1100"/>
      <point x="836" y="1100" type="qcurve" smooth="yes"/>
      <point x="783" y="1100"/>
      <point x="720" y="1162"/>
    </contour>
    <contour>
      <point x="260" y="1213" type="qcurve" smooth="yes"/>
      <point x="260" y="1268"/>
      <point x="320" y="1327"/>
      <point x="376" y="1327" type="qcurve" smooth="yes"/>
      <point x="429" y="1327"/>
      <point x="492" y="1264"/>
      <point x="492" y="1213" type="qcurve" smooth="yes"/>
      <point x="492" y="1159"/>
      <point x="433" y="1100"/>
      <point x="376" y="1100" type="qcurve" smooth="yes"/>
      <point x="323" y="1100"/>
      <point x="260" y="1162"/>
    </contour>
  </outline>
</glyph>
<glyph name="hookabovecomb" format="2">
  <advance width="1213"/>
  <unicode hex="0309"/>
  <anchor x="606" y="1000" name="_top"/>
  <anchor x="606" y="1597" name="top"/>
  <outline>
    <contour>
      <point x="490" y="1150" type="line"/>
      <point x="490" y="1233" type="line"/>
      <point x="569" y="1321" type="line"/>
      <point x="586" y="1315"/>
      <point x="618" y="1310"/>
      <point x="632" y="1310" type="qcurve" smooth="yes"/>
      <point x="673" y="1310"/>
      <point x="724" y="1354"/>
      <point x="724" y="1396" type="qcurve" smooth="yes"/>
      <point x="724" y="1436"/>
      <point x="669" y="1478"/>
      <point x="623" y="1478" type="qcurve" smooth="yes"/>
      <point x="576" y="1478"/>
      <point x="479" y="1454"/>
      <point x="440" y="1435" type="qcurve"/>
      <point x="396" y="1539" type="line"/>
      <point x="456" y="1565"/>
      <point x="569" y="1597"/>
      <point x="620" y="1597" type="qcurve" smooth="yes"/>
      <point x="728" y="1597"/>
      <point x="866" y="1492"/>
      <point x="866" y="1389" type="qcurve" smooth="yes"/>
      <point x="866" y="1304"/>
      <point x="772" y="1197"/>
      <point x="706" y="1197" type="qcurve" smooth="yes"/>
      <point x="681" y="1197"/>
      <point x="633" y="1206"/>
      <point x="617" y="1210" type="qcurve"/>
      <point x="617" y="1150" type="line"/>
    </contour>
  </outline>
</glyph>
<glyph name="ringcomb" format="2">
  <advance width="1213"/>
  <unicode hex="030A"/>
  <anchor x="606" y="1000" name="_top"/>
  <anchor x="606" y="1565" name="top"/>
  <outline>
    <contour>
      <point x="379" y="1347" type="qcurve" smooth="yes"/>
      <point x="379" y="1438"/>
      <point x="511" y="1565"/>
      <point x="606" y="1565" type="qcurve" smooth="yes"/>
      <point x="701" y="1565"/>
      <point x="833" y="1438"/>
      <point x="833" y="1347" type="qcurve" smooth="yes"/>
      <point x="833" y="1256"/>
      <point x="701" y="1129"/>
      <point x="606" y="1129" type="qcurve" smooth="yes"/>
      <point x="511" y="1129"/>
      <point x="379" y="1256"/>
    </contour>
    <contour>
      <point x="503" y="1347" type="qcurve" smooth="yes"/>
      <point x="503" y="1301"/>
      <point x="559" y="1244"/>
      <point x="606" y="1244" type="qcurve" smooth="yes"/>
      <point x="656" y="1244"/>
      <point x="709" y="1297"/>
      <point x="709" y="1347" type="qcurve" smooth="yes"/>
      <point x="709" y="1393"/>
      <point x="653" y="1450"/>
      <point x="606" y="1450" type="qcurve" smooth="yes"/>
      <point x="556" y="1450"/>
      <point x="503" y="1397"/>
    </contour>
  </outline>
</glyph>
<glyph name="hungarumlautcomb" format="2">
  <advance width="1213"/>
  <unicode hex="030B"/>
  <anchor x="690" y="1000" name="_top"/>
  <anchor x="690" y="1534" name="top"/>
  <outline>
    <contour>
      <point x="694" y="1474" type="qcurve" smooth="yes"/>
      <point x="694" y="1427"/>
      <point x="651" y="1390"/>
      <point x="613" y="1357" type="qcurve" smooth="yes"/>
      <point x="370" y="1150" type="line"/>
      <point x="296" y="1226" type="line"/>
      <point x="475" y="1453" type="line" smooth="yes"/>
      <point x="507" y="1493"/>
      <point x="562" y="1552"/>
      <point x="599" y="1552" type="qcurve" smooth="yes"/>
      <point x="633" y="1552"/>
      <point x="694" y="1509"/>
    </contour>
    <contour>
      <point x="1084" y="1474" type="qcurve" smooth="yes"/>
      <point x="1084" y="1427"/>
      <point x="1041" y="1390"/>
      <point x="1003" y="1357" type="qcurve" smooth="yes"/>
      <point x="760" y="1150" type="line"/>
      <point x="686" y="1226" type="line"/>
      <point x="866" y="1453" type="line" smooth="yes"/>
      <point x="898" y="1493"/>
      <point x="952" y="1552"/>
      <point x="989" y="1552" type="qcurve" smooth="yes"/>
      <point x="1023" y="1552"/>
      <point x="1084" y="1509"/>
    </contour>
  </outline>
</glyph>
<glyph name="caroncomb" format="2">
  <advance width="1213"/>
  <unicode hex="030C"/>
  <anchor x="606" y="1000" name="_top"/>
  <anchor x="606" y="1511" name="top"/>
  <outline>
    <contour>
      <point x="606" y="1122" type="qcurve" smooth="yes"/>
      <point x="572" y="1122"/>
      <point x="524" y="1155"/>
      <point x="496" y="1190" type="qcurve" smooth="yes"/>
      <point x="281" y="1445" type="line"/>
      <point x="345" y="1511" type="line"/>
      <point x="606" y="1339" type="line"/>
      <point x="868" y="1511" type="line"/>
      <point x="931" y="1445" type="line"/>
      <point x="716" y="1190" type="line" smooth="yes"/>
      <point x="686" y="1153"/>
      <point x="640" y="1122"/>
    </contour>
  </outline>
</glyph>
<glyph name="breveinvertedcomb" format="2">
  <advance width="1223"/>
  <unicode hex="030F"/>
  <anchor x="612" y="1000" name="_top"/>
  <anchor x="612" y="1470" name="top"/>
  <outline>
    <contour>
      <point x="338" y="1150" type="qcurve"/>
      <point x="260" y="1203" type="line"/>
      <point x="275" y="1296"/>
      <point x="486" y="1470"/>
      <point x="611" y="1470" type="qcurve"/>
      <point x="740" y="1470"/>
      <point x="951" y="1296"/>
      <point x="964" y="1203" type="qcurve"/>
      <point x="886" y="1150" type="line"/>
      <point x="859" y="1204"/>
      <point x="711" y="1314"/>
      <point x="612" y="1314" type="qcurve"/>
      <point x="515" y="1314"/>
      <point x="367" y="1204"/>
    </contour>
  </outline>
</glyph>
<glyph name="dblgravecomb" format="2">
  <advance width="1213"/>
  <unicode hex="0311"/>
  <anchor x="606" y="1000" name="_top"/>
  <anchor x="606" y="1585" name="top"/>
  <outline>
    <contour>
      <point x="87" y="1492" type="qcurve"/>
      <point x="87" y="1532"/>
      <point x="144" y="1577"/>
      <point x="180" y="1577" type="qcurve" smooth="yes"/>
      <point x="222" y="1577"/>
      <point x="279" y="1524"/>
      <point x="313" y="1478" type="qcurve" smooth="yes"/>
      <point x="494" y="1230" type="line"/>
      <point x="407" y="1151" type="line"/>
      <point x="180" y="1353" type="line" smooth="yes"/>
      <point x="147" y="1383"/>
      <point x="87" y="1454"/>
    </contour>
    <contour>
      <point x="484" y="1492" type="qcurve"/>
      <point x="484" y="1532"/>
      <point x="541" y="1577"/>
      <point x="577" y="1577" type="qcurve" smooth="yes"/>
      <point x="619" y="1577"/>
      <point x="677" y="1523"/>
      <point x="711" y="1477" type="qcurve" smooth="yes"/>
      <point x="891" y="1230" type="line"/>
      <point x="804" y="1151" type="line"/>
      <point x="577" y="1353" type="line" smooth="yes"/>
      <point x="544" y="1383"/>
      <point x="484" y="1454"/>
    </contour>
  </outline>
</glyph>
<glyph name="dotbelowcomb" format="2">
  <advance width="1213"/>
  <unicode hex="0323"/>
  <anchor x="606" y="0" name="_bottom"/>
  <anchor x="606" y="-422" name="bottom"/>
  <outline>
    <contour>
      <point x="488" y="-306" type="qcurve" smooth="yes"/>
      <point x="488" y="-251"/>
      <point x="548" y="-191"/>
      <point x="606" y="-191" type="qcurve" smooth="yes"/>
      <point x="660" y="-191"/>
      <point x="724" y="-255"/>
      <point x="724" y="-306" type="qcurve" smooth="yes"/>
      <point x="724" y="-362"/>
      <point x="664" y="-422"/>
      <point x="606" y="-422" type="qcurve" smooth="yes"/>
      <point x="552" y="-422"/>
      <point x="488" y="-358"/>
    </contour>
  </outline>
</glyph>
<glyph name="dieresisbelowcomb" format="2">
  <advance width="1213"/>
  <unicode hex="0324"/>
  <anchor x="606" y="0" name="_bottom"/>
  <anchor x="606" y="-441" name="bottom"/>
  <outline>
    <contour>
      <point x="260" y="-328" type="qcurve" smooth="yes"/>
      <point x="260" y="-273"/>
      <point x="320" y="-214"/>
      <point x="376" y="-214" type="qcurve" smooth="yes"/>
      <point x="429" y="-214"/>
      <point x="492" y="-277"/>
      <point x="492" y="-328" type="qcurve" smooth="yes"/>
      <point x="492" y="-382"/>
      <point x="433" y="-441"/>
      <point x="376" y="-441" type="qcurve" smooth="yes"/>
      <point x="323" y="-441"/>
      <point x="260" y="-379"/>
    </contour>
    <contour>
      <point x="720" y="-328" type="qcurve" smooth="yes"/>
      <point x="720" y="-273"/>
      <point x="780" y="-214"/>
      <point x="836" y="-214" type="qcurve" smooth="yes"/>
      <point x="889" y="-214"/>
      <point x="952" y="-277"/>
      <point x="952" y="-328" type="qcurve" smooth="yes"/>
      <point x="952" y="-382"/>
      <point x="893" y="-441"/>
      <point x="836" y="-441" type="qcurve" smooth="yes"/>
      <point x="783" y="-441"/>
      <point x="720" y="-379"/>
    </contour>
  </outline>
</glyph>
